<ttFont>
<head>
    <!-- Most of this table will be recalculated by the compiler -->
    <tableVersion value="1.0"/>
    <fontRevision value="1.002"/>
    <checkSumAdjustment value="0x7f1e15fa"/>
    <magicNumber value="0x5f0f3cf5"/>
    <flags value="00000000 00001011"/>
    <unitsPerEm value="1000"/>
    <created value="Thu Jan 14 16:32:43 2016"/>
    <modified value="Thu Jan  2 08:45:01 2020"/>
    <xMin value="-1628"/>
    <yMin value="-375"/>
    <xMax value="703"/>
    <yMax value="1125"/>
    <macStyle value="00000000 00000010"/>
    <lowestRecPPEM value="8"/>
    <fontDirectionHint value="2"/>
    <indexToLocFormat value="0"/>
    <glyphDataFormat value="0"/>
  </head>
          <CharString index="0">
            -38 -29 -30 -37 -38 29 -29 38 39 28 29 38 hvcurveto
            37 -28 30 -39 vhcurveto
            return
          </CharString>
          <CharString index="1">
            81 247 3 32 -76 0 -49 -279 rlineto
            return
          </CharString>
          <CharString index="2">
            -269 -178 -109 -153 0 -167 0 -123 62 -134 151 -160 rrcurveto
            46 35 rlineto
            -142 147 -60 122 0 114 0 150 92 139 261 165 rrcurveto
            return
          </CharString>
          <CharString index="3">
            269 178 109 153 0 166 0 124 -62 133 -151 161 rrcurveto
            -47 -35 rlineto
            143 -147 60 -122 0 -114 0 -151 -92 -139 -261 -164 rrcurveto
            return
          </CharString>
          <CharString index="4">
            60 4 rlineto
            -19 208 -23 206 -25 207 rrcurveto
            -87 hlineto
            return
          </CharString>
          <CharString index="5">
            -107 -207 -104 -209 -98 -207 rrcurveto
            62 hlineto
            32 67 32 67 33 68 rrcurveto
            225 hlineto
            7 -69 6 -68 6 -67 rrcurveto
            return
          </CharString>
          <CharString index="6">
            8 hlineto
            12 -105 11 -107 10 -107 rrcurveto
            -199 hlineto
            52 107 53 106 53 106 rrcurveto
            return
          </CharString>
          <CharString index="7">
            -173 -135 -200 -212 hvcurveto
            0 -209 143 -77 236 87 rrcurveto
            6 57 rlineto
            -208 -80 -116 51 0 182 0 170 102 177 133 0 79 0 12 -61 -3 -110 rrcurveto
            58 1 rlineto
            7 146 -30 78 -111 0 rrcurveto
            return
          </CharString>
          <CharString index="8">
            0 195 -127 79 -221 -37 rrcurveto
            return
          </CharString>
          <CharString index="9">
            -120 -619 rlineto
            317 -42 151 195 0 229 rrcurveto
            return
          </CharString>
          <CharString index="10">
            0 -187 -109 -159 -228 20 rrcurveto
            102 523 rlineto
            152 18 83 -62 0 -153 rrcurveto
            return
          </CharString>
          <CharString index="11">
            -302 0 46 238 255 0 9 47 -255 0 44 229 301 0 10 53 -362 0 -120 -620 360 0 rlineto
            return
          </CharString>
          <CharString index="12">
            81 350 -59 -3 -39 -176 rlineto
            -161 -56 -90 58 0 166 0 170 99 179 129 0 77 0 13 -61 -3 -110 rrcurveto
            57 1 rlineto
            7 152 -36 72 -106 0 -162 0 -136 -199 0 -215 0 -189 113 -81 186 58 rrcurveto
            -26 -118 rlineto
            return
          </CharString>
          <CharString index="13">
            101 522 150 0 10 49 -366 0 -10 -49 155 0 -101 -522 -151 0 -10 -49 365 0 12 49 rlineto
            return
          </CharString>
          <CharString index="14">
            66 9 -197 308 301 308 -69 0 -302 -308 rlineto
            return
          </CharString>
          <CharString index="15">
            -121 -620 61 0 121 620 rlineto
            return
          </CharString>
          <CharString index="16">
            12 53 -317 0 110 567 -62 0 -120 -620 rlineto
            return
          </CharString>
          <CharString index="17">
            120 620 -57 0 -99 -518 -5 0 rlineto
            return
          </CharString>
          <CharString index="18">
            -147 519 -72 -2 -119 -619 57 0 rlineto
            return
          </CharString>
          <CharString index="19">
            101 531 5 0 rlineto
            return
          </CharString>
          <CharString index="20">
            -167 -120 -208 -205 -153 69 -78 103 167 121 208 205 153 -70 78 -103 hvcurveto
            return
          </CharString>
          <CharString index="21">
            -72 -48 60 122 176 90 179 125 72 48 -60 -121 -176 -89 -180 -126 hvcurveto
            return
          </CharString>
          <CharString index="22">
            67 10 -173 263 rlineto
            130 60 73 65 0 92 0 97 -95 68 -247 -31 rrcurveto
            return
          </CharString>
          <CharString index="23">
            -120 -619 61 0 110 570 rlineto
            155 17 74 -40 0 -74 0 -75 -65 -52 -151 -67 rrcurveto
            -1 -2 rlineto
            return
          </CharString>
          <CharString index="24">
            -15 109 -52 59 -100 0 -120 0 -88 -86 0 -92 0 -145 262 -64 0 -111 0 -68 -87 -54 -264 66 rrcurveto
            return
          </CharString>
          <CharString index="25">
            308 -67 118 92 0 100 0 138 -262 59 0 123 0 63 54 55 76 0 73 0 41 -38 13 -88 rrcurveto
            return
          </CharString>
          <CharString index="26">
            201 0 10 53 -463 0 -10 -53 201 0 -111 -567 62 0 rlineto
            return
          </CharString>
          <CharString index="27">
            79 405 -61 0 -80 -410 rlineto
            -29 -146 64 -79 126 0 115 0 79 73 27 140 rrcurveto
            82 422 -61 0 -82 -423 rlineto
            -21 -107 -51 -49 -81 0 -94 0 -35 58 23 116 rrcurveto
            return
          </CharString>
          <CharString index="28">
            70 hlineto
            39 117 68 236 64 267 rrcurveto
            -59 hlineto
            -38 -165 -76 -298 -25 -81 rrcurveto
            -4 0 -27 362 -41 0 -166 -362 -4 0 rlineto
            6 81 40 298 25 165 rrcurveto
            -60 hlineto
            -39 -267 -25 -236 -5 -117 rrcurveto
            70 0 161 346 rlineto
            return
          </CharString>
          <CharString index="29">
            291 416 -67 0 -241 -351 rlineto
            return
          </CharString>
          <CharString index="30">
            -108 352 -63 -2 128 -409 -41 -210 rlineto
            return
          </CharString>
          <CharString index="31">
            9 54 -337 -1 435 515 9 52 -396 0 -11 -54 328 1 -435 -515 -9 -52 rlineto
            return
          </CharString>
          <CharString index="32">
            305 0 10 49 -248 0 150 772 248 0 10 49 -306 0 rlineto
            return
          </CharString>
          <CharString index="33">
            -306 0 -10 -49 248 0 -149 -772 -248 0 -10 -49 305 0 rlineto
            return
          </CharString>
          <CharString index="34">
            -53 45 -74 80 -45 59 rrcurveto
            -45 -48 rlineto
            53 -55 89 -70 58 -37 rrcurveto
            return
          </CharString>
          <CharString index="35">
            -41 -30 33 77 149 88 138 110 hvcurveto
            26 0 35 -6 38 -10 -15 -74 -30 -153 -10 -53 rrcurveto
            -52 -54 -72 -47 -47 0 rrcurveto
            return
          </CharString>
          <CharString index="36">
            -7 32 rlineto
            -102 -43 -7 21 16 79 rrcurveto
            69 351 rlineto
            return
          </CharString>
          <CharString index="37">
            -50 13 -44 7 -40 0 rrcurveto
            -168 -122 -168 -183 -103 44 -50 61 hvcurveto
            56 0 75 49 58 58 rrcurveto
            -14 -102 36 -43 139 82 rrcurveto
            return
          </CharString>
          <CharString index="38">
            2 108 -39 48 -88 0 -153 0 -134 -154 0 -167 0 -165 139 -82 240 120 rrcurveto
            -10 33 rlineto
            -204 -77 -106 43 0 137 0 138 97 122 117 0 56 0 26 -26 2 -79 rrcurveto
            return
          </CharString>
          <CharString index="39">
            -43 -33 39 80 144 86 136 109 hvcurveto
            26 0 38 -6 39 -11 rrcurveto
            -56 -288 rlineto
            -49 -51 -69 -43 -48 0 rrcurveto
            return
          </CharString>
          <CharString index="40">
            -8 31 rlineto
            -102 -43 -7 21 16 82 rrcurveto
            114 577 -61 -5 -41 -211 rlineto
            return
          </CharString>
          <CharString index="41">
            -31 5 -28 3 -25 0 rrcurveto
            -166 -119 -164 -179 -107 47 -55 62 hvcurveto
            56 0 73 45 56 56 rrcurveto
            -12 -97 39 -40 137 81 rrcurveto
            return
          </CharString>
          <CharString index="42">
            -9 33 rlineto
            -220 -85 -107 39 0 138 rrcurveto
            5 vlineto
            231 17 133 70 0 113 rrcurveto
            69 -51 43 -83 -166 -122 -172 -153 vhcurveto
            0 -164 140 -84 254 131 rrcurveto
            return
          </CharString>
          <CharString index="43">
            55 34 -29 -42 hvcurveto
            0 -89 -120 -49 -183 -14 17 111 79 112 118 0 rrcurveto
            return
          </CharString>
          <CharString index="44">
            24 47 -24 67 0 135 0 16 1 20 1 21 49 102 44 126 0 29 0 12 -23 11 -17 0 -6 0 -8 -9 -9 -15 -36 15 -36 9 -36 0 rrcurveto
            -161 -119 -154 -165 -101 49 -54 70 hvcurveto
            70 0 65 52 48 67 0 -120 26 -78 -29 -28 -20 -20 -79 -23 -206 18 rrcurveto
            return
          </CharString>
          <CharString index="45">
            -6 -59 rlineto
            235 -15 104 36 29 58 rrcurveto
            return
          </CharString>
          <CharString index="46">
            -11 33 rlineto
            -77 -35 -15 8 0 31 rrcurveto
            return
          </CharString>
          <CharString index="47">
            -8 35 rlineto
            -206 -58 -33 22 24 92 rrcurveto
            92 352 -54 1 rlineto
            return
          </CharString>
          <CharString index="48">
            -205 -52 4 -33 183 30 -80 -307 rlineto
            -36 -136 84 -40 235 94 rrcurveto
            return
          </CharString>
          <CharString index="49">
            68 10 -191 195 rlineto
            154 76 61 75 0 65 0 47 -32 32 -57 0 -64 0 -84 -42 -81 -83 rrcurveto
            65 333 -60 -5 rlineto
            return
          </CharString>
          <CharString index="50">
            -135 -698 58 0 61 315 rlineto
            83 84 77 41 53 0 32 0 20 -17 0 -29 0 -45 -50 -65 -174 -84 rrcurveto
            return
          </CharString>
          <CharString index="51">
            -14 33 rlineto
            -157 -84 -85 4 -7 141 245 176 93 156 0 115 rrcurveto
            63 -33 36 -56 -135 -174 -267 -270 vhcurveto
            -3 vlineto
            -20 -14 -31 -21 -13 -8 rrcurveto
            18 -29 rlineto
            9 6 21 13 18 12 18 -156 119 -14 184 111 rrcurveto
            return
          </CharString>
          <CharString index="52">
            31 20 -22 -41 hvcurveto
            0 -88 -73 -133 -209 -158 9 226 130 216 92 0 rrcurveto
            return
          </CharString>
          <CharString index="53">
            0 60 69 176 0 99 0 50 -23 40 -60 0 -62 0 -75 -39 -74 -76 rrcurveto
            return
          </CharString>
          <CharString index="54">
            6 36 6 48 4 23 rrcurveto
            -57 -4 rlineto
            -23 -144 -21 -108 -45 -231 rrcurveto
            58 hlineto
            18 93 35 172 12 65 rrcurveto
            return
          </CharString>
          <CharString index="55">
            71 74 66 36 47 0 37 0 18 -21 0 -40 0 -85 -69 -170 0 -77 rrcurveto
            0 -61 52 -22 113 69 rrcurveto
            return
          </CharString>
          <CharString index="56">
            -128 68 -68 106 143 115 136 174 128 -70 69 -104 -144 -114 -139 -172 vhcurveto
            return
          </CharString>
          <CharString index="57">
            -137 -77 -113 -110 -80 -45 57 98 135 76 116 111 80 45 -59 -97 vhcurveto
            return
          </CharString>
          <CharString index="58">
            -7 33 rlineto
            -159 -56 -33 37 176 433 rrcurveto
            -28 19 rlineto
            -73 -32 -77 -19 -60 -5 5 17 3 15 0 13 rrcurveto
            23 -12 13 -19 -39 -43 -49 -35 vhcurveto
            0 -21 16 -13 26 -6 -28 -68 -44 -64 -62 -75 rrcurveto
            26 -23 rlineto
            61 67 58 87 33 71 50 -1 65 12 64 20 -176 -414 72 -69 205 90 rrcurveto
            return
          </CharString>
          <CharString index="59">
            0 83 -113 94 -26 85 rrcurveto
            return
          </CharString>
          <CharString index="60">
            76 89 -7 57 -46 0 -42 0 -47 -62 0 -54 0 -11 1 -11 3 -11 -37 -44 -52 -43 -91 -66 rrcurveto
            17 -28 rlineto
            77 49 58 45 44 41 rrcurveto
            return
          </CharString>
          <CharString index="61">
            39 -84 87 -73 0 -61 0 -50 -45 -38 -229 22 rrcurveto
            return
          </CharString>
          <CharString index="62">
            -2 -56 rlineto
            265 -18 70 70 0 75 rrcurveto
            return
          </CharString>
          <CharString index="63">
            -9 33 rlineto
            -216 -82 -35 43 27 118 rrcurveto
            62 273 195 0 9 47 -194 0 rlineto
            return
          </CharString>
          <CharString index="64">
            -70 -138 -66 0 -12 -47 93 0 -62 -276 rlineto
            -36 -156 77 -78 251 125 rrcurveto
            return
          </CharString>
          <CharString index="65">
            -9 32 rlineto
            -96 -43 -5 21 15 79 rrcurveto
            return
          </CharString>
          <CharString index="66">
            71 361 -57 0 -62 -317 rlineto
            -72 -81 -54 -41 -50 0 -47 0 -24 37 23 97 rrcurveto
            return
          </CharString>
          <CharString index="67">
            55 hlineto
            60 167 48 152 45 165 rrcurveto
            -63 hlineto
            return
          </CharString>
          <CharString index="68">
            -34 -143 -35 -127 -38 -134 rrcurveto
            -4 0 -44 285 -40 0 -152 -284 -3 0 rlineto
            14 131 14 128 20 144 rrcurveto
            -60 hlineto
            -24 -180 -14 -182 -4 -122 rrcurveto
            59 0 154 284 rlineto
            return
          </CharString>
          <CharString index="69">
            24 48 -12 82 0 124 0 15 0 14 1 14 47 96 38 138 0 31 0 14 -24 8 -17 0 -26 0 -58 -164 -11 -130 -59 -71 -72 -49 -49 0 rrcurveto
            return
          </CharString>
          <CharString index="70">
            -66 0 -34 70 121 337 rrcurveto
            -58 -2 rlineto
            -138 -371 56 -89 91 0 71 0 80 57 56 66 1 -128 11 -78 -26 -27 -21 -20 -72 -22 -200 18 rrcurveto
            return
          </CharString>
          <CharString index="71">
            -9 -61 rlineto
            229 -14 98 37 28 57 rrcurveto
            return
          </CharString>
          <CharString index="72">
            15 53 -329 -2 395 383 10 50 -380 0 -14 -52 316 1 -395 -382 -9 -51 rlineto
            return
          </CharString>
          <CharString index="73">
            26 48 rlineto
            -153 66 -67 43 0 49 rrcurveto
            return
          </CharString>
          <CharString index="74">
            0 69 119 37 0 72 0 34 -24 31 -69 18 rrcurveto
            return
          </CharString>
          <CharString index="75">
            93 22 38 47 0 40 0 49 -69 61 0 47 rrcurveto
            return
          </CharString>
          <CharString index="76">
            0 53 82 44 203 41 rrcurveto
            -11 53 rlineto
            -246 -59 -83 -71 0 -70 0 -61 68 -55 0 -43 rrcurveto
            return
          </CharString>
          <CharString index="77">
            0 -34 -38 -34 -134 -9 rrcurveto
            -8 -43 rlineto
            return
          </CharString>
          <CharString index="78">
            98 -10 43 -25 0 -36 0 -56 -122 -37 0 -87 rrcurveto
            0 -63 73 -51 181 -80 rrcurveto
            return
          </CharString>
          <CharString index="79">
            246 59 83 71 0 70 0 62 -69 55 0 42 rrcurveto
            return
          </CharString>
          <CharString index="80">
            0 34 38 35 135 8 rrcurveto
            8 43 rlineto
            return
          </CharString>
          <CharString index="81">
            -99 10 -42 25 0 36 0 56 121 38 0 86 0 63 -72 51 -181 80 rrcurveto
            -26 -47 rlineto
            153 -67 66 -43 0 -49 0 -69 -118 -37 0 -72 0 -33 24 -31 68 -19 rrcurveto
            return
          </CharString>
          <CharString index="82">
            -92 -21 -38 -48 0 -40 0 -49 69 -61 0 -47 rrcurveto
            return
          </CharString>
          <CharString index="83">
            39 131 -68 -2 -31 -131 rlineto
            return
          </CharString>
          <CharString index="84">
            39 131 -67 -1 -32 -131 rlineto
            return
          </CharString>
          <CharString index="85">
            50 32 -135 219 222 220 -39 38 -216 -222 -15 -63 rlineto
            return
          </CharString>
          <CharString index="86">
            -320 0 -10 -51 321 0 rlineto
            return
          </CharString>
          <CharString index="87">
            10 44 -214 0 rlineto
            156 97 89 68 0 85 0 81 -80 41 -161 -24 rrcurveto
            -7 -45 rlineto
            144 20 51 -30 0 -53 0 -73 -99 -66 -168 -105 rrcurveto
            1 -40 rlineto
            return
          </CharString>
          <CharString index="88">
            0 44 -41 41 -119 26 rrcurveto
            192 132 5 43 -254 0 -8 -43 200 0 -194 -132 -3 -23 rlineto
            131 -26 42 -33 0 -35 0 -37 -46 -39 -191 19 rrcurveto
            -6 -46 rlineto
            224 -21 68 69 0 61 rrcurveto
            return
          </CharString>
          <CharString index="89">
            14 -27 rlineto
            72 36 104 60 63 51 rrcurveto
            -44 50 rlineto
            -54 -55 -90 -73 -65 -42 rrcurveto
            return
          </CharString>
          <CharString index="90">
            11 43 -116 0 73 369 -50 -4 -12 -60 -129 -18 -6 -37 126 10 -51 -260 -126 0 -9 -43 rlineto
            return
          </CharString>
          <CharString index="91">
            216 222 14 63 -132 223 -51 -32 136 -218 -222 -221 rlineto
            return
          </CharString>
          <CharString index="92">
            218 219 16 63 -131 225 -50 -31 133 -221 -225 -217 rlineto
            return
          </CharString>
          <CharString index="93">
            432 0 9 41 -432 0 rlineto
            return
          </CharString>
          <CharString index="94">
            13 42 -55 0 28 140 -48 -4 -26 -136 -163 0 rlineto
            53 76 39 70 41 124 rrcurveto
            -52 2 rlineto
            -38 -120 -37 -72 -54 -88 rrcurveto
            -4 -34 206 0 -16 -85 46 0 17 85 rlineto
            return
          </CharString>
          <CharString index="95">
            10 44 -214 0 rlineto
            156 97 89 68 0 85 0 81 -80 41 -161 -24 rrcurveto
            -7 -45 rlineto
            144 20 51 -30 0 -53 rrcurveto
            return
          </CharString>
          <CharString index="96">
            0 44 -41 41 -119 26 rrcurveto
            192 132 5 43 -254 0 -8 -43 200 0 -194 -132 rlineto
            -3 -23 rlineto
            131 -26 42 -33 0 -35 0 -37 -46 -39 -191 19 rrcurveto
            -6 -46 rlineto
            224 -21 68 69 0 61 rrcurveto
            return
          </CharString>
          <CharString index="97">
            41 33 -133 151 -2 0 -200 -147 28 -33 162 118 rlineto
            return
          </CharString>
          <CharString index="98">
            -48 0 -16 110 -68 0 -48 0 -47 -45 -50 -86 rrcurveto
            32 -19 rlineto
            37 61 33 42 30 0 48 0 16 -110 68 0 49 0 46 50 50 86 rrcurveto
            -32 19 rlineto
            -37 -61 -33 -47 -30 0 rrcurveto
            return
          </CharString>
          <CharString index="99">
            -80 -57 -49 -61 -56 51 -43 73 79 58 49 62 hvcurveto
            56 -52 42 -72 vhcurveto
            return
          </CharString>
          <CharString index="100">
            48 35 -29 -35 -37 -37 -30 -50 -48 -34 28 36 37 37 30 49 hvcurveto
            return
          </CharString>
          <CharString index="101">
            9 0 -64 -328 -117 0 rlineto
            57 108 57 110 58 110 rrcurveto
            return
          </CharString>
          <CharString index="102">
            229 0 14 52 -175 0 46 239 147 0 8 46 -146 0 45 231 173 0 10 52 -275 0 rlineto
            -114 -207 -112 -209 -110 -204 rrcurveto
            64 hlineto
            34 64 33 64 34 65 rrcurveto
            133 hlineto
            return
          </CharString>
          <CharString index="103">
            33 69 32 40 37 0 38 0 26 -40 -7 -98 rrcurveto
            return
          </CharString>
          <CharString index="104">
            0 195 -127 79 -221 -37 rrcurveto
            -54 -281 -76 0 -9 -46 76 0 rlineto
            return
          </CharString>
          <CharString index="105">
            -57 -292 rlineto
            317 -42 151 195 0 229 rrcurveto
            return
          </CharString>
          <CharString index="106">
            12 46 -146 0 46 234 rlineto
            152 18 83 -62 0 -153 0 -187 -109 -159 -228 20 rrcurveto
            47 243 rlineto
            return
          </CharString>
          <CharString index="107">
            173 87 176 124 vhcurveto
            39 0 32 -17 21 -35 rrcurveto
            -292 -390 rlineto
            -7 26 -4 31 0 36 rrcurveto
            return
          </CharString>
          <CharString index="108">
            -41 0 -33 18 -21 36 rrcurveto
            294 390 rlineto
            7 -26 4 -31 0 -37 0 -174 -87 -176 -123 0 rrcurveto
            return
          </CharString>
          <CharString index="109">
            0 60 -10 49 -18 37 rrcurveto
            67 87 rlineto
            return
          </CharString>
          <CharString index="110">
            -36 26 -56 -73 rlineto
            -30 35 -42 18 -49 0 -164 0 -119 -204 0 -203 0 -59 10 -49 17 -37 rrcurveto
            -66 -88 rlineto
            return
          </CharString>
          <CharString index="111">
            37 -26 55 73 rlineto
            30 -35 42 -18 49 0 rrcurveto
            return
          </CharString>
          <CharString index="112">
            -48 0 -16 110 -68 0 rrcurveto
            return
          </CharString>
          <CharString index="113">
            -48 0 -47 -45 -50 -86 rrcurveto
            32 -19 rlineto
            37 61 33 42 30 0 rrcurveto
            return
          </CharString>
          <CharString index="114">
            48 0 16 -110 68 0 49 0 46 50 50 86 rrcurveto
            -32 19 rlineto
            -37 -61 -33 -47 -30 0 rrcurveto
            return
          </CharString>
          <CharString index="115">
            -6 33 rlineto
            -146 -77 -49 30 0 107 0 12 1 12 1 13 rrcurveto
            return
          </CharString>
          <CharString index="116">
            156 20 85 94 0 102 0 57 -31 36 -54 0 -34 0 -32 -15 -28 -26 rrcurveto
            return
          </CharString>
          <CharString index="117">
            29 15 -20 -33 hvcurveto
            0 -74 -68 -77 -112 -17 rrcurveto
            18 109 54 112 64 0 rrcurveto
            return
          </CharString>
          <CharString index="118">
            144 64 167 86 vhcurveto
            22 0 29 -9 30 -24 -49 -69 -31 -101 -1 -98 -39 -51 -41 -43 -33 0 rrcurveto
            return
          </CharString>
          <CharString index="119">
            136 77 116 111 vhcurveto
            38 0 30 -13 22 -25 rrcurveto
            -263 -297 rlineto
            -10 22 -5 28 0 33 rrcurveto
            return
          </CharString>
          <CharString index="120">
            -37 0 -30 12 -21 23 rrcurveto
            262 296 rlineto
            9 -22 4 -27 0 -31 0 -137 -77 -114 -110 0 rrcurveto
            return
          </CharString>
          <CharString index="121">
            0 48 -10 40 -18 31 rrcurveto
            62 69 rlineto
            return
          </CharString>
          <CharString index="122">
            -36 27 -54 -60 rlineto
            -30 28 -40 14 -48 0 -144 0 -114 -139 0 -172 0 -50 10 -40 19 -31 rrcurveto
            -62 -69 rlineto
            return
          </CharString>
          <CharString index="123">
            36 -27 55 61 rlineto
            29 -27 40 -13 47 0 rrcurveto
            return
          </CharString>
          <CharString index="124">
            70 308 -60 -4 -70 -121 39 -23 -38 -166 rlineto
            -29 -126 37 -58 72 0 60 0 62 42 70 81 -24 -116 35 -44 143 82 rrcurveto
            return
          </CharString>
          <CharString index="125">
            -9 32 rlineto
            -96 -43 -5 21 15 79 rrcurveto
            71 361 -57 0 -62 -317 rlineto
            return
          </CharString>
          <CharString index="126">
            -58 -74 -45 -42 -54 0 -51 0 -32 33 -35 87 rrcurveto
            -47 -24 rlineto
            38 -99 50 -46 65 0 69 0 68 52 67 90 rrcurveto
            return
          </CharString>
          <CharString index="127">
            40 131 -69 -1 -31 -131 rlineto
            return
          </CharString>
          <CharString index="128">
            199 147 -28 33 -162 -118 -104 122 -42 -34 134 -150 rlineto
            return
          </CharString>
          <CharString index="129">
            6 -74 -1 -67 -61 -93 rrcurveto
            26 -13 rlineto
            78 89 23 83 2 79 rrcurveto
            return
          </CharString>
          <CharString index="130">
            -48 -37 36 75 127 83 130 113 hvcurveto
            31 0 37 -10 41 -20 -23 -58 -23 -80 -10 -71 -49 -83 -60 -46 -55 0 rrcurveto
            return
          </CharString>
          <CharString index="131">
            24 -12 rlineto
            68 67 29 71 -1 64 rrcurveto
            -79 -3 rlineto
            12 -57 -2 -58 -51 -72 rrcurveto
            return
          </CharString>
          <CharString index="132">
            -24 12 rlineto
            -68 -66 -29 -72 0 -64 rrcurveto
            80 3 rlineto
            -12 57 2 58 51 72 rrcurveto
            return
          </CharString>
          <CharString index="133">
            59 52 72 75 42 53 rrcurveto
            -60 33 rlineto
            -33 -55 -58 -83 -48 -54 rrcurveto
            return
          </CharString>
          <CharString index="134">
            59 51 71 75 42 54 rrcurveto
            -62 30 rlineto
            -33 -57 -55 -78 -49 -54 rrcurveto
            return
          </CharString>
          <CharString index="135">
            33 69 32 40 37 0 rrcurveto
            38 0 26 -40 -7 -98 rrcurveto
            return
          </CharString>
          <CharString index="136">
            -80 -57 -49 -61 -56 51 -43 73 79 58 49 62 56 -52 42 -72 hvcurveto
            return
          </CharString>
          <CharString index="137">
            199 147 -28 33 -162 -118 rlineto
            return
          </CharString>
          <CharString index="138">
            -104 122 -42 -34 134 -150 rlineto
            return
          </CharString>
          <CharString index="139">
            21 101 -84 0 -22 -101 rlineto
            return
          </CharString>
          <CharString index="140">
            44 41 -185 215 281 215 -34 45 -284 -223 -16 -63 rlineto
            return
          </CharString>
          <CharString index="141">
            283 223 17 63 -195 230 -44 -41 185 -216 -281 -214 rlineto
            return
          </CharString>
          <CharString index="142">
            -99 50 -56 76 109 85 122 136 100 -49 55 -76 -110 -85 -122 -136 vhcurveto
            return
          </CharString>
          <CharString index="143">
            -106 -56 -104 -81 -52 -32 40 77 106 55 104 81 53 32 -40 -77 vhcurveto
            return
          </CharString>
          <CharString index="144">
            0 48 -46 46 -143 25 rrcurveto
            28 110 185 0 13 43 -233 0 -46 -185 rlineto
            147 -21 46 -35 0 -37 0 -43 -54 -44 -184 16 rrcurveto
            -6 -46 rlineto
            216 -17 77 72 0 68 rrcurveto
            return
          </CharString>
          <CharString index="145">
            85 66 56 83 hvcurveto
            0 105 -128 42 -105 -83 20 64 60 69 148 37 rrcurveto
            -12 42 rlineto
            -203 -56 -69 -116 0 -103 rrcurveto
            -95 62 -45 76 vhcurveto
            return
          </CharString>
          <CharString index="146">
            -52 -46 30 78 hvcurveto
            0 7 0 7 1 8 94 75 100 -34 0 -79 rrcurveto
            -52 -37 -40 -60 vhcurveto
            return
          </CharString>
          <CharString index="147">
            69 120 83 123 97 115 rrcurveto
            9 40 -283 0 -9 -43 230 0 0 -3 rlineto
            -98 -111 -83 -119 -68 -117 rrcurveto
            return
          </CharString>
          <CharString index="148">
            0 43 -44 39 -43 36 37 20 46 23 57 27 rrcurveto
            -16 28 rlineto
            -61 -29 -50 -25 -40 -22 -32 28 -27 26 0 25 0 34 42 29 126 -28 rrcurveto
            16 48 rlineto
            -152 25 -79 -54 0 -59 0 -35 30 -32 35 -30 rrcurveto
            -101 -60 -22 -35 0 -38 rrcurveto
            -52 52 -36 77 86 63 47 57 vhcurveto
            return
          </CharString>
          <CharString index="149">
            -51 -38 22 37 hvcurveto
            0 23 15 25 86 50 41 -34 40 -32 0 -32 rrcurveto
            -33 -38 -26 -55 vhcurveto
            return
          </CharString>
          <CharString index="150">
            203 57 70 115 0 104 rrcurveto
            94 -62 46 -77 -84 -66 -56 -83 vhcurveto
            0 -105 128 -42 105 83 -20 -64 -60 -69 -148 -37 rrcurveto
            return
          </CharString>
          <CharString index="151">
            52 37 39 61 51 47 -29 -78 vhcurveto
            0 -7 0 -7 -1 -8 -94 -75 -101 34 0 79 rrcurveto
            return
          </CharString>
          <CharString index="152">
            0 43 -44 39 -43 36 37 20 46 23 57 27 rrcurveto
            -16 28 rlineto
            -61 -29 -50 -25 -40 -22 -32 28 -27 26 0 25 0 34 42 29 126 -28 rrcurveto
            16 48 rlineto
            -152 25 -79 -54 0 -59 rrcurveto
            return
          </CharString>
          <CharString index="153">
            0 -35 30 -32 35 -30 rrcurveto
            return
          </CharString>
          <CharString index="154">
            -101 -60 -22 -35 0 -38 rrcurveto
            -52 52 -36 77 86 63 47 57 vhcurveto
            return
          </CharString>
          <CharString index="155">
            9 7 6 9 9 7 -6 -9 -9 -7 -7 -9 vhcurveto
            -9 -7 6 10 hvcurveto
            return
          </CharString>
          <CharString index="156">
            8 -2 3 -4 -4 -2 -3 -8 -9 2 -3 4 vhcurveto
            4 2 3 9 hvcurveto
            return
          </CharString>
          <CharString index="157">
            -6 2 -3 5 vhcurveto
            4 0 2 2 1 4 rrcurveto
            5 hlineto
            return
          </CharString>
          <CharString index="158">
            -101 -60 -22 -35 0 -38 rrcurveto
            -52 52 -36 77 vhcurveto
            86 63 47 57 hvcurveto
            return
          </CharString>
          <CharString index="159">
            -23.83398 -48 -29.33301 -37 -37.58301 0 -55.91699 0 -29.33301 100 -91.66699 0 -91.66699 0 -25.66602 -100 -55.91699 0 -55.91699 0 -29.33301 100 -91.66699 0 -81.58301 0 -39.41699 -70 -27.5 -58 rrcurveto
            55 -30 rlineto
            23.83398 48 27.5 37 39.41602 0 58.66699 0 32.08301 -100 86.16699 0 86.16699 0 29.33301 100 57.75 0 58.66699 0 32.08301 -100 86.16699 0 80.66602 0 40.33398 69 27.5 57 rrcurveto
            return
          </CharString>
          <CharString index="160">
            77 0 -5.5 -202 174.16602 68 23.83398 -79 -177.83398 -58 112.75 -160 -61.41602 -49 -104.5 168 -104.5 -168 -61.41699 49 112.75 160 -177.83301 58 23.83301 79 174.16699 -68 rlineto
            return
          </CharString>
          <CharString index="161">
            77 0 -5.5 -202 174.16699 68 23.83301 -79 -177.83301 -58 112.75 -160 -61.41699 -49 -104.5 168 -104.5 -168 -61.41602 49 112.75 160 -177.83398 58 23.83398 79 174.16602 -68 rlineto
            return
          </CharString>
          <CharString index="162">
            0 -89 323.58398 -217 -323.58398 -218 0 -90 389.58398 265 0 86 rlineto
            return
          </CharString>
          <CharString index="163">
            390.5 880 -61.41602 32 -391.41699 -882 rlineto
            return
          </CharString>
          <CharString index="164">
            77 0 -5.5 -202 174.16699 68 23.83301 -79 -177.83301 -58 112.75 -160 -61.41699 -49 -104.5 168 -104.5 -168 -61.41699 49 112.75 160 -177.83301 58 23.83301 79 174.16699 -68 rlineto
            return
          </CharString>
          <CharString index="165">
            -68.75 -909 68.75 hlineto
            return
          </CharString>
          <CharString index="166">
            0 622 462.91699 -310 rlineto
            return
          </CharString>
          <CharString index="167">
            -132.91699 0 26.58398 222 134.75 0 rlineto
            return
          </CharString>
          <CharString index="168">
            -45 31.16699 -37 42.16699 43.08301 31.16699 37 45 44 -31.16699 36 -43.08301 -42.16699 -31.16699 -36 -44 vhcurveto
            return
          </CharString>
          <CharString index="169">
            -46 31.16699 -35 42.16699 43.08301 31.16699 35 46 44 -31.16699 37 -43.08301 -42.16699 -31.16699 -37 -44 vhcurveto
            return
          </CharString>
          <CharString index="170">
            -506.91602 -72 506.91602 hlineto
            return
          </CharString>
          <CharString index="171">
            -45 31.16699 -37 42.16602 43.08398 31.16602 37 45 44 -31.16602 36 -43.08398 -42.16602 -31.16699 -36 -44 vhcurveto
            return
          </CharString>
          <CharString index="172">
            -46 31.16699 -35 42.16602 43.08398 31.16602 35 46 44 -31.16602 37 -43.08398 -42.16602 -31.16699 -37 -44 vhcurveto
            return
          </CharString>
          <CharString index="173">
            -66.91699 29 -19.25 30 0 47 0 57 36.66699 39 49.5 9 rrcurveto
            return
          </CharString>
          <CharString index="174">
            0 -101 -55 -38 -60.5 -14 rrcurveto
            290 vlineto
            68.75 -32 46.75 -52 0 -53 rrcurveto
            return
          </CharString>
          <CharString index="175">
            -905.66602 -72 905.66602 hlineto
            return
          </CharString>
          <CharString index="176">
            -86.16699 0 rlineto
            return
          </CharString>
          <CharString index="177">
            9.16699 -462 68.75 0 rlineto
            return
          </CharString>
          <CharString index="178">
            -34.83301 -26.58301 -30 -37 -38 26.58301 -29 34.83301 35.75 25.66699 29 38 37 -25.66699 30 -35.75 hvcurveto
            return
          </CharString>
          <CharString index="179">
            -30.25 -65 363 -204 -363 -204 30.25 -65 405.16602 226 0 85 rlineto
            return
          </CharString>
          <CharString index="180">
            -30.25 -65 363 -204 -363 -204 30.25 -65 405.16699 226 0 85 rlineto
            return
          </CharString>
          <CharString index="181">
            348.33398 72 -348.33398 hlineto
            return
          </CharString>
          <CharString index="182">
            -389.58301 -262 0 -87 389.58301 -265 0 89 -323.58301 219 323.58301 217 rlineto
            return
          </CharString>
          <CharString index="183">
            -462.91699 312 462.91699 310 rlineto
            return
          </CharString>
          <CharString index="184">
            44 -31.16699 36 -42.16602 -43.08398 -31.16602 -36 -44 -45 31.16602 -37 43.08398 42.16602 31.16699 37 45 vhcurveto
            return
          </CharString>
          <CharString index="185">
            44 -31.16699 37 -42.16602 -43.08398 -31.16602 -37 -44 -46 31.16602 -35 43.08398 42.16602 31.16699 35 46 vhcurveto
            return
          </CharString>
          <CharString index="186">
            -405.16699 -227 0 -85 405.16699 -226 30.25 65 -363 204 363 204 rlineto
            return
          </CharString>
          <CharString index="187">
            -405.16602 -227 0 -85 405.16602 -226 30.25 65 -363 204 363 204 rlineto
            return
          </CharString>
          <CharString index="188">
            -71.5 -249 -223.66699 -70 223.66699 -249 71.5 249 225.5 70 -225.5 hlineto
            return
          </CharString>
          <CharString index="189">
            -423.5 -65 423.5 hlineto
            return
          </CharString>
          <CharString index="190">
            81.58301 66 -73.33301 hlineto
            21.08301 167 -65.08301 0 -21.08301 -167 -133.83398 0 21.08398 167 -65.08398 0 -21.08301 -167 -81.58301 0 0 -66 74.25 0 -28.41699 -222 -79.75 0 0 -64 72.41699 0 -20.16699 -170 rlineto
            65.08301 0 21.08398 170 132.91602 0 -20.16602 -170 65.08301 0 19.25 170 83.41699 0 0 64 -74.25 0 rlineto
            return
          </CharString>
          <CharString index="191">
            26.58301 222 134.75 0 -28.41602 -222 rlineto
            return
          </CharString>
          <CharString index="192">
            -285.08301 0 26.58301 222 286.91699 0 rlineto
            return
          </CharString>
          <CharString index="193">
            26.58398 222 134.75 0 -28.41699 -222 rlineto
            return
          </CharString>
          <CharString index="194">
            -85.25 -49.5 -74 -86 -85 49.5 -77 85.25 86.16699 48.58301 77 85 86 -48.58301 74 -86.16699 hvcurveto
            return
          </CharString>
          <CharString index="195">
            -50 34.83301 -38 45.83301 46.75 33.91699 38 50 49 -33.91699 39 -46.75 -45.83301 -34.83301 -39 -49 vhcurveto
            return
          </CharString>
          <CharString index="196">
            -34.83301 -25.66699 -30 -37 -38 25.66699 -29 34.83301 35.75 26.58398 29 38 37 -26.58398 30 -35.75 hvcurveto
            return
          </CharString>
          <CharString index="197">
            -34.83398 -26.58301 -30 -37 -38 26.58301 -29 34.83398 35.75 25.66602 29 38 37 -25.66602 30 -35.75 hvcurveto
            return
          </CharString>
          <CharString index="198">
            -73.33398 0 -65.08301 -31 -53.16699 -68 rrcurveto
            54.08398 -45 rlineto
            38.5 51 48.58301 23 43.08301 0 61.41699 0 46.75 -33 0 -57 0 -113 -162.25 1 0 -162 rrcurveto
            -39 77 34 vlineto
            0 147 165.91699 -23 0 160 rrcurveto
            79 -68.75 76 -112.75 vhcurveto
            return
          </CharString>
          <CharString index="199">
            -34.83301 -26.58398 -30 -37 -38 26.58398 -29 34.83301 35.75 25.66699 29 38 37 -25.66699 30 -35.75 hvcurveto
            return
          </CharString>
          <CharString index="200">
            390.5 880 -61.41699 32 -391.41602 -882 rlineto
            return
          </CharString>
          <CharString index="201">
            -483.08301 0 -33 -72 516.08301 0 rlineto
            return
          </CharString>
          <CharString index="202">
            -567.41699 0 -33 -72 600.41699 0 rlineto
            return
          </CharString>
          <CharString index="203">
            -69.66699 -801 69.66699 hlineto
            return
          </CharString>
          <CharString index="204">
            -599.5 -72 599.5 hlineto
            return
          </CharString>
          <CharString index="205">
            -506.91699 -72 506.91699 hlineto
            return
          </CharString>
          <CharString index="206">
            -1455.66602 -72 1455.66602 hlineto
            return
          </CharString>
          <CharString index="207">
            -590.33301 -72 590.33301 hlineto
            return
          </CharString>
          <CharString index="208">
            -57.75 -54 209.91699 -251 -209.91699 -251 57.75 -54 248.41699 305 rlineto
            return
          </CharString>
          <CharString index="209">
            -248.41699 -305 248.41699 -305 57.75 54 -209.91699 251 209.91699 251 rlineto
            return
          </CharString>
          <CharString index="210">
            395.08301 72 -395.08301 hlineto
            return
          </CharString>
          <CharString index="211">
            -57.75 54 -248.41699 -305 248.41699 -305 57.75 54 -209.91699 251 rlineto
            return
          </CharString>
          <CharString index="212">
            -352 -237 0 -87 348.33398 -237 41.25 61 -323.58398 219 323.58398 217 rlineto
            return
          </CharString>
          <CharString index="213">
            -389.58398 -262 0 -87 389.58398 -265 0 89 -323.58398 219 323.58398 217 rlineto
            return
          </CharString>
          <CharString index="214">
            0 -89 323.58301 -217 -323.58301 -218 0 -90 389.58301 265 0 86 rlineto
            return
          </CharString>
          <CharString index="215">
            -801 69.66699 801 vlineto
            return
          </CharString>
          <CharString index="216">
            -50 34.83398 -38 45.83301 46.75 33.91699 38 50 49 -33.91699 39 -46.75 -45.83301 -34.83398 -39 -49 vhcurveto
            return
          </CharString>
        <CharString name=".notdef">
          -200 50 900 50 hstem
          0.5 54 432 54 vstem
          8 -200 rmoveto
          540 0 -15 1000 -540 0 rlineto
          77 -50 rmoveto
          387 0 -188 -390 rlineto
          212 316 rmoveto
          11 -752 -191 376 rlineto
          -241 -376 rmoveto
          -11 752 191 -376 rlineto
          31 -60 rmoveto
          200 -390 -387 0 rlineto
          endchar
        </CharString>
        <CharString name="A">
          19 -21 23 -21 23 -21 200 47 319 55 hstemhm
          2 463 hintmask 10011100
          405 -2 rmoveto
          hintmask 00111100
          -103 callsubr
          hintmask 01011100
          -102 callsubr
          hintmask 00111100
          -64 570 rmoveto
          -101 callsubr
          endchar
        </CharString>
        <CharString name="AE">
          0 52 141 47 51 46 231 52 hstem
          -14 611 vstem
          348 568 rmoveto
          -6 callsubr
          -102 -568 rmoveto
          -5 callsubr
          endchar
        </CharString>
        <CharString name="AEacute">
          0 52 141 47 51 46 231 52 hstem
          -14 630 vstem
          363 720 rmoveto
          -18 callsubr
          -15 -152 rmoveto
          -6 callsubr
          -102 -568 rmoveto
          -5 callsubr
          endchar
        </CharString>
        <CharString name="Aacute">
          19 -21 23 -21 23 -21 200 47 319 55 hstemhm
          2 509 hintmask 00111100
          258 722 rmoveto
          -18 callsubr
          hintmask 10011100
          147 -724 rmoveto
          hintmask 00111100
          -103 callsubr
          hintmask 01011100
          -102 callsubr
          hintmask 00111100
          -64 570 rmoveto
          -101 callsubr
          endchar
        </CharString>
        <CharString name="Abreve">
          19 -21 23 -21 23 -21 200 47 319 55 80 49 hstemhm
          2 574 hintmask 00111110
          541 868 rmoveto
          19 callsubr
          hintmask 10011110
          -171 -847 rmoveto
          hintmask 00111110
          -103 callsubr
          hintmask 01011110
          -102 callsubr
          hintmask 00111110
          -64 570 rmoveto
          -101 callsubr
          endchar
        </CharString>
        <CharString name="Acircumflex">
          19 -21 23 -21 23 -21 200 47 319 55 hstemhm
          2 541 hintmask 00111100
          502 696 rmoveto
          -10 callsubr
          hintmask 10011100
          7 -820 rmoveto
          hintmask 00111100
          -103 callsubr
          hintmask 01011100
          -102 callsubr
          hintmask 00111100
          -64 570 rmoveto
          -101 callsubr
          endchar
        </CharString>
        <CharString name="Adieresis">
          19 -21 23 -21 23 -21 200 47 319 55 82.5 131 -128.5 131 hstemhm
          2 536 hintmask 00111011
          499 709 rmoveto
          -24 callsubr
          hintmask 10011101
          -152 -1 rmoveto
          -23 callsubr
          178 -707 rmoveto
          hintmask 00111101
          -103 callsubr
          hintmask 01011101
          -102 callsubr
          hintmask 00111101
          -64 570 rmoveto
          -101 callsubr
          endchar
        </CharString>
        <CharString name="Agrave">
          19 -21 23 -21 23 -21 200 47 319 55 hstemhm
          2 472 hintmask 00111100
          474 714 rmoveto
          -73 callsubr
          hintmask 10011100
          -52 -690 rmoveto
          hintmask 00111100
          -103 callsubr
          hintmask 01011100
          -102 callsubr
          hintmask 00111100
          -64 570 rmoveto
          -101 callsubr
          endchar
        </CharString>
        <CharString name="Amacron">
          19 -21 23 -21 23 -21 200 47 319 55 126 51 hstemhm
          2 547 hintmask 00111110
          549 800 rmoveto
          -21 callsubr
          hintmask 10011110
          -135 -751 rmoveto
          hintmask 00111110
          -103 callsubr
          hintmask 01011110
          -102 callsubr
          hintmask 00111110
          -64 570 rmoveto
          -101 callsubr
          endchar
        </CharString>
        <CharString name="Aogonek">
          -207 45 183 -21 23 -21 200 47 319 55 hstemhm
          221 57 hintmask 10111100
          436 -166 rmoveto
          -9 29 rlineto
          -107 -43 -42 18 0 34 0 37 53 45 134 48 -19 208 -23 206 -25 207 rrcurveto
          -87 hlineto
          hintmask 11011100
          -107 -207 -104 -209 -98 -207 rrcurveto
          62 hlineto
          32 67 32 67 33 68 rrcurveto
          225 hlineto
          6 -64 6 -63 6 -62 -129 -55 -54 -55 0 -47 rrcurveto
          0 -58 75 -38 140 74 rrcurveto
          -95 734 rmoveto
          -101 callsubr
          endchar
        </CharString>
        <CharString name="Aring">
          19 -21 23 -21 23 -21 200 47 319 55 59 39 131 39 hstemhm
          255 46 169 46 hintmask 0011111110000000
          392 891 rmoveto
          -8 callsubr
          -5 -39 rmoveto
          -7 callsubr
          hintmask 1001111110000000
          18 -854 rmoveto
          hintmask 0011111110000000
          -103 callsubr
          hintmask 0101111110000000
          -102 callsubr
          hintmask 0011111110000000
          -64 570 rmoveto
          -101 callsubr
          endchar
        </CharString>
        <CharString name="Aringacute">
          19 -21 23 -21 23 -21 200 47 319 55 59 39 131 39 hstemhm
          255 46 169 46 hintmask 0011111110000000
          322 955 rmoveto
          -18 callsubr
          70 -64 rmoveto
          29 callsubr
          -5 -39 rmoveto
          -7 callsubr
          hintmask 1001111110000000
          18 -854 rmoveto
          hintmask 0011111110000000
          -103 callsubr
          hintmask 0101111110000000
          -102 callsubr
          hintmask 0011111110000000
          -64 570 rmoveto
          -101 callsubr
          endchar
        </CharString>
        <CharString name="Atilde">
          19 -21 23 -21 23 -21 200 47 319 55 82 47 63 47 hstemhm
          2 588 hintmask 00111111
          458 752 rmoveto
          -9 callsubr
          hintmask 10011111
          -53 -754 rmoveto
          hintmask 00111111
          -103 callsubr
          hintmask 01011111
          -102 callsubr
          hintmask 00111111
          -64 570 rmoveto
          -101 callsubr
          endchar
        </CharString>
        <CharString name="B">
          -7 53 -25 -21 291 39 248 49 hstemhm
          424 60 -28 58 hintmask 10111000
          484 185 rmoveto
          0 68 -58 52 -86 15 rrcurveto
          hintmask 01110100
          108 28 66 66 0 80 0 92 -100 66 -237 -34 rrcurveto
          -120 -618 rlineto
          314 -36 113 113 0 108 rrcurveto
          hintmask 10110100
          -28 295 rmoveto
          0 -75 -81 -67 -193 -8 rrcurveto
          47 244 rlineto
          154 17 73 -44 0 -67 rrcurveto
          hintmask 10111000
          -32 -301 rmoveto
          0 -81 -89 -68 -207 20 rrcurveto
          46 241 rlineto
          177 11 73 -50 0 -73 rrcurveto
          endchar
        </CharString>
        <CharString name="C">
          -13 55 537 54 hstem
          70 61 323 58 vstem
          378 633 rmoveto
          -100 callsubr
          endchar
        </CharString>
        <CharString name="CR.1.0">
          endchar
        </CharString>
        <CharString name="CR.10.0">
          endchar
        </CharString>
        <CharString name="CR.100.0">
          endchar
        </CharString>
        <CharString name="CR.100.1">
          endchar
        </CharString>
        <CharString name="CR.101.0">
          endchar
        </CharString>
        <CharString name="CR.101.1">
          endchar
        </CharString>
        <CharString name="CR.102.0">
          endchar
        </CharString>
        <CharString name="CR.102.1">
          endchar
        </CharString>
        <CharString name="CR.103.0">
          endchar
        </CharString>
        <CharString name="CR.103.1">
          endchar
        </CharString>
        <CharString name="CR.104.0">
          endchar
        </CharString>
        <CharString name="CR.104.1">
          endchar
        </CharString>
        <CharString name="CR.105.0">
          endchar
        </CharString>
        <CharString name="CR.105.1">
          endchar
        </CharString>
        <CharString name="CR.106.0">
          endchar
        </CharString>
        <CharString name="CR.106.1">
          endchar
        </CharString>
        <CharString name="CR.107.0">
          endchar
        </CharString>
        <CharString name="CR.107.1">
          endchar
        </CharString>
        <CharString name="CR.108.0">
          endchar
        </CharString>
        <CharString name="CR.108.1">
          endchar
        </CharString>
        <CharString name="CR.109.0">
          endchar
        </CharString>
        <CharString name="CR.109.1">
          endchar
        </CharString>
        <CharString name="CR.11.0">
          endchar
        </CharString>
        <CharString name="CR.110.0">
          endchar
        </CharString>
        <CharString name="CR.110.1">
          endchar
        </CharString>
        <CharString name="CR.111.0">
          endchar
        </CharString>
        <CharString name="CR.111.1">
          endchar
        </CharString>
        <CharString name="CR.112.0">
          endchar
        </CharString>
        <CharString name="CR.112.1">
          endchar
        </CharString>
        <CharString name="CR.113.0">
          endchar
        </CharString>
        <CharString name="CR.113.1">
          endchar
        </CharString>
        <CharString name="CR.114.0">
          endchar
        </CharString>
        <CharString name="CR.114.1">
          endchar
        </CharString>
        <CharString name="CR.115.0">
          endchar
        </CharString>
        <CharString name="CR.115.1">
          endchar
        </CharString>
        <CharString name="CR.116.0">
          endchar
        </CharString>
        <CharString name="CR.116.1">
          endchar
        </CharString>
        <CharString name="CR.117.0">
          endchar
        </CharString>
        <CharString name="CR.117.1">
          endchar
        </CharString>
        <CharString name="CR.118.0">
          endchar
        </CharString>
        <CharString name="CR.118.1">
          endchar
        </CharString>
        <CharString name="CR.119.0">
          endchar
        </CharString>
        <CharString name="CR.119.1">
          endchar
        </CharString>
        <CharString name="CR.12.0">
          endchar
        </CharString>
        <CharString name="CR.120.0">
          endchar
        </CharString>
        <CharString name="CR.120.1">
          endchar
        </CharString>
        <CharString name="CR.121.0">
          endchar
        </CharString>
        <CharString name="CR.121.1">
          endchar
        </CharString>
        <CharString name="CR.122.0">
          endchar
        </CharString>
        <CharString name="CR.122.1">
          endchar
        </CharString>
        <CharString name="CR.123.0">
          endchar
        </CharString>
        <CharString name="CR.123.1">
          endchar
        </CharString>
        <CharString name="CR.124.0">
          endchar
        </CharString>
        <CharString name="CR.124.1">
          endchar
        </CharString>
        <CharString name="CR.125.0">
          endchar
        </CharString>
        <CharString name="CR.125.1">
          endchar
        </CharString>
        <CharString name="CR.126.0">
          endchar
        </CharString>
        <CharString name="CR.126.1">
          endchar
        </CharString>
        <CharString name="CR.126.2">
          endchar
        </CharString>
        <CharString name="CR.127.0">
          endchar
        </CharString>
        <CharString name="CR.127.1">
          endchar
        </CharString>
        <CharString name="CR.127.2">
          endchar
        </CharString>
        <CharString name="CR.128.0">
          endchar
        </CharString>
        <CharString name="CR.128.1">
          endchar
        </CharString>
        <CharString name="CR.128.2">
          endchar
        </CharString>
        <CharString name="CR.129.0">
          endchar
        </CharString>
        <CharString name="CR.129.1">
          endchar
        </CharString>
        <CharString name="CR.129.2">
          endchar
        </CharString>
        <CharString name="CR.13.0">
          endchar
        </CharString>
        <CharString name="CR.130.0">
          endchar
        </CharString>
        <CharString name="CR.130.1">
          endchar
        </CharString>
        <CharString name="CR.130.2">
          endchar
        </CharString>
        <CharString name="CR.14.0">
          endchar
        </CharString>
        <CharString name="CR.15.0">
          endchar
        </CharString>
        <CharString name="CR.16.0">
          endchar
        </CharString>
        <CharString name="CR.17.0">
          endchar
        </CharString>
        <CharString name="CR.18.0">
          endchar
        </CharString>
        <CharString name="CR.19.0">
          endchar
        </CharString>
        <CharString name="CR.2.0">
          endchar
        </CharString>
        <CharString name="CR.20.0">
          endchar
        </CharString>
        <CharString name="CR.21.0">
          endchar
        </CharString>
        <CharString name="CR.22.0">
          endchar
        </CharString>
        <CharString name="CR.23.0">
          endchar
        </CharString>
        <CharString name="CR.24.0">
          endchar
        </CharString>
        <CharString name="CR.25.0">
          endchar
        </CharString>
        <CharString name="CR.26.0">
          endchar
        </CharString>
        <CharString name="CR.27.0">
          endchar
        </CharString>
        <CharString name="CR.28.0">
          endchar
        </CharString>
        <CharString name="CR.29.0">
          endchar
        </CharString>
        <CharString name="CR.3.0">
          endchar
        </CharString>
        <CharString name="CR.30.0">
          endchar
        </CharString>
        <CharString name="CR.31.0">
          endchar
        </CharString>
        <CharString name="CR.32.0">
          endchar
        </CharString>
        <CharString name="CR.33.0">
          endchar
        </CharString>
        <CharString name="CR.34.0">
          endchar
        </CharString>
        <CharString name="CR.35.0">
          endchar
        </CharString>
        <CharString name="CR.36.0">
          endchar
        </CharString>
        <CharString name="CR.37.0">
          endchar
        </CharString>
        <CharString name="CR.38.0">
          endchar
        </CharString>
        <CharString name="CR.39.0">
          endchar
        </CharString>
        <CharString name="CR.4.0">
          endchar
        </CharString>
        <CharString name="CR.40.0">
          endchar
        </CharString>
        <CharString name="CR.41.0">
          endchar
        </CharString>
        <CharString name="CR.42.0">
          endchar
        </CharString>
        <CharString name="CR.43.0">
          endchar
        </CharString>
        <CharString name="CR.44.0">
          endchar
        </CharString>
        <CharString name="CR.45.0">
          endchar
        </CharString>
        <CharString name="CR.46.0">
          endchar
        </CharString>
        <CharString name="CR.47.0">
          endchar
        </CharString>
        <CharString name="CR.48.0">
          endchar
        </CharString>
        <CharString name="CR.49.0">
          endchar
        </CharString>
        <CharString name="CR.5.0">
          endchar
        </CharString>
        <CharString name="CR.50.0">
          endchar
        </CharString>
        <CharString name="CR.51.0">
          endchar
        </CharString>
        <CharString name="CR.52.0">
          endchar
        </CharString>
        <CharString name="CR.53.0">
          endchar
        </CharString>
        <CharString name="CR.54.0">
          endchar
        </CharString>
        <CharString name="CR.55.0">
          endchar
        </CharString>
        <CharString name="CR.56.0">
          endchar
        </CharString>
        <CharString name="CR.57.0">
          endchar
        </CharString>
        <CharString name="CR.58.0">
          endchar
        </CharString>
        <CharString name="CR.59.0">
          endchar
        </CharString>
        <CharString name="CR.6.0">
          endchar
        </CharString>
        <CharString name="CR.60.0">
          endchar
        </CharString>
        <CharString name="CR.61.0">
          endchar
        </CharString>
        <CharString name="CR.62.0">
          endchar
        </CharString>
        <CharString name="CR.63.0">
          endchar
        </CharString>
        <CharString name="CR.64.0">
          endchar
        </CharString>
        <CharString name="CR.65.0">
          endchar
        </CharString>
        <CharString name="CR.66.0">
          endchar
        </CharString>
        <CharString name="CR.67.0">
          endchar
        </CharString>
        <CharString name="CR.68.0">
          endchar
        </CharString>
        <CharString name="CR.69.0">
          endchar
        </CharString>
        <CharString name="CR.7.0">
          endchar
        </CharString>
        <CharString name="CR.70.0">
          endchar
        </CharString>
        <CharString name="CR.71.0">
          endchar
        </CharString>
        <CharString name="CR.72.0">
          endchar
        </CharString>
        <CharString name="CR.73.0">
          endchar
        </CharString>
        <CharString name="CR.74.0">
          endchar
        </CharString>
        <CharString name="CR.75.0">
          endchar
        </CharString>
        <CharString name="CR.75.1">
          endchar
        </CharString>
        <CharString name="CR.76.0">
          endchar
        </CharString>
        <CharString name="CR.76.1">
          endchar
        </CharString>
        <CharString name="CR.77.0">
          endchar
        </CharString>
        <CharString name="CR.77.1">
          endchar
        </CharString>
        <CharString name="CR.78.0">
          endchar
        </CharString>
        <CharString name="CR.78.1">
          endchar
        </CharString>
        <CharString name="CR.79.0">
          endchar
        </CharString>
        <CharString name="CR.79.1">
          endchar
        </CharString>
        <CharString name="CR.8.0">
          endchar
        </CharString>
        <CharString name="CR.80.0">
          endchar
        </CharString>
        <CharString name="CR.80.1">
          endchar
        </CharString>
        <CharString name="CR.81.0">
          endchar
        </CharString>
        <CharString name="CR.81.1">
          endchar
        </CharString>
        <CharString name="CR.82.0">
          endchar
        </CharString>
        <CharString name="CR.82.1">
          endchar
        </CharString>
        <CharString name="CR.83.0">
          endchar
        </CharString>
        <CharString name="CR.83.1">
          endchar
        </CharString>
        <CharString name="CR.84.0">
          endchar
        </CharString>
        <CharString name="CR.84.1">
          endchar
        </CharString>
        <CharString name="CR.85.0">
          endchar
        </CharString>
        <CharString name="CR.85.1">
          endchar
        </CharString>
        <CharString name="CR.86.0">
          endchar
        </CharString>
        <CharString name="CR.86.1">
          endchar
        </CharString>
        <CharString name="CR.87.0">
          endchar
        </CharString>
        <CharString name="CR.87.1">
          endchar
        </CharString>
        <CharString name="CR.88.0">
          endchar
        </CharString>
        <CharString name="CR.88.1">
          endchar
        </CharString>
        <CharString name="CR.89.0">
          endchar
        </CharString>
        <CharString name="CR.89.1">
          endchar
        </CharString>
        <CharString name="CR.9.0">
          endchar
        </CharString>
        <CharString name="CR.90.0">
          endchar
        </CharString>
        <CharString name="CR.90.1">
          endchar
        </CharString>
        <CharString name="CR.91.0">
          endchar
        </CharString>
        <CharString name="CR.91.1">
          endchar
        </CharString>
        <CharString name="CR.92.0">
          endchar
        </CharString>
        <CharString name="CR.92.1">
          endchar
        </CharString>
        <CharString name="CR.93.0">
          endchar
        </CharString>
        <CharString name="CR.93.1">
          endchar
        </CharString>
        <CharString name="CR.94.0">
          endchar
        </CharString>
        <CharString name="CR.94.1">
          endchar
        </CharString>
        <CharString name="CR.95.0">
          endchar
        </CharString>
        <CharString name="CR.95.1">
          endchar
        </CharString>
        <CharString name="CR.96.0">
          endchar
        </CharString>
        <CharString name="CR.96.1">
          endchar
        </CharString>
        <CharString name="CR.97.0">
          endchar
        </CharString>
        <CharString name="CR.97.1">
          endchar
        </CharString>
        <CharString name="CR.98.0">
          endchar
        </CharString>
        <CharString name="CR.98.1">
          endchar
        </CharString>
        <CharString name="CR.99.0">
          endchar
        </CharString>
        <CharString name="CR.99.1">
          endchar
        </CharString>
        <CharString name="Cacute">
          -13 55 537 54 hstem
          70 61 323 58 vstem
          262 733 rmoveto
          -18 callsubr
          116 -100 rmoveto
          -100 callsubr
          endchar
        </CharString>
        <CharString name="Ccaron">
          -13 55 537 54 hstem
          70 61 323 58 vstem
          368 704 rmoveto
          21 callsubr
          13 -71 rmoveto
          -100 callsubr
          endchar
        </CharString>
        <CharString name="Ccedilla">
          -157 -21 137 83 -55 55 -44 44 537 54 hstemhm
          70 61 158 55 110 58 hintmask 10101111
          344 -178 rmoveto
          5 86 -21 54 -34 25 46 2 52 12 57 21 rrcurveto
          6 57 rlineto
          -208 -80 -116 51 0 182 0 170 102 177 133 0 79 0 12 -61 -3 -110 rrcurveto
          58 1 rlineto
          7 146 -30 78 -111 0 -173 0 -135 -200 0 -212 rrcurveto
          hintmask 10011111
          0 -120 47 -77 85 -26 -39 -17 -35 -45 -32 -75 rrcurveto
          34 -11 rlineto
          hintmask 11001111
          -4 callsubr
          endchar
        </CharString>
        <CharString name="Cdotaccent">
          -13 55 537 54 84.5 131 hstem
          70 61 323 58 vstem
          396 718 rmoveto
          20 callsubr
          42 -84 rmoveto
          -100 callsubr
          endchar
        </CharString>
        <CharString name="D">
          16 -21 26 -21 575 53 hstemhm
          457 61 hintmask 10110000
          518 382 rmoveto
          -99 callsubr
          hintmask 01110000
          -98 callsubr
          -61 -7 rmoveto
          -97 callsubr
          endchar
        </CharString>
        <CharString name="Dcaron">
          16 -21 26 -21 575 53 hstemhm
          457 61 hintmask 01110000
          380 698 rmoveto
          21 callsubr
          hintmask 10110000
          141 -316 rmoveto
          -99 callsubr
          hintmask 01110000
          -98 callsubr
          -61 -7 rmoveto
          -97 callsubr
          endchar
        </CharString>
        <CharString name="Dcroat">
          16 -21 26 -21 292 46 237 53 hstemhm
          457 61 hintmask 10111000
          518 382 rmoveto
          -3 callsubr
          hintmask 01111000
          -2 callsubr
          -208 -90 rmoveto
          -1 callsubr
          endchar
        </CharString>
        <CharString name="E">
          0 53 238 47 229 53 hstem
          65 482 vstem
          439 53 rmoveto
          -96 callsubr
          endchar
        </CharString>
        <CharString name="Eacute">
          0 53 238 47 229 53 hstem
          65 482 vstem
          271 720 rmoveto
          -18 callsubr
          168 -667 rmoveto
          -96 callsubr
          endchar
        </CharString>
        <CharString name="Ebreve">
          0 53 238 47 229 53 81 49 hstem
          65 525 vstem
          555 866 rmoveto
          19 callsubr
          -151 -790 rmoveto
          -96 callsubr
          endchar
        </CharString>
        <CharString name="Ecaron">
          0 53 238 47 229 53 hstem
          65 512 vstem
          378 691 rmoveto
          21 callsubr
          64 -638 rmoveto
          -96 callsubr
          endchar
        </CharString>
        <CharString name="Ecircumflex">
          0 53 238 47 229 53 hstem
          65 491 vstem
          515 694 rmoveto
          -10 callsubr
          28 -763 rmoveto
          -96 callsubr
          endchar
        </CharString>
        <CharString name="Edieresis">
          0 53 238 47 229 53 83.5 131 -128.5 131 hstemhm
          65 487 hintmask 11101100
          513 707 rmoveto
          -24 callsubr
          hintmask 11110100
          -152 -1 rmoveto
          -23 callsubr
          198 -650 rmoveto
          -96 callsubr
          endchar
        </CharString>
        <CharString name="Edotaccent">
          0 53 238 47 229 53 84.5 131 hstem
          65 482 vstem
          406 705 rmoveto
          20 callsubr
          93 -651 rmoveto
          -96 callsubr
          endchar
        </CharString>
        <CharString name="Egrave">
          0 53 238 47 229 53 hstem
          65 482 vstem
          487 712 rmoveto
          -73 callsubr
          -31 -633 rmoveto
          -96 callsubr
          endchar
        </CharString>
        <CharString name="Emacron">
          0 53 238 47 229 53 127 51 hstem
          65 497 vstem
          562 798 rmoveto
          -21 callsubr
          -114 -694 rmoveto
          -96 callsubr
          endchar
        </CharString>
        <CharString name="Eogonek">
          -208 45 163 53 238 47 229 53 hstem
          181 56 vstem
          396 -167 rmoveto
          -9 29 rlineto
          -108 -43 -42 19 0 34 0 37 55 43 133 48 rrcurveto
          14 53 -302 0 46 238 255 0 9 47 -255 0 44 229 301 0 10 53 -362 0 -120 -620 276 0 rlineto
          -113 -50 -47 -51 0 -44 0 -58 74 -38 141 74 rrcurveto
          endchar
        </CharString>
        <CharString name="Eth">
          16 -21 26 -21 292 46 237 53 hstemhm
          457 61 hintmask 10111000
          518 382 rmoveto
          -3 callsubr
          hintmask 01111000
          -2 callsubr
          -208 -90 rmoveto
          -1 callsubr
          endchar
        </CharString>
        <CharString name="Euro">
          -12 52 158 48 -44 46 108 44 182 51 hstemhm
          106 57 324 57 hintmask 10111110
          465 32 rmoveto
          -7 39 rlineto
          -187 -66 -99 39 -9 158 rrcurveto
          220 0 11 46 -231 0 rlineto
          1 36 7 37 10 35 rrcurveto
          234 0 11 44 -230 0 rlineto
          40 101 73 81 87 0 71 0 18 -49 2 -81 rrcurveto
          57 7 rlineto
          -3 115 -37 59 -96 0 -116 0 -100 -99 -51 -130 rrcurveto
          -73 0 -10 -48 66 0 rlineto
          hintmask 11011110
          -10 -35 -6 -37 -2 -38 rrcurveto
          -68 0 -10 -48 77 0 rlineto
          9 -184 126 -84 225 102 rrcurveto
          endchar
        </CharString>
        <CharString name="F">
          21 -21 277 48 242 53 hstem
          67 493 vstem
          446 277 rmoveto
          10 48 -266 0 47 242 314 0 9 53 -373 0 -120 -620 60 0 54 277 rlineto
          endchar
        </CharString>
        <CharString name="G">
          -11 52 538 54 hstem
          69 61 315 57 vstem
          398 -109 rmoveto
          -95 callsubr
          endchar
        </CharString>
        <CharString name="Gbreve">
          -11 52 538 54 81 49 hstem
          69 61 315 57 vstem
          537 879 rmoveto
          19 callsubr
          -174 -965 rmoveto
          -95 callsubr
          endchar
        </CharString>
        <CharString name="Gcommaaccent">
          -155 -21 165 52 538 54 hstem
          69 61 29 73 213 57 vstem
          398 -109 rmoveto
          -95 callsubr
          -230 -252 rmoveto
          24 callsubr
          endchar
        </CharString>
        <CharString name="Gdotaccent">
          -11 52 538 54 84.5 131 hstem
          69 61 315 57 vstem
          389 718 rmoveto
          20 callsubr
          69 -826 rmoveto
          -95 callsubr
          endchar
        </CharString>
        <CharString name="H">
          21 -21 290 49 281 -20 hstem
          46 499 vstem
          363 hmoveto
          62 0 120 620 -62 0 -54 -281 -255 0 54 281 -62 0 -120 -620 62 0 56 290 255 0 rlineto
          endchar
        </CharString>
        <CharString name="Hbar">
          21 -21 279 48 122 45 -43 42 -42 169 hstemhm
          46 549 hintmask 11010100
          426 327 rmoveto
          -255 0 24 124 255 0 rlineto
          -87 -451 rmoveto
          62 0 rlineto
          hintmask 11100100
          87 449 74 0 9 45 -74 0 rlineto
          hintmask 11001100
          24 126 -62 0 rlineto
          hintmask 11010100
          -25 -127 -255 0 rlineto
          hintmask 11001100
          25 127 -62 0 rlineto
          hintmask 11100100
          -24 -126 -76 0 -9 -45 76 0 -87 -449 62 0 54 279 255 0 rlineto
          endchar
        </CharString>
        <CharString name="I">
          0 49 522 49 hstem
          42 483 vstem
          264 49 rmoveto
          -94 callsubr
          endchar
        </CharString>
        <CharString name="Iacute">
          0 49 522 49 hstem
          42 483 vstem
          249 720 rmoveto
          -18 callsubr
          15 -671 rmoveto
          -94 callsubr
          endchar
        </CharString>
        <CharString name="Ibreve">
          0 49 522 49 81 49 hstem
          42 525 vstem
          532 866 rmoveto
          19 callsubr
          -303 -794 rmoveto
          -94 callsubr
          endchar
        </CharString>
        <CharString name="Icircumflex">
          0 49 522 49 hstem
          42 491 vstem
          492 694 rmoveto
          -10 callsubr
          -124 -767 rmoveto
          -94 callsubr
          endchar
        </CharString>
        <CharString name="Idieresis">
          0 49 522 49 83.5 131 -128.5 131 hstemhm
          42 487 hintmask 11011000
          490 707 rmoveto
          -24 callsubr
          hintmask 11101000
          -152 -1 rmoveto
          -23 callsubr
          46 -654 rmoveto
          -94 callsubr
          endchar
        </CharString>
        <CharString name="Idotaccent">
          0 49 522 49 84.5 131 hstem
          42 483 vstem
          384 705 rmoveto
          20 callsubr
          -60 -655 rmoveto
          -94 callsubr
          endchar
        </CharString>
        <CharString name="Igrave">
          0 49 522 49 hstem
          42 483 vstem
          464 712 rmoveto
          -73 callsubr
          -183 -637 rmoveto
          -94 callsubr
          endchar
        </CharString>
        <CharString name="Imacron">
          0 49 522 49 127 51 hstem
          42 497 vstem
          539 798 rmoveto
          -21 callsubr
          -266 -698 rmoveto
          -94 callsubr
          endchar
        </CharString>
        <CharString name="Iogonek">
          -207 45 162 49 522 49 hstem
          89 57 vstem
          304 -166 rmoveto
          -8 29 rlineto
          -107 -43 -43 18 0 34 0 38 33 43 82 47 rrcurveto
          146 0 12 49 -155 0 101 522 150 0 10 49 -366 0 -10 -49 155 0 -101 -522 -151 0 -10 -49 154 0 rlineto
          -75 -50 -32 -49 0 -45 0 -58 75 -38 140 74 rrcurveto
          endchar
        </CharString>
        <CharString name="J">
          -12 57 526 49 hstem
          47 436 vstem
          47 -12 rmoveto
          175 0 81 18 42 42 27 27 14 35 31 165 rrcurveto
          66 345 -271 0 -10 -49 211 0 -60 -304 rlineto
          -25 -133 -11 -35 -20 -20 -31 -31 -62 -5 -147 2 rrcurveto
          endchar
        </CharString>
        <CharString name="K">
          16 -21 26 -21 25 -21 616 -20 hstemhm
          58 520 hintmask 10011000
          408 -5 rmoveto
          hintmask 00111000
          -93 callsubr
          -28 308 rmoveto
          hintmask 01011000
          -92 callsubr
          endchar
        </CharString>
        <CharString name="Kcommaaccent">
          16 -21 26 -21 25 -21 616 -20 hstemhm
          218 73 hintmask 10011000
          408 -5 rmoveto
          hintmask 00111000
          -93 callsubr
          -28 308 rmoveto
          hintmask 01011000
          -92 callsubr
          -69 -884 rmoveto
          24 callsubr
          endchar
        </CharString>
        <CharString name="L">
          0 53 567 -20 hstem
          67 389 vstem
          444 hmoveto
          -91 callsubr
          endchar
        </CharString>
        <CharString name="Lacute">
          0 53 567 -20 hstem
          67 467 vstem
          281 720 rmoveto
          -18 callsubr
          163 -720 rmoveto
          -91 callsubr
          endchar
        </CharString>
        <CharString name="Lcaron">
          0 53 567 -20 100 -20 hstem
          481 73 vstem
          481 696 rmoveto
          22 callsubr
          -110 -700 rmoveto
          -91 callsubr
          endchar
        </CharString>
        <CharString name="Lcommaaccent">
          0 53 567 -20 hstem
          209 73 vstem
          444 hmoveto
          -91 callsubr
          95 -259 rmoveto
          24 callsubr
          endchar
        </CharString>
        <CharString name="Ldot">
          0 53 216 96 255 -20 hstem
          67 418 vstem
          444 hmoveto
          -91 callsubr
          396 269 rmoveto
          22 96 -79 0 -23 -96 rlineto
          endchar
        </CharString>
        <CharString name="Lslash">
          0 53 567 -20 hstem
          54 414 vstem
          456 hmoveto
          12 53 -317 0 55 285 181 86 -3 43 -168 -79 45 232 -62 0 -51 -265 -94 -44 2 -44 82 39 -59 -306 rlineto
          endchar
        </CharString>
        <CharString name="M">
          21 -21 98 80 351 91 2 -20 hstemhm
          38 523 hintmask 11011000
          237 622 rmoveto
          -79 -4 -120 -618 56 0 rlineto
          hintmask 11101000
          101 529 3 0 31 -431 48 0 207 431 3 0 -106 -529 60 0 120 620 -82 0 -209 -442 -2 0 rlineto
          endchar
        </CharString>
        <CharString name="N">
          21 -21 0 102 429 90 -1 -20 21 -20 hstemhm
          47 499 hintmask 10001100
          362 hmoveto
          64 0 rlineto
          hintmask 01010100
          -90 callsubr
          hintmask 10001100
          -89 callsubr
          hintmask 10100100
          -88 callsubr
          endchar
        </CharString>
        <CharString name="NUL">
          0 endchar
        </CharString>
        <CharString name="Nacute">
          21 -21 0 102 429 90 -1 -20 21 -20 hstemhm
          47 499 hintmask 10001100
          261 721 rmoveto
          -18 callsubr
          101 -721 rmoveto
          64 0 rlineto
          hintmask 01010100
          -90 callsubr
          hintmask 10001100
          -89 callsubr
          hintmask 10100100
          -88 callsubr
          endchar
        </CharString>
        <CharString name="Ncaron">
          21 -21 0 102 429 90 -1 -20 21 -20 hstemhm
          47 520 hintmask 10001100
          368 692 rmoveto
          21 callsubr
          -3 -692 rmoveto
          64 0 rlineto
          hintmask 01010100
          -90 callsubr
          hintmask 10001100
          -89 callsubr
          hintmask 10100100
          -88 callsubr
          endchar
        </CharString>
        <CharString name="Ncommaaccent">
          21 -21 0 102 429 90 -1 -20 21 -20 hstemhm
          189 73 hintmask 10001100
          362 hmoveto
          64 0 rlineto
          hintmask 01010100
          -90 callsubr
          hintmask 10001100
          -89 callsubr
          hintmask 10100100
          -88 callsubr
          -68 -790 rmoveto
          24 callsubr
          endchar
        </CharString>
        <CharString name="Ntilde">
          21 -21 0 102 429 90 -1 -20 21 -20 103 47 63 47 hstemhm
          47 546 hintmask 10001111
          461 751 rmoveto
          -9 callsubr
          -99 -751 rmoveto
          64 0 rlineto
          hintmask 01010111
          -90 callsubr
          hintmask 10001111
          -89 callsubr
          hintmask 10100111
          -88 callsubr
          endchar
        </CharString>
        <CharString name="O">
          -12 53 537 54 hstem
          66 62 335 63 vstem
          353 632 rmoveto
          -87 callsubr
          -105 -591 rmoveto
          -86 callsubr
          endchar
        </CharString>
        <CharString name="OE">
          0 52 239 46 231 52 hstem
          60 60 vstem
          120 207 rmoveto
          0 100 44 257 191 4 rrcurveto
          -100 -516 rlineto
          -83 2 -52 37 0 116 rrcurveto
          366 -155 rmoveto
          -173 0 46 239 144 0 9 46 -144 0 45 231 170 0 10 52 -199 0 rlineto
          -272 -62 -283 -133 -161 86 -43 121 hvcurveto
          204 hlineto
          endchar
        </CharString>
        <CharString name="Oacute">
          -12 53 537 54 hstem
          66 62 335 63 vstem
          263 733 rmoveto
          -18 callsubr
          90 -101 rmoveto
          -87 callsubr
          -105 -591 rmoveto
          -86 callsubr
          endchar
        </CharString>
        <CharString name="Obreve">
          -12 53 537 54 82 49 hstem
          66 62 335 63 vstem
          546 879 rmoveto
          19 callsubr
          -228 -224 rmoveto
          -87 callsubr
          -105 -591 rmoveto
          -86 callsubr
          endchar
        </CharString>
        <CharString name="Ocircumflex">
          -12 53 537 54 hstem
          66 62 335 63 vstem
          506 707 rmoveto
          -10 callsubr
          -49 -197 rmoveto
          -87 callsubr
          -105 -591 rmoveto
          -86 callsubr
          endchar
        </CharString>
        <CharString name="Odieresis">
          -12 53 537 54 84.5 131 -128.5 131 hstemhm
          66 62 335 63 hintmask 11011100
          504 720 rmoveto
          -24 callsubr
          hintmask 11101100
          -152 -1 rmoveto
          -23 callsubr
          121 -84 rmoveto
          -87 callsubr
          -105 -591 rmoveto
          -86 callsubr
          endchar
        </CharString>
        <CharString name="Ograve">
          -12 53 537 54 hstem
          66 62 335 63 vstem
          478 725 rmoveto
          -73 callsubr
          -108 -67 rmoveto
          -87 callsubr
          -105 -591 rmoveto
          -86 callsubr
          endchar
        </CharString>
        <CharString name="Ohungarumlaut">
          -12 53 537 54 hstem
          66 62 335 63 vstem
          253 706 rmoveto
          26 callsubr
          234 -21 rmoveto
          27 callsubr
          -81 -95 rmoveto
          -87 callsubr
          -105 -591 rmoveto
          -86 callsubr
          endchar
        </CharString>
        <CharString name="Omacron">
          -12 53 537 54 128 51 hstem
          66 62 335 63 vstem
          553 811 rmoveto
          -21 callsubr
          -191 -128 rmoveto
          -87 callsubr
          -105 -591 rmoveto
          -86 callsubr
          endchar
        </CharString>
        <CharString name="Omega">
          0 49 -23 -21 572 55 hstemhm
          92 55 297 59 hintmask 10111000
          183 5 rmoveto
          -23 95 -13 85 0 91 rrcurveto
          184 65 117 109 78 45 -54 -97 vhcurveto
          hintmask 01111000
          0 -102 -52 -141 -107 -178 rrcurveto
          1 -5 rlineto
          hintmask 10111000
          173 0 9 49 -106 0 rlineto
          96 151 45 134 0 105 rrcurveto
          120 -63 73 -110 -151 -87 -135 -205 vhcurveto
          0 -77 14 -80 24 -86 rrcurveto
          -115 0 -9 -49 175 0 rlineto
          endchar
        </CharString>
        <CharString name="Oslash">
          -13 53 -26 -21 587 53 -6 -20 hstemhm
          67 62 333 62 hintmask 10101100
          129 231 rmoveto
          0 callsubr
          123 -191 rmoveto
          1 callsubr
          -11 -53 rmoveto
          166 117 205 202 hvcurveto
          hintmask 10011100
          2 callsubr
          hintmask 01101100
          3 callsubr
          hintmask 10101100
          4 callsubr
          endchar
        </CharString>
        <CharString name="Oslashacute">
          -13 53 -26 -21 587 53 -6 -20 hstemhm
          67 62 333 62 hintmask 10101100
          263 733 rmoveto
          -18 callsubr
          -134 -502 rmoveto
          0 callsubr
          123 -191 rmoveto
          1 callsubr
          -11 -53 rmoveto
          166 117 205 202 hvcurveto
          hintmask 10011100
          2 callsubr
          hintmask 01101100
          3 callsubr
          hintmask 10101100
          4 callsubr
          endchar
        </CharString>
        <CharString name="Otilde">
          -12 53 537 54 84 47 63 47 hstem
          66 62 335 63 vstem
          462 763 rmoveto
          -9 callsubr
          -109 -131 rmoveto
          -87 callsubr
          -105 -591 rmoveto
          -86 callsubr
          endchar
        </CharString>
        <CharString name="P">
          21 -21 572 53 hstem
          478 61 vstem
          120 hmoveto
          41 209 rlineto
          239 20 139 92 0 139 0 111 -103 80 -257 -33 rrcurveto
          -120 -618 rlineto
          419 451 rmoveto
          0 -110 -107 -72 -199 -2 rrcurveto
          60 302 rlineto
          172 18 74 -54 0 -82 rrcurveto
          endchar
        </CharString>
        <CharString name="Q">
          13 -21 589 52 hstem
          79 60 329 62 vstem
          419 -131 rmoveto
          27 50 -219 97 rlineto
          171 85 132 153 0 172 0 122 -63 85 -121 0 -200 0 -135 -241 104 -292 rrcurveto
          52 20 rlineto
          -80 270 104 191 142 0 87 0 48 -60 0 -101 0 -155 -130 -155 -180 -74 rrcurveto
          -15 -44 rlineto
          endchar
        </CharString>
        <CharString name="R">
          16 -21 26 -21 26 -21 569 52 hstemhm
          455 62 hintmask 10011000
          420 -5 rmoveto
          hintmask 00111000
          -85 callsubr
          hintmask 01011000
          -84 callsubr
          endchar
        </CharString>
        <CharString name="R_p">
          -155 -21 171 50 -24 -21 22 -21 25 -21 438 53 -10 -20 109 48 hstemhm
          273 53 178 52 hintmask 1100001111000000
          204 -5 rmoveto
          hintmask 1000101111000000
          55 10 -59 269 rlineto
          85 85 41 65 0 82 0 84 -54 47 -128 -18 rrcurveto
          hintmask 1010001111000000
          -120 -619 53 0 113 575 rlineto
          56 1 27 -27 0 -55 0 -66 -36 -63 -89 -86 rrcurveto
          -2 vlineto
          hintmask 1100010111000000
          238 -232 rmoveto
          -9 0 -15 4 -16 6 27 143 28 145 11 63 24 24 20 13 17 0 rrcurveto
          21 10 -26 -46 hvcurveto
          -133 -60 -193 -58 vhcurveto
          -84 -216 rmoveto
          hintmask 1001001111000000
          9 49 12 60 12 63 rrcurveto
          hintmask 1100010111000000
          13 -4 13 -2 10 0 rrcurveto
          105 80 211 178 80 -22 32 -33 hvcurveto
          -26 0 -29 -20 -28 -31 rrcurveto
          hintmask 1100001111000000
          6 41 -51 -3 rlineto
          -24 -142 -47 -244 -53 -273 rrcurveto
          endchar
        </CharString>
        <CharString name="Racute">
          16 -21 26 -21 26 -21 569 52 hstemhm
          455 62 hintmask 00111000
          247 726 rmoveto
          -18 callsubr
          hintmask 10011000
          173 -731 rmoveto
          hintmask 00111000
          -85 callsubr
          hintmask 01011000
          -84 callsubr
          endchar
        </CharString>
        <CharString name="Rcaron">
          16 -21 26 -21 26 -21 569 52 hstemhm
          455 62 hintmask 00111000
          353 697 rmoveto
          21 callsubr
          hintmask 10011000
          70 -702 rmoveto
          hintmask 00111000
          -85 callsubr
          hintmask 01011000
          -84 callsubr
          endchar
        </CharString>
        <CharString name="Rcommaaccent">
          16 -21 26 -21 26 -21 569 52 hstemhm
          201 73 181 62 hintmask 10011100
          420 -5 rmoveto
          hintmask 00111100
          -85 callsubr
          hintmask 01011100
          -84 callsubr
          -84 -541 rmoveto
          24 callsubr
          endchar
        </CharString>
        <CharString name="S">
          -7 54 -31 31 532 52 hstemhm
          131 62 200 62 hintmask 10111000
          506 463 rmoveto
          -83 callsubr
          hintmask 01111000
          -13 -61 rlineto
          hintmask 10111000
          -82 callsubr
          endchar
        </CharString>
        <CharString name="Sacute">
          -7 54 -31 31 532 52 hstemhm
          131 62 200 62 hintmask 10111000
          257 731 rmoveto
          -18 callsubr
          249 -268 rmoveto
          -83 callsubr
          hintmask 01111000
          -13 -61 rlineto
          hintmask 10111000
          -82 callsubr
          endchar
        </CharString>
        <CharString name="Scaron">
          -7 54 -31 31 532 52 hstemhm
          131 62 200 62 hintmask 10111000
          364 702 rmoveto
          21 callsubr
          145 -239 rmoveto
          -83 callsubr
          hintmask 01111000
          -13 -61 rlineto
          hintmask 10111000
          -82 callsubr
          endchar
        </CharString>
        <CharString name="Scedilla">
          -43 90 -53 53 -52 52 532 52 hstemhm
          131 62 69 55 76 62 hintmask 10011110
          262 -181 rmoveto
          55 1 rlineto
          hintmask 01011110
          6 98 -28 56 -43 20 144 10 59 66 0 71 0 138 -262 59 0 123 0 63 54 55 76 0 73 0 41 -38 13 -88 rrcurveto
          56 10 rlineto
          -15 109 -52 59 -100 0 -120 0 -88 -86 0 -92 0 -145 262 -64 0 -111 0 -68 -87 -54 -264 66 rrcurveto
          hintmask 10011110
          -13 -61 rlineto
          hintmask 00111110
          54 -12 48 -7 42 -2 -39 -18 -34 -44 -31 -74 rrcurveto
          34 -11 rlineto
          hintmask 10011110
          28 callsubr
          endchar
        </CharString>
        <CharString name="Scommaaccent">
          -7 54 -31 31 532 52 hstemhm
          131 62 -28 73 155 62 hintmask 10110100
          506 463 rmoveto
          -83 callsubr
          hintmask 01110100
          -13 -61 rlineto
          hintmask 10110100
          -82 callsubr
          hintmask 10101100
          -332 -719 rmoveto
          24 callsubr
          endchar
        </CharString>
        <CharString name="T">
          21 -21 567 53 hstem
          107 473 vstem
          369 567 rmoveto
          -81 callsubr
          endchar
        </CharString>
        <CharString name="Tcaron">
          21 -21 567 53 hstem
          107 473 vstem
          359 691 rmoveto
          21 callsubr
          13 -124 rmoveto
          -81 callsubr
          endchar
        </CharString>
        <CharString name="Tcommaaccent">
          21 -21 567 53 hstem
          180 73 vstem
          369 567 rmoveto
          -81 callsubr
          -126 -259 rmoveto
          24 callsubr
          endchar
        </CharString>
        <CharString name="Thorn">
          0 163 305 51 -51 152 hstemhm
          458 61 hintmask 10110000
          120 hmoveto
          20 105 rlineto
          239 20 140 91 0 140 rrcurveto
          hintmask 11010000
          0 102 -86 75 -212 -14 rrcurveto
          hintmask 10110000
          20 101 -61 0 -121 -620 rlineto
          399 347 rmoveto
          0 -110 -107 -72 -199 -2 rrcurveto
          59 302 rlineto
          172 18 75 -54 0 -82 rrcurveto
          endchar
        </CharString>
        <CharString name="U">
          -15 56 579 -20 hstem
          76 63 vstem
          145 215 rmoveto
          -80 callsubr
          endchar
        </CharString>
        <CharString name="Uacute">
          -15 56 579 -20 hstem
          76 63 vstem
          259 720 rmoveto
          -18 callsubr
          -114 -505 rmoveto
          -80 callsubr
          endchar
        </CharString>
        <CharString name="Ubreve">
          -15 56 579 -20 101 49 hstem
          76 63 vstem
          543 866 rmoveto
          19 callsubr
          -433 -628 rmoveto
          -80 callsubr
          endchar
        </CharString>
        <CharString name="Ucircumflex">
          -15 56 579 -20 hstem
          76 63 vstem
          503 694 rmoveto
          -10 callsubr
          -254 -601 rmoveto
          -80 callsubr
          endchar
        </CharString>
        <CharString name="Udieresis">
          -15 56 579 -20 103.5 131 -128.5 131 hstemhm
          76 63 hintmask 11011000
          501 707 rmoveto
          -24 callsubr
          hintmask 11101000
          -152 -1 rmoveto
          -23 callsubr
          -84 -488 rmoveto
          -80 callsubr
          endchar
        </CharString>
        <CharString name="Ugrave">
          -15 56 579 -20 hstem
          76 63 vstem
          475 712 rmoveto
          -73 callsubr
          -313 -471 rmoveto
          -80 callsubr
          endchar
        </CharString>
        <CharString name="Uhungarumlaut">
          -15 56 579 -20 hstem
          76 63 vstem
          250 693 rmoveto
          26 callsubr
          234 -21 rmoveto
          27 callsubr
          -286 -499 rmoveto
          -80 callsubr
          endchar
        </CharString>
        <CharString name="Umacron">
          -15 56 579 -20 147 51 hstem
          76 63 vstem
          550 798 rmoveto
          -21 callsubr
          -396 -532 rmoveto
          -80 callsubr
          endchar
        </CharString>
        <CharString name="Uogonek">
          -207 45 147 56 579 -20 hstemhm
          76 63 -26 56 hintmask 11101000
          328 -166 rmoveto
          -9 29 rlineto
          -107 -43 -43 18 0 34 0 37 47 38 117 56 67 32 46 64 19 99 rrcurveto
          82 422 -61 0 -82 -423 rlineto
          -21 -107 -51 -49 -81 0 rrcurveto
          hintmask 11110000
          -94 0 -35 58 23 116 rrcurveto
          79 405 -61 0 -80 -410 rlineto
          -28 -142 60 -79 120 -4 rrcurveto
          hintmask 11101000
          -85 -45 -37 -44 0 -40 rrcurveto
          0 -58 74 -38 141 74 rrcurveto
          endchar
        </CharString>
        <CharString name="Uring">
          -15 56 579 -20 80 39 131 39 hstem
          76 63 117 46 169 46 vstem
          393 889 rmoveto
          29 callsubr
          -5 -39 rmoveto
          -7 callsubr
          -243 -635 rmoveto
          -80 callsubr
          endchar
        </CharString>
        <CharString name="V">
          0 56 564 -20 22 -20 hstemhm
          116 59 hintmask 10110000
          271 hmoveto
          hintmask 11010000
          110 207 106 207 98 206 rrcurveto
          -62 hlineto
          -89 -188 -95 -187 -98 -189 rrcurveto
          -7 hlineto
          hintmask 10110000
          -22 189 -21 190 -16 187 rrcurveto
          -59 -4 rlineto
          17 -206 23 -205 27 -207 rrcurveto
          endchar
        </CharString>
        <CharString name="W">
          0 76 544 -20 hstem
          75 58 vstem
          332 hmoveto
          -79 callsubr
          endchar
        </CharString>
        <CharString name="Wacute">
          0 76 544 -20 hstem
          75 58 vstem
          262 720 rmoveto
          -18 callsubr
          70 -720 rmoveto
          -79 callsubr
          endchar
        </CharString>
        <CharString name="Wcircumflex">
          0 76 544 -20 hstem
          75 58 vstem
          506 694 rmoveto
          -10 callsubr
          -70 -816 rmoveto
          -79 callsubr
          endchar
        </CharString>
        <CharString name="Wdieresis">
          0 76 544 -20 103.5 131 -128.5 131 hstemhm
          75 58 hintmask 11011000
          503 707 rmoveto
          -24 callsubr
          hintmask 11101000
          -152 -1 rmoveto
          -23 callsubr
          101 -703 rmoveto
          -79 callsubr
          endchar
        </CharString>
        <CharString name="Wgrave">
          0 76 544 -20 hstem
          75 58 vstem
          478 712 rmoveto
          -73 callsubr
          -129 -686 rmoveto
          -79 callsubr
          endchar
        </CharString>
        <CharString name="X">
          18 -21 24 -21 24 -21 617 -20 23 -20 hstemhm
          6 575 hintmask 10001100
          398 -3 rmoveto
          hintmask 00110100
          62 6 -132 304 253 313 -68 0 -211 -268 rlineto
          hintmask 01001100
          -115 271 -61 -6 132 -303 -252 -314 67 0 211 269 rlineto
          endchar
        </CharString>
        <CharString name="Y">
          21 -21 620 -20 21 -20 hstemhm
          110 479 hintmask 10110000
          259 hmoveto
          39 204 rlineto
          hintmask 11010000
          -78 callsubr
          hintmask 10110000
          -77 callsubr
          endchar
        </CharString>
        <CharString name="Yacute">
          21 -21 620 -20 21 -20 hstemhm
          110 479 hintmask 10110000
          254 721 rmoveto
          -18 callsubr
          5 -721 rmoveto
          39 204 rlineto
          hintmask 11010000
          -78 callsubr
          hintmask 10110000
          -77 callsubr
          endchar
        </CharString>
        <CharString name="Ycircumflex">
          21 -21 620 -20 21 -20 hstemhm
          110 479 hintmask 10110000
          497 695 rmoveto
          -10 callsubr
          -134 -817 rmoveto
          39 204 rlineto
          hintmask 11010000
          -78 callsubr
          hintmask 10110000
          -77 callsubr
          endchar
        </CharString>
        <CharString name="Ydieresis">
          21 -21 620 -20 21 -20 103.5 131 -128.5 131 hstemhm
          110 479 hintmask 10101100
          495 708 rmoveto
          -24 callsubr
          hintmask 11010100
          -152 -1 rmoveto
          -23 callsubr
          36 -704 rmoveto
          39 204 291 416 -67 0 -241 -351 rlineto
          hintmask 10110100
          -77 callsubr
          endchar
        </CharString>
        <CharString name="Ygrave">
          21 -21 620 -20 21 -20 hstemhm
          110 479 hintmask 10110000
          469 713 rmoveto
          -73 callsubr
          -193 -687 rmoveto
          39 204 rlineto
          hintmask 11010000
          -78 callsubr
          hintmask 10110000
          -77 callsubr
          endchar
        </CharString>
        <CharString name="Z">
          0 53.5 513 53.5 hstem
          27 523 vstem
          434 hmoveto
          -76 callsubr
          endchar
        </CharString>
        <CharString name="Zacute">
          0 53.5 513 53.5 hstem
          27 523 vstem
          254 720 rmoveto
          -18 callsubr
          180 -720 rmoveto
          -76 callsubr
          endchar
        </CharString>
        <CharString name="Zcaron">
          0 53.5 513 53.5 hstem
          27 533 vstem
          361 691 rmoveto
          21 callsubr
          76 -691 rmoveto
          -76 callsubr
          endchar
        </CharString>
        <CharString name="Zdotaccent">
          0 53.5 513 53.5 84.5 131 hstem
          27 523 vstem
          389 705 rmoveto
          20 callsubr
          105 -704 rmoveto
          -76 callsubr
          endchar
        </CharString>
        <CharString name="a">
          -10 56 -55 53 399 51 -20 20 hstemhm
          56 60 231 57 hintmask 10101100
          187 46 rmoveto
          -72 callsubr
          hintmask 01011100
          324 -12 rmoveto
          -71 callsubr
          hintmask 10101100
          -70 callsubr
          endchar
        </CharString>
        <CharString name="aacute">
          -10 56 -55 53 399 51 -20 20 hstemhm
          56 60 231 57 hintmask 01101100
          248 593 rmoveto
          -18 callsubr
          hintmask 10101100
          -61 -547 rmoveto
          -72 callsubr
          hintmask 01011100
          324 -12 rmoveto
          -71 callsubr
          hintmask 10101100
          -70 callsubr
          endchar
        </CharString>
        <CharString name="abreve">
          -10 56 -55 53 399 51 -20 20 80 49 hstemhm
          56 60 231 57 hintmask 01101110
          531 739 rmoveto
          19 callsubr
          hintmask 10101110
          -379 -670 rmoveto
          -72 callsubr
          hintmask 01011110
          324 -12 rmoveto
          -71 callsubr
          hintmask 10101110
          -70 callsubr
          endchar
        </CharString>
        <CharString name="acircumflex">
          -10 56 -55 53 399 51 -20 20 hstemhm
          56 60 231 57 hintmask 01101100
          491 567 rmoveto
          -10 callsubr
          hintmask 10101100
          -200 -643 rmoveto
          -72 callsubr
          hintmask 01011100
          324 -12 rmoveto
          -71 callsubr
          hintmask 10101100
          -70 callsubr
          endchar
        </CharString>
        <CharString name="acute">
          704 -20 hstem
          170 253 vstem
          170 584 rmoveto
          -18 callsubr
          endchar
        </CharString>
        <CharString name="adieresis">
          -10 56 -55 53 399 51 -20 20 82.5 131 -128.5 131 hstemhm
          56 60 231 57 hintmask 01100111
          489 580 rmoveto
          -24 callsubr
          hintmask 10101011
          -152 -1 rmoveto
          -23 callsubr
          -30 -530 rmoveto
          -41 -30 33 77 149 88 138 110 hvcurveto
          26 0 35 -6 38 -10 -15 -74 -30 -153 -10 -53 -52 -54 -72 -47 -47 0 rrcurveto
          hintmask 01010111
          324 -12 rmoveto
          -71 callsubr
          hintmask 10100111
          -70 callsubr
          endchar
        </CharString>
        <CharString name="ae">
          -7 52 397 49 -48 51 hstemhm
          41 60 393 56 hintmask 11011000
          508 55 rmoveto
          8 callsubr
          hintmask 10111000
          9 callsubr
          hintmask 11011000
          -34 25 -33 13 -37 0 rrcurveto
          -126 -100 -187 -183 -86 28 -42 45 hvcurveto
          51 0 48 41 42 55 rrcurveto
          18 -101 80 -37 155 104 rrcurveto
          hintmask 10111000
          -58 388 rmoveto
          10 callsubr
          -312 -396 rmoveto
          -24 -13 28 56 hvcurveto
          hintmask 11011000
          11 callsubr
          endchar
        </CharString>
        <CharString name="aeacute">
          -7 52 397 49 -48 51 hstemhm
          41 60 393 56 hintmask 11011000
          256 586 rmoveto
          -18 callsubr
          252 -531 rmoveto
          8 callsubr
          hintmask 10111000
          9 callsubr
          hintmask 11011000
          -34 25 -33 13 -37 0 rrcurveto
          -126 -100 -187 -183 -86 28 -42 45 hvcurveto
          51 0 48 41 42 55 18 -101 80 -37 155 104 rrcurveto
          hintmask 10111000
          -58 388 rmoveto
          10 callsubr
          -312 -396 rmoveto
          -24 -13 28 56 hvcurveto
          hintmask 11011000
          11 callsubr
          endchar
        </CharString>
        <CharString name="agrave">
          -10 56 -55 53 399 51 -20 20 hstemhm
          56 60 231 57 hintmask 01101100
          463 585 rmoveto
          -73 callsubr
          hintmask 10101100
          -259 -513 rmoveto
          -72 callsubr
          hintmask 01011100
          324 -12 rmoveto
          -71 callsubr
          hintmask 10101100
          -70 callsubr
          endchar
        </CharString>
        <CharString name="amacron">
          -10 56 -55 53 399 51 -20 20 126 51 hstemhm
          56 60 231 57 hintmask 01101110
          538 671 rmoveto
          -21 callsubr
          hintmask 10101110
          -342 -574 rmoveto
          -72 callsubr
          hintmask 01011110
          324 -12 rmoveto
          -71 callsubr
          hintmask 10101110
          -70 callsubr
          endchar
        </CharString>
        <CharString name="ampersand">
          -11 68 296 67 216 63 hstemhm
          15 82 -46 82 235 77 hintmask 11110100
          240 699 rmoveto
          hintmask 11101100
          -117 -72 -77 -88 hvcurveto
          0 -62 30 -61 90 -21 rrcurveto
          -3 vlineto
          hintmask 11110100
          -100 -21 -56 -68 0 -103 0 -103 67 -103 156 0 115 0 62 54 30 38 rrcurveto
          272 90 67 -278 vlineto
          hintmask 11101100
          -70 -54 53 61 59 35 43 71 hvcurveto
          50 0 33 -19 35 -39 rrcurveto
          50 46 rlineto
          -55 61 -52 14 -60 0 rrcurveto
          128 -346 rmoveto
          -244 vlineto
          -27 -34 -46 -18 -55 0 rrcurveto
          -101 -42 68 73 71 44 84 103 hvcurveto
          endchar
        </CharString>
        <CharString name="aogonek">
          -206 45 151 56 -24 -21 0 43 399 51 -20 20 hstemhm
          56 60 147 57 27 57 hintmask 1001101110000000
          478 -166 rmoveto
          -8 30 rlineto
          -108 -43 -42 18 0 34 0 46 54 49 137 66 rrcurveto
          hintmask 1001011010000000
          -71 callsubr
          hintmask 1100101010000000
          -50 13 -44 7 -40 0 rrcurveto
          -168 -122 -168 -183 -103 44 -50 61 hvcurveto
          56 0 75 49 58 58 rrcurveto
          hintmask 1010101010000000
          -8 -56 10 -33 34 -7 rrcurveto
          hintmask 1100101110000000
          -87 -52 -36 -47 0 -45 rrcurveto
          0 -58 75 -38 140 73 rrcurveto
          hintmask 1100101010000000
          -291 212 rmoveto
          -72 callsubr
          endchar
        </CharString>
        <CharString name="approxequal">
          103 51 65 51 41 51 65 51 hstem
          40 487 vstem
          380 311 rmoveto
          53 0 38 45 56 97 rrcurveto
          -34 19 rlineto
          -39 -62 -33 -48 -33 0 -52 0 -26 116 -79 0 -53 0 -42 -47 -56 -98 rrcurveto
          33 -19 rlineto
          40 64 35 49 32 0 54 0 27 -116 79 0 rrcurveto
          -40 -208 rmoveto
          53 0 38 45 56 97 rrcurveto
          -34 19 rlineto
          -38 -62 -34 -48 -33 0 -51 0 -27 116 -78 0 -54 0 -42 -47 -56 -98 rrcurveto
          33 -19 rlineto
          40 64 34 49 33 0 54 0 27 -116 79 0 rrcurveto
          endchar
        </CharString>
        <CharString name="aring">
          -10 56 -55 53 399 51 -20 20 59 39 131 39 hstemhm
          56 60 129 46 56 57 56 46 hintmask 0110111111000000
          382 762 rmoveto
          -8 callsubr
          -5 -39 rmoveto
          -7 callsubr
          hintmask 1010111111000000
          -190 -677 rmoveto
          -72 callsubr
          hintmask 0101111111000000
          324 -12 rmoveto
          -71 callsubr
          hintmask 1010111111000000
          -70 callsubr
          endchar
        </CharString>
        <CharString name="aringacute">
          -10 56 -55 53 399 51 -20 20 59 39 131 39 hstemhm
          56 60 129 46 56 57 56 46 hintmask 0110111111000000
          312 830 rmoveto
          -18 callsubr
          70 -68 rmoveto
          29 callsubr
          -5 -39 rmoveto
          -7 callsubr
          hintmask 1010111111000000
          -190 -677 rmoveto
          -72 callsubr
          hintmask 0101111111000000
          324 -12 rmoveto
          -71 callsubr
          hintmask 1010111111000000
          -70 callsubr
          endchar
        </CharString>
        <CharString name="asciicircum">
          527 313 hstem
          49 452 vstem
          312 840 rmoveto
          -74 0 -189 -313 90 0 135 237 136 -237 91 0 rlineto
          endchar
        </CharString>
        <CharString name="asciitilde">
          228 73 27 73 hstem
          18 514 vstem
          180 401 rmoveto
          -89 0 -43 -70 -30 -58 rrcurveto
          60 -30 rlineto
          26 48 30 37 43 0 64 0 35 -100 94 0 rrcurveto
          88 0 44 69 30 57 rrcurveto
          -60 32 rlineto
          -26 -48 -32 -37 -41 0 -61 0 -32 100 -100 0 rrcurveto
          endchar
        </CharString>
        <CharString name="asterisk">
          98 480 hstem
          23 504 vstem
          233 578 rmoveto
          84 0 -6 -202 190 68 26 -79 -194 -58 123 -160 -67 -49 -114 168 -114 -168 -67 49 123 160 -194 58 26 79 190 -68 rlineto
          endchar
        </CharString>
        <CharString name="asterisk.alt">
          482 -20 hstem
          105 414 vstem
          346 552 rmoveto
          50 124 -58 16 -21 -133 rlineto
          -45 -10 rmoveto
          -83 104 -43 -43 105 -84 rlineto
          136 -38 rmoveto
          132 20 -16 58 -125 -47 rlineto
          -141 -37 rmoveto
          -132 -20 16 -58 126 48 rlineto
          107 -31 rmoveto
          83 -104 41 43 -104 84 rlineto
          -95 -27 rmoveto
          -50 -123 59 -16 19 133 rlineto
          endchar
        </CharString>
        <CharString name="at">
          -155 49 165 52 319 47 156 48 hstem
          56 53 123 54 132.5 49.5 27 54 vstem
          402 -140 rmoveto
          7 50 rlineto
          -222 -55 -78 86 0 181 0 259 138 252 155 0 79 0 27 -55 -17 -108 -20 5 -19 2 -16 0 rrcurveto
          -122 -82 -150 -142 -86 31 -40 43 hvcurveto
          35 0 44 25 36 33 rrcurveto
          -5 -52 52 -1 rlineto
          7 51 10 63 10 50 rrcurveto
          43 208 rlineto
          33 159 -41 86 -115 0 -201 0 -158 -279 0 -285 0 -207 98 -107 248 57 rrcurveto
          -71 251 rmoveto
          -25 -20 24 58 111 60 126 66 hvcurveto
          18 0 25 -5 26 -8 rrcurveto
          -53 -259 rlineto
          -31 -26 -40 -21 -26 0 rrcurveto
          endchar
        </CharString>
        <CharString name="atilde">
          -10 56 -55 53 399 51 -20 20 82 47 0 -20 83 47 hstemhm
          56 60 231 57 hintmask 0110101110000000
          447 623 rmoveto
          5 callsubr
          hintmask 0110011110000000
          6 callsubr
          hintmask 0110101110000000
          7 callsubr
          hintmask 1010101110000000
          -260 -577 rmoveto
          -72 callsubr
          hintmask 0101101110000000
          324 -12 rmoveto
          -71 callsubr
          hintmask 1010101110000000
          -70 callsubr
          endchar
        </CharString>
        <CharString name="b">
          -10 51 400 55 207 -20 hstem
          434 58 vstem
          202 -10 rmoveto
          170 120 164 179 109 -47 54 -63 hvcurveto
          -58 0 -74 -48 -58 -58 rrcurveto
          61 313 -59 -5 -133 -685 rlineto
          49 -14 52 -9 40 0 rrcurveto
          32 51 rmoveto
          -27 0 -38 6 -41 11 rrcurveto
          54 277 rlineto
          50 56 73 50 52 0 rrcurveto
          41 36 -38 -82 -145 -88 -135 -112 hvcurveto
          endchar
        </CharString>
        <CharString name="backslash">
          -103 912 hstem
          28 494 vstem
          28 777 rmoveto
          426 -880 68 30 -428 882 rlineto
          endchar
        </CharString>
        <CharString name="bar">
          -102 909 hstem
          237 75 vstem
          312 807 rmoveto
          -75 -909 75 hlineto
          endchar
        </CharString>
        <CharString name="braceleft">
          240 43 hstemhm
          117 60 33 55 -26 57 -18 56 hintmask 11100000
          371 -205 rmoveto
          -34 callsubr
          hintmask 11010000
          -33 callsubr
          hintmask 11101000
          -32 callsubr
          hintmask 11100000
          -31 callsubr
          hintmask 11101000
          -30 callsubr
          hintmask 11010000
          -29 callsubr
          endchar
        </CharString>
        <CharString name="braceleft.cap">
          289 43 hstemhm
          127 60 33 55 -26 57 -18 56 hintmask 11100000
          381 -156 rmoveto
          -34 callsubr
          hintmask 11010000
          -33 callsubr
          hintmask 11101000
          -32 callsubr
          hintmask 11100000
          -31 callsubr
          hintmask 11101000
          -30 callsubr
          hintmask 11010000
          -29 callsubr
          endchar
        </CharString>
        <CharString name="braceright">
          232 43 hstemhm
          214 55 -17 57 -26 55 32 60 hintmask 10011000
          9 -204 rmoveto
          -28 callsubr
          hintmask 11011000
          -27 callsubr
          hintmask 10101000
          -26 callsubr
          hintmask 11011000
          -25 callsubr
          hintmask 10011000
          0 -53 -82 -44 -203 -41 rrcurveto
          endchar
        </CharString>
        <CharString name="braceright.cap">
          281 43 hstemhm
          224 55 -17 57 -26 55 32 60 hintmask 10011000
          19 -155 rmoveto
          -28 callsubr
          hintmask 11011000
          -27 callsubr
          hintmask 10101000
          -26 callsubr
          hintmask 11011000
          -25 callsubr
          hintmask 10011000
          0 -53 -82 -44 -203 -41 rrcurveto
          endchar
        </CharString>
        <CharString name="bracketleft">
          -178 49 772 49 hstem
          66 475 vstem
          66 -178 rmoveto
          -75 callsubr
          endchar
        </CharString>
        <CharString name="bracketleft.cap">
          -129 49 772 49 hstem
          76 475 vstem
          76 -129 rmoveto
          -75 callsubr
          endchar
        </CharString>
        <CharString name="bracketright">
          -177 49 772 49 hstem
          8 475 vstem
          483 693 rmoveto
          -74 callsubr
          endchar
        </CharString>
        <CharString name="bracketright.cap">
          -128 49 772 49 hstem
          18 475 vstem
          493 742 rmoveto
          -74 callsubr
          endchar
        </CharString>
        <CharString name="breve">
          565 49 hstem
          107 357 vstem
          429 730 rmoveto
          19 callsubr
          endchar
        </CharString>
        <CharString name="bullet">
          181 234 hstem
          173 220 vstem
          393 310 rmoveto
          61 -42 44 -59 -61 -58 -53 -76 -61 43 -44 56 62 59 53 76 vhcurveto
          endchar
        </CharString>
        <CharString name="bullet.alt">
          198 198 hstem
          169 232 vstem
          362 198 rmoveto
          39 198 -192 0 -40 -198 rlineto
          endchar
        </CharString>
        <CharString name="c">
          -10 52 401 52 hstem
          77 59 298 55 vstem
          489 339 rmoveto
          -69 callsubr
          endchar
        </CharString>
        <CharString name="cacute">
          -10 52 401 52 hstem
          77 59 298 55 vstem
          247 595 rmoveto
          -18 callsubr
          242 -256 rmoveto
          -69 callsubr
          endchar
        </CharString>
        <CharString name="caron">
          617 -20 105 -20 23 -20 hstemhm
          128 336 hintmask 10110000
          265 555 rmoveto
          hintmask 11010000
          30 callsubr
          hintmask 10110000
          31 callsubr
          endchar
        </CharString>
        <CharString name="caron.alt">
          551 251 hstem
          282 73 vstem
          282 798 rmoveto
          22 callsubr
          endchar
        </CharString>
        <CharString name="ccaron">
          -10 52 401 52 133 -20 hstem
          77 59 298 55 vstem
          354 566 rmoveto
          21 callsubr
          138 -227 rmoveto
          -69 callsubr
          endchar
        </CharString>
        <CharString name="ccedilla">
          -45 87 -51 51 -47 47 401 52 hstemhm
          77 59 152 55 91 55 hintmask 01011110
          343 -182 rmoveto
          6 96 -27 56 -42 21 51 5 58 18 67 33 rrcurveto
          -10 33 rlineto
          -204 -77 -106 43 0 137 0 138 97 122 117 0 56 0 26 -26 2 -79 rrcurveto
          55 1 rlineto
          2 108 -39 48 -88 0 -153 0 -134 -154 0 -167 rrcurveto
          hintmask 00111110
          0 -94 45 -67 83 -18 -41 -15 -37 -45 -32 -78 rrcurveto
          34 -11 rlineto
          hintmask 10011110
          -4 callsubr
          endchar
        </CharString>
        <CharString name="cdotaccent">
          -10 52 401 52 84.5 131 hstem
          77 59 298 55 vstem
          382 580 rmoveto
          20 callsubr
          167 -240 rmoveto
          -69 callsubr
          endchar
        </CharString>
        <CharString name="cedilla">
          -151 -21 137 46 hstem
          296 55 vstem
          137 -144 rmoveto
          33 69 32 40 37 0 38 0 26 -40 -7 -98 rrcurveto
          55 1 rlineto
          8 126 -49 57 -64 0 -55 0 -47 -46 -41 -98 rrcurveto
          endchar
        </CharString>
        <CharString name="cent">
          34 54 333 58 141 -20 hstem
          87 56 vstem
          143 254 rmoveto
          0 76 45 66 137 21 rrcurveto
          -69 -300 rlineto
          -84 30 -29 49 0 58 rrcurveto
          278 -220 rmoveto
          11 54 rlineto
          -52 2 -43 6 -36 8 rrcurveto
          73 318 rlineto
          34 2 38 0 44 -3 rrcurveto
          11 58 rlineto
          -41 3 -38 -1 -34 -2 rrcurveto
          33 141 -55 0 -32 -147 rlineto
          -180 -29 -67 -101 0 -100 0 -78 45 -66 108 -36 rrcurveto
          -35 -149 55 0 29 135 rlineto
          38 -8 44 -5 50 -2 rrcurveto
          endchar
        </CharString>
        <CharString name="check.1">
          -20.5 78.5 580 -20 hstem
          86 489 vstem
          575 638 rmoveto
          -58 30 rlineto
          -120 -183 -106 -208 -85 -219 rrcurveto
          -4 0 -61 298 -55 -17 81 -359 53 -1 rlineto
          99 242 119 219 137 198 rrcurveto
          endchar
        </CharString>
        <CharString name="check.2">
          17 -21 25 -21 25 -21 495 -20 161 -20 hstemhm
          37 519 hintmask 10011100
          309 -4 rmoveto
          hintmask 00111100
          59 8 -87 266 275 370 -55 30 -239 -347 -55 176 -57 -16 70 -208 rlineto
          hintmask 01011100
          -183 -256 37 -19 164 223 rlineto
          endchar
        </CharString>
        <CharString name="circumflex">
          558 184 hstem
          104 335 vstem
          398 558 rmoveto
          -10 callsubr
          endchar
        </CharString>
        <CharString name="colon">
          -11 162 198 162 hstem
          194 161 vstem
          194 431 rmoveto
          -45 34 -37 46 47 34 37 45 44 -34 36 -47 -46 -34 -36 -44 vhcurveto
          -361 vmoveto
          -46 34 -35 46 47 34 35 46 44 -34 37 -47 -46 -34 -37 -44 vhcurveto
          endchar
        </CharString>
        <CharString name="colon.alt">
          92 101 235 100 hstem
          202 182 vstem
          364 428 rmoveto
          20 100 -91 0 -20 -100 rlineto
          20 -336 rmoveto
          21 101 -92 0 -20 -101 rlineto
          endchar
        </CharString>
        <CharString name="colonmonetary">
          24 51 467 55 hstem
          78 55 vstem
          315 98 rmoveto
          -29 7 -26 9 -22 11 rrcurveto
          107 387 rlineto
          27 8 30 6 34 5 rrcurveto
          -303 -249 rmoveto
          0 90 45 79 121 46 rrcurveto
          -97 -351 rlineto
          -48 33 -21 45 0 58 rrcurveto
          132 -356 rmoveto
          47 0 29 109 rlineto
          27 -4 28 -4 30 -3 rrcurveto
          21 51 rlineto
          -34 4 -31 4 -28 6 rrcurveto
          124 447 rlineto
          27 3 30 2 31 1 rrcurveto
          5 55 rlineto
          -26 -1 -25 -2 -24 -2 rrcurveto
          28 101 -47 0 -28 -107 rlineto
          -32 -5 -29 -6 -27 -7 rrcurveto
          34 125 -47 0 -38 -140 rlineto
          -167 -58 -65 -106 0 -115 0 -78 33 -62 71 -43 rrcurveto
          -46 -165 47 0 40 144 rlineto
          22 -10 26 -8 28 -7 rrcurveto
          endchar
        </CharString>
        <CharString name="comma">
          -150 -21 hstem
          211 85 vstem
          119 -171 rmoveto
          24 -15 rlineto
          105 87 43 79 5 123 rrcurveto
          -91 -3 rlineto
          17 -118 -18 -67 -85 -86 rrcurveto
          endchar
        </CharString>
        <CharString name="commaaccent">
          -271 202 hstem
          239 73 vstem
          192 -259 rmoveto
          24 callsubr
          endchar
        </CharString>
        <CharString name="commaaccent.rot">
          557 202 hstem
          228 74 vstem
          349 747 rmoveto
          25 callsubr
          endchar
        </CharString>
        <CharString name="copyright">
          7 37 93 43 265 41 90 37 hstem
          45 39 79 44 139 40 92 40 vstem
          314 613 rmoveto
          -145 -124 -143 -214 -156 88 -93 117 147 121 144 214 155 -87 93 -117 hvcurveto
          -7 -37 rmoveto
          98 73 -81 -138 -180 -98 -133 -123 -98 -75 82 138 180 102 132 121 hvcurveto
          10 -90 rmoveto
          -86 -68 -109 -117 hvcurveto
          0 -107 67 -43 116 45 rrcurveto
          6 41 rlineto
          -94 -36 -51 22 0 87 0 86 44 90 59 0 30 0 7 -30 -1 -50 rrcurveto
          40 1 rlineto
          4 77 -18 43 -55 0 rrcurveto
          endchar
        </CharString>
        <CharString name="d">
          -10 56 -54 52 401 50 -8 -20 236 -20 hstemhm
          56 59 235 56 hintmask 10101110
          191 46 rmoveto
          -68 callsubr
          hintmask 01011110
          323 -11 rmoveto
          -67 callsubr
          hintmask 10101110
          -66 callsubr
          endchar
        </CharString>
        <CharString name="dagger">
          499 -20 hstem
          126 388 vstem
          262 122 rmoveto
          81 355 161 -17 10 48 -161 17 33 164 -58 6 -32 -164 -160 17 -10 -49 161 -17 -72 -370 8 -7 rlineto
          endchar
        </CharString>
        <CharString name="daggerdbl">
          499 -20 hstem
          85 429 vstem
          253 71 rmoveto
          46 207 165 -17 9 48 -163 17 33 151 161 -17 10 48 -161 17 33 164 -58 6 -32 -164 -160 17 -10 -49 161 -17 -30 -150 rlineto
          -162 17 -10 -49 163 -17 -43 -221 8 -7 rlineto
          endchar
        </CharString>
        <CharString name="dcaron">
          -10 56 -54 52 401 50 -8 -20 236 -20 hstemhm
          56 59 235 56 222 73 hintmask 01101111
          628 798 rmoveto
          22 callsubr
          hintmask 10101111
          -510 -756 rmoveto
          -68 callsubr
          hintmask 01011111
          323 -11 rmoveto
          -67 callsubr
          hintmask 10101111
          -66 callsubr
          endchar
        </CharString>
        <CharString name="dcroat">
          -10 56 -54 52 401 50 -8 -20 117 41 -41 119 hstemhm
          56 59 235 56 hintmask 10101011
          191 46 rmoveto
          -68 callsubr
          hintmask 01101011
          323 -11 rmoveto
          -8 31 rlineto
          -102 -43 -7 21 16 82 rrcurveto
          90 458 73 0 8 41 -72 0 rlineto
          hintmask 01100111
          15 78 -61 -5 rlineto
          hintmask 01011011
          -14 -73 -140 0 -8 -41 140 0 -19 -97 rlineto
          hintmask 10101011
          -66 callsubr
          endchar
        </CharString>
        <CharString name="degree">
          322 47 255 46 hstem
          156 49 237 50 vstem
          341 670 rmoveto
          -95 -90 -76 -115 -95 62 -62 87 96 91 76 115 96 -63 61 -88 hvcurveto
          -28 -301 rmoveto
          -67 -41 49 66 83 59 57 71 66 41 -49 -66 -84 -58 -56 -71 hvcurveto
          endchar
        </CharString>
        <CharString name="dieresis">
          567.5 131.5 -129 132 hstemhm
          132 311 hintmask 01100000
          404 571 rmoveto
          -24 callsubr
          hintmask 10100000
          -152 -1 rmoveto
          -23 callsubr
          endchar
        </CharString>
        <CharString name="divide">
          69 81 114 50 115 82 hstem
          65 439 vstem
          347 429 rmoveto
          16 82 -74 0 -16 -82 rlineto
          231 -115 rmoveto
          -429 0 -10 -50 429 0 rlineto
          -215 -195 rmoveto
          16 81 -73 0 -17 -81 rlineto
          endchar
        </CharString>
        <CharString name="dollar">
          22 50 -48 51 470 159 0 -20 hstemhm
          140 58 192 57 hintmask 10101100
          198 480 rmoveto
          0 37 40 34 104 -6 rrcurveto
          -57 -189 rlineto
          -47 44 -40 42 0 38 rrcurveto
          192 -337 rmoveto
          0 -38 -45 -35 -106 2 rrcurveto
          60 197 rlineto
          49 -46 42 -42 0 -38 rrcurveto
          -190 -228 rmoveto
          28 107 rlineto
          157 -1 62 62 0 61 0 61 -65 62 -64 58 rrcurveto
          66 216 rlineto
          36 -5 41 -9 48 -14 rrcurveto
          11 56 rlineto
          -43 11 -38 7 -35 4 rrcurveto
          37 113 -55 0 -34 -109 rlineto
          -152 5 -60 -61 0 -63 0 -60 62 -60 63 -57 rrcurveto
          hintmask 01011100
          -68 -224 rlineto
          -40 4 -48 9 -56 15 rrcurveto
          -13 -57 rlineto
          51 -11 46 -7 41 -4 rrcurveto
          -32 -108 rlineto
          endchar
        </CharString>
        <CharString name="dotaccent">
          568.5 131.5 hstem
          229 100 vstem
          289 569 rmoveto
          20 callsubr
          endchar
        </CharString>
        <CharString name="dotlessi">
          -10 54 386 55 0 -20 hstemhm
          176 61 hintmask 10110000
          467 41 rmoveto
          -60 callsubr
          hintmask 11010000
          -59 callsubr
          endchar
        </CharString>
        <CharString name="e">
          -10 52 142 38 223 51 hstem
          69 58 306 58 vstem
          463 54 rmoveto
          -65 callsubr
          -119 391 rmoveto
          -64 callsubr
          endchar
        </CharString>
        <CharString name="eacute">
          -10 52 142 38 223 51 hstem
          69 58 306 58 vstem
          242 596 rmoveto
          -18 callsubr
          221 -542 rmoveto
          -65 callsubr
          -119 391 rmoveto
          -64 callsubr
          endchar
        </CharString>
        <CharString name="ebreve">
          -10 52 142 38 223 51 81 49 hstem
          69 58 306 58 vstem
          525 742 rmoveto
          19 callsubr
          -97 -665 rmoveto
          -65 callsubr
          -119 391 rmoveto
          -64 callsubr
          endchar
        </CharString>
        <CharString name="ecaron">
          -10 52 142 38 223 51 133 -20 hstem
          69 58 306 58 vstem
          349 567 rmoveto
          21 callsubr
          117 -513 rmoveto
          -65 callsubr
          -119 391 rmoveto
          -64 callsubr
          endchar
        </CharString>
        <CharString name="ecircumflex">
          -10 52 142 38 223 51 hstem
          69 58 306 58 vstem
          486 570 rmoveto
          -10 callsubr
          81 -638 rmoveto
          -65 callsubr
          -119 391 rmoveto
          -64 callsubr
          endchar
        </CharString>
        <CharString name="edieresis">
          -10 52 142 38 223 51 83.5 131 -128.5 131 hstemhm
          69 58 306 58 hintmask 10101110
          483 583 rmoveto
          -24 callsubr
          hintmask 11110110
          -152 -1 rmoveto
          -23 callsubr
          252 -525 rmoveto
          -65 callsubr
          -119 391 rmoveto
          -64 callsubr
          endchar
        </CharString>
        <CharString name="edotaccent">
          -10 52 142 38 223 51 84.5 131 hstem
          69 58 306 58 vstem
          377 581 rmoveto
          20 callsubr
          146 -526 rmoveto
          -65 callsubr
          -119 391 rmoveto
          -64 callsubr
          endchar
        </CharString>
        <CharString name="egrave">
          -10 52 142 38 223 51 hstem
          69 58 306 58 vstem
          458 588 rmoveto
          -73 callsubr
          22 -508 rmoveto
          -65 callsubr
          -119 391 rmoveto
          -64 callsubr
          endchar
        </CharString>
        <CharString name="eight">
          -11 50 450 -20 107 52 -9 9 hstemhm
          57 59 29 57 186 56 hintmask 11100110
          444 144 rmoveto
          0 67 -63 62 -62 60 54 33 69 39 86 46 rrcurveto
          -21 38 rlineto
          -89 -49 -73 -41 -58 -36 -46 46 -39 43 0 42 0 58 64 51 182 -42 rrcurveto
          hintmask 11010110
          17 58 rlineto
          hintmask 11100110
          -208 37 -112 -81 0 -91 0 -54 43 -50 50 -49 rrcurveto
          hintmask 11101110
          -149 -98 -32 -55 0 -58 rrcurveto
          -78 72 -53 104 vhcurveto
          122 89 71 84 hvcurveto
          -196 -105 rmoveto
          -75 -57 35 59 hvcurveto
          0 40 21 42 132 86 60 -55 59 -53 0 -54 rrcurveto
          -55 -59 -45 -81 vhcurveto
          endchar
        </CharString>
        <CharString name="eight.den">
          -220 41 201 -21 22 -21 147 43 hstemhm
          63 49 9 47 126 47 hintmask 10110110
          341 -116 rmoveto
          45 callsubr
          hintmask 11010110
          46 callsubr
          hintmask 10111110
          51 callsubr
          -140 -63 rmoveto
          42 callsubr
          endchar
        </CharString>
        <CharString name="eight.inf">
          -160 41 328 43 hstem
          75 49 9 47 126 47 vstem
          353 -56 rmoveto
          41 callsubr
          -140 -63 rmoveto
          42 callsubr
          endchar
        </CharString>
        <CharString name="eight.num">
          415 41 180 -20 21 -20 167 43 hstemhm
          177 49 9 47 126 47 hintmask 10110110
          455 519 rmoveto
          45 callsubr
          hintmask 11010110
          46 callsubr
          hintmask 10111110
          51 callsubr
          -140 -63 rmoveto
          42 callsubr
          endchar
        </CharString>
        <CharString name="eight.small">
          -10 41 328 43 hstem
          99 49 9 47 126 47 vstem
          377 94 rmoveto
          41 callsubr
          -140 -63 rmoveto
          42 callsubr
          endchar
        </CharString>
        <CharString name="eight.sup">
          323 41 279 -20 69 43 hstem
          158 49 9 47 126 47 vstem
          436 427 rmoveto
          41 callsubr
          -140 -63 rmoveto
          42 callsubr
          endchar
        </CharString>
        <CharString name="ellipsis">
          0 101 hstem
          33 106 77 106 77 106 vstem
          cntrmask 01110000
          484 hmoveto
          32 callsubr
          -98 hmoveto
          32 callsubr
          -98 hmoveto
          32 callsubr
          endchar
        </CharString>
        <CharString name="emacron">
          -10 52 142 38 223 51 127 51 hstem
          69 58 306 58 vstem
          533 674 rmoveto
          -21 callsubr
          -61 -569 rmoveto
          -65 callsubr
          -119 391 rmoveto
          -64 callsubr
          endchar
        </CharString>
        <CharString name="emdash">
          266 48 hstem
          71 450 vstem
          521 314 rmoveto
          -442 0 -8 -48 441 0 rlineto
          endchar
        </CharString>
        <CharString name="endash">
          266 48 hstem
          79 408 vstem
          487 314 rmoveto
          -399 0 -9 -48 400 0 rlineto
          endchar
        </CharString>
        <CharString name="eogonek">
          -207 45 152 52 -49 49 142 38 223 51 hstemhm
          69 58 47 57 202 58 hintmask 11011111
          389 -166 rmoveto
          -8 29 rlineto
          -108 -43 -42 18 0 34 0 51 76 64 156 67 rrcurveto
          -9 33 rlineto
          -220 -85 -107 39 0 138 rrcurveto
          5 vlineto
          231 17 133 70 0 113 rrcurveto
          69 -51 43 -83 -166 -122 -172 -153 vhcurveto
          hintmask 10111111
          0 -120 74 -77 140 19 -76 -48 -33 -45 0 -44 rrcurveto
          0 -58 75 -38 140 74 rrcurveto
          -45 611 rmoveto
          -64 callsubr
          endchar
        </CharString>
        <CharString name="equal">
          180 72 118 72 hstem
          81 388 vstem
          469 442 rmoveto
          -388 -72 388 hlineto
          -118 vmoveto
          -388 -72 388 hlineto
          endchar
        </CharString>
        <CharString name="eth">
          -11 50 369 49 186 -20 hstem
          60 60 318 59 vstem
          245 -11 rmoveto
          147 105 122 198 hvcurveto
          0 95 -30 88 -64 83 rrcurveto
          101 28 -10 40 -119 -33 rlineto
          -31 34 -36 33 -42 33 rrcurveto
          -44 -36 rlineto
          36 -27 30 -27 26 -27 rrcurveto
          -136 -38 12 -40 154 43 rlineto
          31 -37 22 -39 16 -39 -35 10 -34 4 -29 0 rrcurveto
          -149 -106 -127 -147 -115 72 -79 113 hvcurveto
          13 50 rmoveto
          -83 -55 64 94 111 75 100 103 hvcurveto
          33 0 50 -8 50 -23 5 -25 2 -27 0 -27 rrcurveto
          -150 -70 -109 -110 vhcurveto
          endchar
        </CharString>
        <CharString name="exclam">
          -11 134 566 -20 hstemhm
          208 134 -110 84.5 hintmask 11010000
          321 689 rmoveto
          -94 0 10 -462 75 0 rlineto
          hintmask 11100000
          -37 -104 rmoveto
          -107 callsubr
          endchar
        </CharString>
        <CharString name="exclamdown">
          524 96 hstem
          168 225 vstem
          303 620 rmoveto
          -20 -96 90 0 20 96 rlineto
          -114 -226 rmoveto
          -26 -116 -56 -211 -29 -122 rrcurveto
          78 hlineto
          22 122 27 211 24 116 rrcurveto
          endchar
        </CharString>
        <CharString name="f">
          -179 50 396 47.5 -33.5 34 328 61 hstemhm
          79 57 217 45 110 54 hintmask 11011110
          398 -6 rmoveto
          0 80 -60 97 -135 98 rrcurveto
          279 -4 8 49 -305 1 rlineto
          63 178 111 150 97 0 65 0 12 -69 -89 -99 rrcurveto
          25 -16 rlineto
          135 133 -24 112 -104 0 rrcurveto
          hintmask 10111110
          -132 0 -142 -181 -73 -208 rrcurveto
          -41 0 -9 -34 34 -17 rlineto
          -22 -73 -12 -75 0 -71 rrcurveto
          -157 68 -67 80 vhcurveto
          88 83 70 103 hvcurveto
          -150 -123 rmoveto
          -59 -53 46 131 hvcurveto
          0 64 10 67 18 66 134 -95 55 -90 0 -78 rrcurveto
          -69 -49 -42 -56 vhcurveto
          endchar
        </CharString>
        <CharString name="f.lig">
          -151 50 368 47.5 -33.5 34 328 61 hstemhm
          80 58 216 44 110 54 hintmask 11011110
          398 7 rmoveto
          0 77 -60 91 -134 94 rrcurveto
          278 -4 8 49 -306 1 rlineto
          62 175 112 153 98 0 65 0 12 -69 -89 -99 rrcurveto
          25 -16 rlineto
          135 133 -24 112 -104 0 rrcurveto
          hintmask 10111110
          -132 0 -144 -184 -72 -205 rrcurveto
          -40 0 -9 -34 rlineto
          hintmask 11011110
          32 -16 rlineto
          -20 -69 -11 -69 0 -64 rrcurveto
          -152 67 -62 80 vhcurveto
          88 83 64 94 hvcurveto
          -150 -108 rmoveto
          -59 -51 41 128 hvcurveto
          0 57 9 61 16 60 135 -90 56 -86 0 -70 rrcurveto
          -64 -50 -37 -56 vhcurveto
          endchar
        </CharString>
        <CharString name="five">
          -3 56 -32 -21 567 53 hstemhm
          409 56 hintmask 10110000
          465 192 rmoveto
          0 74 -63 71 -202 41 rrcurveto
          46 189 265 0 15 53 -322 0 -69 -282 rlineto
          208 -35 66 -59 0 -64 0 -72 -80 -77 -267 27 rrcurveto
          hintmask 01110000
          -7 -58 rlineto
          302 -26 108 114 0 104 rrcurveto
          endchar
        </CharString>
        <CharString name="five.den">
          -210 43 188 -21 142 43 hstem
          303 49 vstem
          352 -87 rmoveto
          37 callsubr
          endchar
        </CharString>
        <CharString name="five.inf">
          -150 43 309 43 hstem
          315 49 vstem
          364 -27 rmoveto
          37 callsubr
          endchar
        </CharString>
        <CharString name="five.num">
          425 43 167 -20 162 43 hstem
          417 49 vstem
          466 548 rmoveto
          37 callsubr
          endchar
        </CharString>
        <CharString name="five.small">
          0 43 309 43 hstem
          339 49 vstem
          388 123 rmoveto
          37 callsubr
          endchar
        </CharString>
        <CharString name="five.sup">
          333 43 309 43 hstem
          398 49 vstem
          447 456 rmoveto
          37 callsubr
          endchar
        </CharString>
        <CharString name="fiveeighths">
          -220 41 201 -21 22 -21 147 43 92 41 100 43 167 -20 162 43 hstemhm
          63 49 9 47 126 47 76 49 hintmask 1011111101110000
          466 548 rmoveto
          37 callsubr
          -402 -264 rmoveto
          -14 callsubr
          268 -441 rmoveto
          45 callsubr
          hintmask 1101111101110000
          46 callsubr
          hintmask 1011111111110000
          47 callsubr
          -140 -63 rmoveto
          42 callsubr
          endchar
        </CharString>
        <CharString name="fivesixths">
          -219 40 172 35 256 41 100 43 167 -20 162 43 hstem
          74 48 195 46 54 49 vstem
          466 548 rmoveto
          37 callsubr
          -402 -264 rmoveto
          -14 callsubr
          139 -544 rmoveto
          38 callsubr
          8 40 rmoveto
          39 callsubr
          endchar
        </CharString>
        <CharString name="four">
          0 191 -53 53 432 -20 23 -20 hstemhm
          57 441 hintmask 01011000
          482 138 rmoveto
          16 53 -78 0 44 227 -57 -5 -43 -222 -246 0 rlineto
          hintmask 01101000
          80 123 59 110 64 199 rrcurveto
          hintmask 01011000
          -64 3 rlineto
          -58 -193 -56 -116 -84 -139 rrcurveto
          -2 -40 297 0 rlineto
          hintmask 10011000
          -27 -138 56 0 rlineto
          hintmask 01011000
          27 138 rlineto
          endchar
        </CharString>
        <CharString name="four.den">
          -125 42 hstem
          61 316 vstem
          364 -125 rmoveto
          -13 callsubr
          endchar
        </CharString>
        <CharString name="four.inf">
          -65 42 hstem
          73 316 vstem
          376 -65 rmoveto
          -13 callsubr
          endchar
        </CharString>
        <CharString name="four.num">
          510 42 hstem
          175 316 vstem
          478 510 rmoveto
          -13 callsubr
          endchar
        </CharString>
        <CharString name="four.small">
          0 127 -42 42 hstemhm
          97 316 hintmask 01100000
          400 85 rmoveto
          13 42 -55 0 28 140 -48 -4 -26 -136 -163 0 rlineto
          53 76 39 70 41 124 rrcurveto
          -52 2 rlineto
          -38 -120 -37 -72 -54 -88 rrcurveto
          -4 -34 206 0 rlineto
          hintmask 10100000
          -16 -85 46 0 rlineto
          hintmask 01100000
          17 85 rlineto
          endchar
        </CharString>
        <CharString name="four.sup">
          418 42 hstem
          156 316 vstem
          459 418 rmoveto
          -13 callsubr
          endchar
        </CharString>
        <CharString name="fourfifths">
          -210 43 188 -21 142 43 99 41 185 42 hstem
          303 49 vstem
          478 510 rmoveto
          -13 callsubr
          -364 -226 rmoveto
          -14 callsubr
          279 -412 rmoveto
          37 callsubr
          endchar
        </CharString>
        <CharString name="fraction">
          -160 912 hstem
          -35 626 vstem
          11 -160 rmoveto
          580 885 -45 27 -581 -886 rlineto
          endchar
        </CharString>
        <CharString name="fraction.afrc">
          284 41 hstem
          64 441 vstem
          64 284 rmoveto
          -14 callsubr
          endchar
        </CharString>
        <CharString name="g">
          -173 55 -52 52 139 56 368 50 hstemhm
          62 58 255 43 hintmask 10111100
          205 77 rmoveto
          -48 -37 36 75 127 83 130 113 hvcurveto
          31 0 37 -10 41 -20 -23 -58 -23 -80 -10 -71 rrcurveto
          -49 -83 -60 -46 -55 0 rrcurveto
          213 -168 rmoveto
          -63 callsubr
          hintmask 01111100
          -62 callsubr
          endchar
        </CharString>
        <CharString name="gbreve">
          -173 55 -52 52 139 56 368 50 81 49 hstemhm
          62 58 255 43 hintmask 10111110
          518 741 rmoveto
          19 callsubr
          -348 -641 rmoveto
          23 callsubr
          213 -168 rmoveto
          -63 callsubr
          hintmask 01111110
          -62 callsubr
          endchar
        </CharString>
        <CharString name="gcommaaccent">
          -173 55 -52 52 139 56 368 50 hstemhm
          62 58 179 74 2 43 hintmask 10111100
          420 758 rmoveto
          25 callsubr
          -215 -681 rmoveto
          23 callsubr
          hintmask 10111010
          213 -168 rmoveto
          -63 callsubr
          hintmask 01111010
          -62 callsubr
          endchar
        </CharString>
        <CharString name="gdotaccent">
          -173 55 -52 52 139 56 368 50 84.5 131 hstemhm
          62 58 255 43 hintmask 10111110
          370 580 rmoveto
          20 callsubr
          -105 -502 rmoveto
          23 callsubr
          213 -168 rmoveto
          -63 callsubr
          hintmask 01111110
          -62 callsubr
          endchar
        </CharString>
        <CharString name="germandbls">
          -6 53 -47 47 601 51 hstemhm
          429 59 -47 59 hintmask 10110000
          200 -6 rmoveto
          212 -15 76 72 0 81 0 62 -55 69 -91 74 rrcurveto
          hintmask 01101000
          105 94 53 77 0 72 0 67 -40 52 -85 0 -112 0 -87 -88 -29 -147 rrcurveto
          -90 -464 59 0 90 468 rlineto
          23 116 55 64 75 0 54 0 28 -34 0 -46 0 -66 -49 -64 -123 -113 rrcurveto
          hintmask 10110000
          113 -89 47 -63 0 -51 0 -54 -58 -35 -163 18 rrcurveto
          endchar
        </CharString>
        <CharString name="grave">
          550 210 hstem
          154 217 vstem
          371 576 rmoveto
          -73 callsubr
          endchar
        </CharString>
        <CharString name="greater">
          530 -20 hstem
          415 72 vstem
          103 594 rmoveto
          -41 -64 353 -217 -353 -218 45 -62 380 237 0 86 rlineto
          endchar
        </CharString>
        <CharString name="greaterequal">
          20 50 hstem
          37 449 vstem
          421 350 rmoveto
          -2 -8 -335 -166 15 -48 378 189 9 48 -293 218 -31 -43 rlineto
          275 -470 rmoveto
          -391 0 -9 -50 391 0 rlineto
          endchar
        </CharString>
        <CharString name="guillemotleft">
          10 -21 507 -20 22 -20 hstemhm
          53 505 hintmask 10110000
          186 -11 rmoveto
          -22 callsubr
          364 -224 rmoveto
          50 31 -133 221 rlineto
          hintmask 11010000
          224 217 -39 38 -217 -219 -16 -63 rlineto
          endchar
        </CharString>
        <CharString name="guillemotleft.cap">
          57 509 hstem
          67 505 vstem
          200 57 rmoveto
          -22 callsubr
          364 -224 rmoveto
          50 31 -133 221 224 217 -39 38 -217 -219 -16 -63 rlineto
          endchar
        </CharString>
        <CharString name="guillemotright">
          10 -21 22 -21 507 -20 hstemhm
          11 505 hintmask 10110000
          286 -11 rmoveto
          -16 callsubr
          hintmask 01110000
          -197 -36 rmoveto
          -15 callsubr
          endchar
        </CharString>
        <CharString name="guillemotright.cap">
          57 508 hstem
          25 505 vstem
          300 57 rmoveto
          -16 callsubr
          -197 -36 rmoveto
          -15 callsubr
          endchar
        </CharString>
        <CharString name="guilsinglleft">
          5 -21 516 -20 hstem
          125 334 vstem
          319 -16 rmoveto
          33 callsubr
          endchar
        </CharString>
        <CharString name="guilsinglleft.cap">
          52 516 hstem
          139 334 vstem
          333 52 rmoveto
          33 callsubr
          endchar
        </CharString>
        <CharString name="guilsinglright">
          7 -21 516 -20 hstem
          84 335 vstem
          119 -14 rmoveto
          34 callsubr
          endchar
        </CharString>
        <CharString name="guilsinglright.cap">
          54 516 hstem
          98 335 vstem
          133 54 rmoveto
          34 callsubr
          endchar
        </CharString>
        <CharString name="h">
          -10 53 -22 -21 440 55 208 -20 hstemhm
          347 62 7 62 hintmask 10111000
          512 33 rmoveto
          -61 callsubr
          hintmask 01110100
          0 60 69 176 0 99 0 50 -23 40 -60 0 -62 0 -75 -40 -73 -80 rrcurveto
          63 328 -59 -5 -135 -698 58 0 62 320 rlineto
          72 80 67 40 48 0 37 0 18 -21 0 -40 rrcurveto
          hintmask 10110100
          0 -83 -69 -172 0 -77 rrcurveto
          0 -61 52 -22 113 69 rrcurveto
          endchar
        </CharString>
        <CharString name="hbar">
          -10 53 -22 -21 439 55 90 41 -41 119 hstemhm
          347 62 7 62 hintmask 10110100
          512 33 rmoveto
          -61 callsubr
          hintmask 10110010
          0 60 69 176 0 98 0 51 -23 39 -60 0 -62 0 -75 -40 -74 -80 rrcurveto
          41 210 140 0 8 41 -140 0 rlineto
          hintmask 10101010
          15 78 -59 -5 rlineto
          hintmask 01110010
          -14 -73 -75 0 -8 -41 75 0 -113 -584 58 0 62 319 rlineto
          72 81 67 39 48 0 37 0 18 -21 0 -39 rrcurveto
          hintmask 10110010
          0 -84 -69 -171 0 -77 rrcurveto
          0 -61 52 -22 113 69 rrcurveto
          endchar
        </CharString>
        <CharString name="hcoslug">
          -100 75 5 10 -6 10 -4 11 -10 10 -9 7 0 12 -11 11 -7 15 -15 26 -25 26 -15 8 -8 15 -12 12 0 14 -9 10 -10 19 -9 11 2 8 -7 32 71.5 22.5 514 -20 hstemhm
          50 64 10 16 -3 8 5 40 -35 12 -1 12 14 10 -2 10 -10 42 -31 9 -1 7 3 12 -6 11 9 40 -29 13 -9 10 0 12 -4 11 -2 12 -5 16 18 11 10 8 hintmask 000000100000000000010110000010000010000010010000
          500 700 rmoveto
          -450 hlineto
          hintmask 100000000000000000011010000000100000001000000000
          -800 450 vlineto
          -300 396 rmoveto
          0 -17 11 -11 17 -16 9 13 5 12 0 12 rrcurveto
          18 -9 11 -13 -12 -8 -9 -13 vhcurveto
          49 -64 rmoveto
          12 -12 9 -12 9 -11 15 25 3 18 -17 17 -7 -7 -10 -9 -14 -9 rrcurveto
          -39 -93 rmoveto
          12 0 9 3 8 6 -21 27 -21 22 -14 13 -8 -8 -4 -11 0 -11 0 -23 17 -18 22 0 rrcurveto
          91 34 rmoveto
          19 -22 13 -9 15 0 15 0 9 9 8 13 rrcurveto
          5 -1 rlineto
          -1 -44 -27 -27 -32 0 -22 0 -17 8 -25 26 -21 -23 -25 -11 -32 0 -45 0 -36 30 0 40 0 31 21 24 40 13 -16 17 -7 13 0 22 rrcurveto
          32 31 32 51 46 25 -30 -26 vhcurveto
          0 -10 -2 -8 -5 -7 20 0 15 -8 2 -20 12 18 14 10 19 0 rrcurveto
          21 16 -15 -24 -23 -16 -17 -21 hvcurveto
          -14 0 -12 7 -6 12 -12 -7 -12 -10 -11 -15 rrcurveto
          hintmask 000000000000000000010000000000000100000000000000
          -72 -105 rmoveto
          -8 10 -5 -10 vlineto
          hintmask 000000000000000010000000000000000100000000000000
          -15 vlineto
          -3 1 -1 2 vhcurveto
          2 0 1 1 1 4 rrcurveto
          4 -1 rlineto
          -2 -7 -3 -3 -6 0 rrcurveto
          -6 -3 4 6 hvcurveto
          hintmask 000000000000000001000000000000010000000000000000
          15 -5 5 5 7 vlineto
          hintmask 000000000000000100000000100000000000000000000000
          -75 -21 rmoveto
          48 callsubr
          hintmask 000000000000000100000010000000000000000000000000
          22 hmoveto
          49 callsubr
          hintmask 000000000000001000000000000000000000000100000000
          132 -1 rmoveto
          6 -2 4 -3 -5 -1 -5 -5 -6 1 -4 5 vhcurveto
          3 2 4 6 hvcurveto
          hintmask 000000000000000100000010000000000000000000000000
          -120 -9 rmoveto
          4 hlineto
          hintmask 000000000000000001000010000000000000000000000000
          19 -4 5 vlineto
          hintmask 000000000000000000010000000010000000000000000000
          13 -6 hlineto
          2 4 3 3 5 0 rrcurveto
          7 2 -5 -6 hvcurveto
          hintmask 000000000000000100000000000000010000000000000000
          -14 5 -5 vlineto
          hintmask 000000000010000000000000000010000000000000000000
          -17 5 3 hlineto
          hintmask 000000000000000001000000000010000000000000000000
          13 vlineto
          3 -1 3 -3 -3 -3 -3 -5 vhcurveto
          -11 3 -5 vlineto
          hintmask 000000000000000100000010000000000000000000000000
          -16 hlineto
          -71 5 rmoveto
          6 hlineto
          hintmask 000000000000000000100010000000000000000000000000
          31 -6 5 vlineto
          hintmask 000000000000000000010000001000000000000000000000
          38 hlineto
          hintmask 000000000000000001000000001000000000000000000000
          -15 -5 vlineto
          -2 8 -1 2 -6 0 rrcurveto
          -8 hlineto
          hintmask 000000000000000000100001000000000000000000000000
          -14 3 vlineto
          4 0 0 1 1 5 rrcurveto
          5 hlineto
          hintmask 000000000000000100000000100000000000000000000000
          -17 -5 vlineto
          -1 5 0 1 -4 0 rrcurveto
          -3 hlineto
          hintmask 000000000000000100000001000000000000000000000000
          -12 7 -5 vlineto
          hintmask 000000000000000100000010000000000000000000000000
          -23 hlineto
          hintmask 000000000000000010000000000000000100000000000000
          133 10 rmoveto
          5 hlineto
          3 -4 3 -3 3 0 3 0 1 2 0 1 rrcurveto
          hintmask 000000000000000000100000000000000100000000000000
          0 7 -18 -4 0 12 0 4 4 5 7 0 3 0 3 -1 2 -3 rrcurveto
          1 4 5 0 0 -10 -5 0 rlineto
          -3 4 -2 1 -3 0 -2 0 -2 -1 0 -2 rrcurveto
          hintmask 000000000010000000000000000000000000100000000000
          0 -5 18 2 0 -11 0 -5 -3 -4 -7 0 -5 0 -3 2 -2 2 rrcurveto
          -1 -3 -5 0 rlineto
          hintmask 000000000000000000100000000000000000100000000000
          38 38 rmoveto
          -5 5 hlineto
          hintmask 000000000000000000010000000000000000000100000000
          14 hlineto
          hintmask 000000000000000000100000000000000000000100000000
          -20 vlineto
          1 4 4 3 4 0 rrcurveto
          hintmask 000000000100000000000000000000000000000010000000
          7 5 -6 -9 -7 -3 -9 -9 hvcurveto
          -6 0 -3 2 -2 4 rrcurveto
          -3 -6 -4 0 rlineto
          hintmask 100000000000000000010000000000000000000010000000
          39 -6 rmoveto
          3 3 2 4 hvcurveto
          -3 7 -9 18 0 0 rrcurveto
          -3 5 18 -5 -4 hlineto
          7 -15 6 15 -4 0 0 5 13 0 0 -5 -4 0 rlineto
          hintmask 000000001000000000000000000000000000000010000000
          -10 -24 rlineto
          -3 -7 -4 -5 -6 0 rrcurveto
          -6 -3 3 4 3 2 2 3 hvcurveto
          5 0 1 -5 -2 -2 rrcurveto
          hintmask 000000010000000000000000000000000000000000000000
          45 -24 rmoveto
          -6 -4 vlineto
          -2 -4 -2 -3 -3 -3 2 -2 2 -2 1 0 1 0 1 1 1 3 rrcurveto
          3 -1 rlineto
          -1 -5 -2 -4 -6 0 rrcurveto
          hintmask 100000000000000000000000000000000000000001000000
          -4 0 -2 2 -3 3 -3 -3 -4 -2 -6 0 -7 0 -5 4 0 6 0 6 4 3 6 2 -3 3 -2 3 0 4 rrcurveto
          hintmask 000000000001000000000000000000000000000000100000
          5 4 6 9 6 4 -4 -5 vhcurveto
          0 -5 -3 -2 -5 -3 2 -2 4 -5 3 -3 2 2 2 3 1 2 rrcurveto
          -5 6 hlineto
          hintmask 000000000100000000000000000000000010000000000000
          -114 4 rmoveto
          11 4 hlineto
          -3 -2 2 2 2 1 1 0 hvcurveto
          0 -1 1 -2 -2 -2 -2 -6 vhcurveto
          hintmask 100000000000000000000000000000000000000000010000
          132 -13 rmoveto
          hintmask 000100000000000000000000000000000000000000010000
          15 9 8 11 vhcurveto
          hintmask 000100000000000000000000000000000000000000000000
          5 0 4 -2 3 -3 rrcurveto
          4 6 -16 -6 vlineto
          hintmask 000000100000000000000000000000000000000000000000
          -3 9 -2 3 -6 0 rrcurveto
          -6 -4 -5 -12 hvcurveto
          hintmask 010000000000000000000000000000000000000000000000
          -11 4 -6 8 vhcurveto
          hintmask 000010000000000000000000000000000000000000000000
          6 0 3 6 1 6 rrcurveto
          6 hlineto
          hintmask 100000000000000000000000000000000000000000000000
          -1 -10 -6 -7 -11 0 rrcurveto
          -13 -8 7 14 hvcurveto
          hintmask 000000100000000000000000000000000000000000100000
          -29 4 rmoveto
          2 1 2 3 0 3 rrcurveto
          3 -2 2 -3 -2 -2 -1 -3 vhcurveto
          0 -2 2 -3 3 -3 rrcurveto
          hintmask 010000000000000000000000000000000000010000000000
          -68 -11 rmoveto
          50 callsubr
          hintmask 100000000000000000000000000000000000010000000000
          -1 -6 -4 -5 -8 0 rrcurveto
          -10 -6 6 9 hvcurveto
          hintmask 000000000010000000000000000000000000010000000000
          10 7 6 8 vhcurveto
          11 0 4 -7 -1 -10 rrcurveto
          hintmask 010000000000000000000000000001000000000000000000
          -89 hmoveto
          50 callsubr
          hintmask 100000000000000000000000000000001000000000000000
          -1 -6 -4 -5 -8 0 rrcurveto
          hintmask 100000000000000000000000010000000000000000000000
          -10 -6 6 9 hvcurveto
          hintmask 000000000010000000000000010000000000000000000000
          10 7 6 8 vhcurveto
          hintmask 000000000010000000000000000000001000000000000000
          11 0 4 -7 -1 -10 rrcurveto
          hintmask 010000000000000000000010000001000000000000000000
          -63 2 rmoveto
          48 callsubr
          252 hmoveto
          hintmask 010000000000000000000000000000000000000000000000
          9 7 6 9 9 7 -6 -9 vhcurveto
          hintmask 010000000000000000000010000001000000000000000000
          -9 -7 -7 -9 -9 -7 6 10 vhcurveto
          hintmask 000001000000000000000000000001000000010000000000
          -138 2 rmoveto
          10 hlineto
          6 -1 3 -4 vhcurveto
          -3 -2 -2 -7 hvcurveto
          -70 hmoveto
          10 hlineto
          6 -1 3 -4 -3 -2 -2 -7 vhcurveto
          hintmask 010000000000000000000000000100000000000000000000
          -22 -2 rmoveto
          49 callsubr
          hintmask 010000000000000000000000000000000000000000000000
          252 hmoveto
          49 callsubr
          hintmask 100000000000000000000000000000001000000000000000
          -208 -10 rmoveto
          4 hlineto
          hintmask 000001000000000000000000000000001000000000000000
          19 -5 5 5 1 vlineto
          hintmask 000000000000010000000000000000001000000000000000
          10 7 4 6 vhcurveto
          4 0 2 -1 2 -1 rrcurveto
          8 2 rlineto
          hintmask 010000000000000000000000000000000000100000000000
          -39 4 -5 vlineto
          hintmask 100000000000000000000000000000000010000000000000
          -17 5 4 hlineto
          hintmask 000001000000000000000000000000000010000000000000
          19 -11 vlineto
          hintmask 010000000000000000000000000000000010000000000000
          -19 4 -5 vlineto
          hintmask 100000000000000000000000000000001000000000000000
          -17 hlineto
          hintmask 100000000000000000000000000000000001000000000000
          69 5 rmoveto
          4 hlineto
          hintmask 000001000000000000000000000000000001000000000000
          19 -4 5 vlineto
          hintmask 000000000010000000000000000000000000000001000000
          13 -6 hlineto
          2 5 3 2 4 0 rrcurveto
          4 2 -2 -4 -3 -2 -2 -3 -2 -3 1 3 hvcurveto
          1 vlineto
          -1 0 -3 -3 -1 -4 rrcurveto
          hintmask 010000000000000000000000000000000000000001000000
          -12 6 -5 vlineto
          hintmask 100000000000000000000000000000000001000000000000
          -19 hlineto
          hintmask 100000000000000000000010000000000000000000000000
          -183 5 rmoveto
          6 hlineto
          hintmask 000000100000000000000010000000000000000000000000
          31 -6 5 vlineto
          hintmask 000000000000100000000001000000000000000000000000
          21 -5 -5 hlineto
          hintmask 000000100000000000000001000000000000000000000000
          -12 16 12 -5 5 vlineto
          hintmask 000000000000100000000000000100000000000000000000
          21 -5 -6 hlineto
          hintmask 010000000000000000000000000100000000000000000000
          -31 6 -5 vlineto
          hintmask 100000000000000000000001000000000000000000000000
          -21 5 5 hlineto
          hintmask 001000000000000000000001000000000000000000000000
          14 -16 vlineto
          hintmask 010000000000000000000001000000000000000000000000
          -14 5 -5 vlineto
          hintmask 100000000000000000000010000000000000000000000000
          -21 hlineto
          hintmask 001000000000000000000000000000000000000000100000
          234 7 rmoveto
          -2 2 -4 5 -4 4 -2 -2 -1 -2 0 -3 0 -4 3 -3 4 0 rrcurveto
          2 0 2 1 2 2 rrcurveto
          hintmask 100000000000000000000000000000000000000000000000
          111 -2 rmoveto
          -3 -2 -3 -4 -4 -2 3 3 3 2 3 4 vhcurveto
          4 2 -3 -3 hvcurveto
          endchar
        </CharString>
        <CharString name="hungarumlaut">
          557 213 hstem
          131 406 vstem
          157 557 rmoveto
          26 callsubr
          234 -21 rmoveto
          27 callsubr
          endchar
        </CharString>
        <CharString name="hyphen">
          277 72 hstem
          75 400 vstem
          75 277 rmoveto
          400 72 -400 hlineto
          endchar
        </CharString>
        <CharString name="i">
          -10 54 386 55 0 -20 104 133 hstemhm
          176 61 hintmask 10111000
          356 571 rmoveto
          38 131 -68 -3 -30 -132 rlineto
          171 -526 rmoveto
          -60 callsubr
          hintmask 11011000
          -59 callsubr
          endchar
        </CharString>
        <CharString name="iacute">
          -10 54 386 55 0 -20 240 -20 hstemhm
          176 61 hintmask 10111000
          213 585 rmoveto
          -18 callsubr
          254 -544 rmoveto
          -60 callsubr
          hintmask 11011000
          -59 callsubr
          endchar
        </CharString>
        <CharString name="ibreve">
          -10 54 386 55 0 -20 101 49 hstemhm
          176 61 hintmask 10111000
          496 731 rmoveto
          19 callsubr
          -64 -667 rmoveto
          -60 callsubr
          hintmask 11011000
          -59 callsubr
          endchar
        </CharString>
        <CharString name="icircumflex">
          -10 54 386 55 0 -20 hstemhm
          176 61 hintmask 10110000
          456 559 rmoveto
          -10 callsubr
          115 -640 rmoveto
          -60 callsubr
          hintmask 11010000
          -59 callsubr
          endchar
        </CharString>
        <CharString name="idieresis">
          -10 54 386 55 0 -20 103.5 131.5 -129 132 hstemhm
          176 61 hintmask 10101100
          454 572 rmoveto
          -24 callsubr
          hintmask 10110100
          -152 -1 rmoveto
          -23 callsubr
          285 -527 rmoveto
          -60 callsubr
          hintmask 11010100
          -59 callsubr
          endchar
        </CharString>
        <CharString name="igrave">
          -10 54 386 55 0 -20 hstemhm
          176 61 hintmask 10110000
          429 577 rmoveto
          -73 callsubr
          55 -510 rmoveto
          -60 callsubr
          hintmask 11010000
          -59 callsubr
          endchar
        </CharString>
        <CharString name="imacron">
          -10 54 386 55 0 -20 147 51 hstemhm
          176 61 hintmask 10111000
          503 663 rmoveto
          -21 callsubr
          -27 -571 rmoveto
          -60 callsubr
          hintmask 11011000
          -59 callsubr
          endchar
        </CharString>
        <CharString name="iogonek">
          -207 45 152 54 386 55 0 -20 104 133 hstemhm
          157 57 -38 61 hintmask 11011010
          356 571 rmoveto
          38 131 -68 -3 -30 -132 rlineto
          hintmask 11011100
          76 -733 rmoveto
          -8 29 rlineto
          -107 -43 -43 18 0 34 0 40 42 50 211 79 rrcurveto
          -8 35 rlineto
          hintmask 11011010
          -206 -58 -33 22 24 92 rrcurveto
          92 352 -54 1 rlineto
          hintmask 11101010
          -205 -52 4 -33 183 30 -80 -307 rlineto
          -23 -89 23 -48 92 4 rrcurveto
          hintmask 11011100
          -88 -46 -31 -45 0 -43 rrcurveto
          0 -58 75 -38 140 74 rrcurveto
          endchar
        </CharString>
        <CharString name="j">
          -174 59 547 53 0 -20 104 134 hstemhm
          321 19.72 hintmask 10111000
          413 571 rmoveto
          40 132 -67 -3 -34 -133 rlineto
          -345 -741 rmoveto
          187 1 55 12 34 34 63 64 -63 170 110 377 rrcurveto
          -53 1 rlineto
          hintmask 11011000
          -214 -43 6 -32 189 22 rlineto
          -87 -334 48 -151 -41 -41 -20 -20 -25 -4 -185 3 rrcurveto
          endchar
        </CharString>
        <CharString name="k">
          16 -21 26 -21 26 -21 435 55 208 -20 hstemhm
          446 64 hintmask 10011100
          418 -5 rmoveto
          hintmask 00111100
          -58 callsubr
          hintmask 01011100
          -57 callsubr
          endchar
        </CharString>
        <CharString name="kcommaaccent">
          16 -21 26 -21 26 -21 435 55 208 -20 hstemhm
          209 73 164 64 hintmask 10011110
          418 -5 rmoveto
          hintmask 00111110
          -58 callsubr
          hintmask 01011110
          -57 callsubr
          -60 -464 rmoveto
          24 callsubr
          endchar
        </CharString>
        <CharString name="l">
          -7 49 604 59 hstem
          132 59 282 57 vstem
          455 65 rmoveto
          -56 callsubr
          -33 581 rmoveto
          -55 callsubr
          endchar
        </CharString>
        <CharString name="l.ultra">
          -6 51 601 59 hstem
          125 60 281 57 vstem
          448 65 rmoveto
          -14 33 rlineto
          -153 -81 -83 7 -12 125 243 179 94 162 0 116 rrcurveto
          63 -32 36 -56 -134 -176 -267 -270 vhcurveto
          0 -191 124 -33 199 121 rrcurveto
          -33 581 rmoveto
          31 20 -22 -41 hvcurveto
          0 -90 -73 -137 -208 -163 5 232 132 221 93 0 rrcurveto
          endchar
        </CharString>
        <CharString name="lacute">
          -7 49 604 59 hstem
          132 59 282 57 vstem
          385 803 rmoveto
          -18 callsubr
          70 -738 rmoveto
          -56 callsubr
          -33 581 rmoveto
          -55 callsubr
          endchar
        </CharString>
        <CharString name="lcaron">
          -7 49 604 59 hstem
          132 59 282 57 100 73 vstem
          630 798 rmoveto
          22 callsubr
          -248 -737 rmoveto
          -56 callsubr
          -33 581 rmoveto
          -55 callsubr
          endchar
        </CharString>
        <CharString name="lcommaaccent">
          -7 49 604 59 hstem
          132 59 43 73 166 57 vstem
          455 65 rmoveto
          -56 callsubr
          -33 581 rmoveto
          -55 callsubr
          -235 -913 rmoveto
          24 callsubr
          endchar
        </CharString>
        <CharString name="ldot">
          -7 49 226 95 283 59 hstem
          132 59 282 57 vstem
          455 65 rmoveto
          -56 callsubr
          -33 581 rmoveto
          -55 callsubr
          160 -378 rmoveto
          21 95 -77 0 -22 -95 rlineto
          endchar
        </CharString>
        <CharString name="less">
          530 -20 hstem
          62 72 vstem
          446 594 rmoveto
          -384 -237 0 -87 380 -237 45 61 -353 219 353 217 rlineto
          endchar
        </CharString>
        <CharString name="lessequal">
          20 50 hstem
          37 470 vstem
          172 349 rmoveto
          335 187 -18 46 -374 -211 -11 -50 306 -190 29 44 -268 166 rlineto
          266 -271 rmoveto
          -391 0 -9 -50 391 0 rlineto
          endchar
        </CharString>
        <CharString name="lig.1">
          -11 68 296 67 216 63 hstemhm
          -454.66699 75.16699 -42.16699 75.16699 215.41699 70.58301 64.16699 75.16602 -42.16602 75.16602 215.41699 70.58301 hintmask 1110110110000000
          225.5 420 rmoveto
          -64.16699 -49.5 53 61 59 32.08398 43 65.08301 hvcurveto
          45.83301 0 30.25 -19 32.08398 -39 rrcurveto
          45.83301 46 rlineto
          -50.41699 61 -47.66602 14 -55 0 -107.25 0 -66 -77 0 -88 0 -43 12.83301 -42 35.75 -29 rrcurveto
          -318.08301 hlineto
          -64.16699 -49.5 53 61 59 32.08301 43 65.08398 hvcurveto
          45.83301 0 30.25 -19 32.08301 -39 rrcurveto
          45.83398 46 rlineto
          -50.41699 61 -47.66699 14 -55 0 -107.25 0 -66 -77 0 -88 0 -62 27.5 -61 82.5 -21 rrcurveto
          -3 vlineto
          hintmask 1111011010000000
          -91.66602 -21 -51.33398 -68 0 -103 0 -103 61.41699 -103 143 0 105.41699 0 56.83301 54 27.5 38 rrcurveto
          272 132 vlineto
          -44 -34 -23.83301 -54 0 -70 0 -103 61.41602 -103 143 0 105.41699 0 56.83301 54 27.5 38 rrcurveto
          272 82.5 67 vlineto
          -611.41602 -311 rmoveto
          -24.75 -34 -42.16699 -18 -50.41699 0 rrcurveto
          -92.58301 -38.5 68 73 71 40.33301 84 94.41699 hvcurveto
          113.66699 hlineto
          458.33301 -244 rmoveto
          -24.75 -34 -42.16699 -18 -50.41602 0 rrcurveto
          -92.58398 -38.5 68 73 71 40.33398 84 94.41602 hvcurveto
          113.66699 hlineto
          endchar
        </CharString>
        <CharString name="lig.10">
          34.83301 -103 rmoveto
          56 callsubr
          -253 675 rmoveto
          57 callsubr
          endchar
        </CharString>
        <CharString name="lig.100">
          26 -21 626 -20 hstemhm
          -314.41699 81.58398 -71.5 61.41602 hintmask 11100000
          -314.41699 631 rmoveto
          hintmask 11010000
          10.08398 -261 -223.66699 89 -27.5 -85 231.91699 -68 -139.33398 -197 68.75 -52 121.91699 210 135.66699 -216 66.91602 56 -152.16602 199 227.33301 69 -22.91699 84 -225.5 -88 rlineto
          hintmask 11100000
          10.08398 260 rlineto
          -305.25 -12 rmoveto
          106 callsubr
          527.08301 89 rmoveto
          107 callsubr
          endchar
        </CharString>
        <CharString name="lig.101">
          -292.41699 69.66699 296.08301 69.66699 vstem
          -292.41699 712 rmoveto
          -528.91602 -356 0 -86 528.91602 -359 69.66699 0 0 801 rlineto
          296.08301 hmoveto
          108 callsubr
          -435.41699 -711 rmoveto
          -462.91602 312 462.91602 310 rlineto
          endchar
        </CharString>
        <CharString name="lig.102">
          5 -21 657 -20 hstem
          -309.83301 68.75 vstem
          -241.08301 724 rmoveto
          -68.75 -826 68.75 hlineto
          -174.16699 743 rmoveto
          -420.75 -284 0 -87 420.75 -286 0 90 -354.75 239 354.75 239 rlineto
          279.58301 89 rmoveto
          0 -89 356.58398 -239 -356.58398 -240 0 -90 422.58398 287 0 86 rlineto
          endchar
        </CharString>
        <CharString name="lig.103">
          -57 77 616 66 hstem
          -462.91699 81.58398 86.16602 62.33398 115.5 83.41602 vstem
          -11 619 rmoveto
          -62.33301 44 -87.08398 31 -72.41602 8 rrcurveto
          146 -62.33398 -145 vlineto
          -112.75 -12 -55 -83 0 -80 0 -93 60.5 -59 107.25 -39 rrcurveto
          -317 vlineto
          -60.5 -4 -47.66602 8 -107.25 70 rrcurveto
          -323.58398 219 272.25 181 13.75 100 -352 -237 0 -87 389.58398 -265 rlineto
          90.75 -53 44.91602 -12 79.75 3 rrcurveto
          -96 62.33398 98 vlineto
          113.66602 18 85.25 88 0 126 0 124 -107.25 67 -91.66602 33 rrcurveto
          235 vlineto
          45.83301 -6 66 -23 110 -77 rrcurveto
          323.58301 -217 -253 -168 -20.16602 -108 339.16602 233 0 86 rlineto
          -673.75 67 rmoveto
          -66.91602 29 -19.25 30 0 47 0 57 36.66602 39 49.5 9 rrcurveto
          177.83398 -457 rmoveto
          67 callsubr
          endchar
        </CharString>
        <CharString name="lig.104">
          27 -21 174 72 118 72 hstem
          433.58301 370 rmoveto
          72 -1275.08301 vlineto
          27.5 18 15.58301 17 13.75 17 rrcurveto
          57.75 68 -57.75 54 -248.41602 -305 248.41602 -305 57.75 54 -57.75 69 rlineto
          -13.75 17 -15.58301 16 -27.5 18 rrcurveto
          1275.08301 72 -1321.83301 hlineto
          -48.58301 59 48.58301 59 rlineto
          endchar
        </CharString>
        <CharString name="lig.105">
          27 -21 174 72 118 72 hstem
          234.66699 616 rmoveto
          -57.75 -54 57.75 -68 rlineto
          13.75 -17 15.58301 -17 27.5 -18 rrcurveto
          -1133 hlineto
          27.5 18 15.58301 17 13.75 17 rrcurveto
          57.75 68 -57.75 54 -248.41602 -305 248.41602 -305 57.75 54 -57.75 69 rlineto
          -13.75 17 -15.58301 16 -27.5 18 rrcurveto
          1133 hlineto
          -27.5 -18 -15.58301 -16 -13.75 -17 rrcurveto
          -57.75 -69 57.75 -54 248.41602 305 rlineto
          -1371.33301 -59 rmoveto
          -48.58301 59 48.58301 59 1226.5 0 48.58301 -59 -48.58301 -59 rlineto
          endchar
        </CharString>
        <CharString name="lig.106">
          27 -21 174 72 118 72 hstem
          -842.41699 252 rmoveto
          -48.58301 59 48.58301 59 1101.83398 0 160.41602 192 -57.75 54 -141.16602 -174 -1016.58398 0 rlineto
          27.5 18 15.58398 17 13.75 17 rrcurveto
          57.75 68 -57.75 54 -248.41699 -305 248.41699 -305 57.75 54 -57.75 69 rlineto
          -13.75 17 -15.58398 16 -27.5 18 rrcurveto
          1016.58398 0 141.16602 -174 57.75 54 -160.41602 192 rlineto
          endchar
        </CharString>
        <CharString name="lig.107">
          276 74 268 -20 hstem
          188.83301 618 rmoveto
          -57.75 -54 131.08398 -156 rlineto
          25.66602 -31 6.41699 -9 26.58301 -18 rrcurveto
          -1191.66602 hlineto
          26.58301 18 6.41699 9 25.66602 31 rrcurveto
          131.08398 156 -57.75 54 -248.41699 -305 248.41699 -305 57.75 54 -131.08398 156 rlineto
          -18.33301 22 -18.33301 20 -22 16 rrcurveto
          1191.66602 hlineto
          -22 -16 -18.33301 -20 -18.33301 -22 rrcurveto
          -131.08398 -156 57.75 -54 248.41699 305 rlineto
          endchar
        </CharString>
        <CharString name="lig.108">
          276 74 268 -20 hstem
          -738.83301 618 rmoveto
          -248.41699 -305 248.41699 -305 57.75 54 -131.08398 156 rlineto
          -18.33301 22 -18.33301 20 -22 16 rrcurveto
          1306.25 74 -1306.25 hlineto
          26.58301 18 6.41699 9 25.66602 31 rrcurveto
          131.08398 156 rlineto
          endchar
        </CharString>
        <CharString name="lig.109">
          276 74 268 -20 hstem
          418.91699 564 rmoveto
          -57.75 54 -218.16699 -268 -1028.5 0 rlineto
          25.66699 18 7.33301 9 25.66699 31 rrcurveto
          137.5 163 -50.41699 47 -249.33301 -305 249.33301 -305 50.41699 47 -137.5 163 rlineto
          -18.33398 22 -18.33301 20 -22 16 rrcurveto
          1028.5 0 218.16699 -268 57.75 54 -209.91699 251 rlineto
          endchar
        </CharString>
        <CharString name="lig.11">
          -199.83301 68.75 261.25 68.75 vstem
          -131.08301 807 rmoveto
          58 callsubr
          330 909 rmoveto
          58 callsubr
          endchar
        </CharString>
        <CharString name="lig.110">
          27 -21 174 72 118 72 hstem
          -681.08301 562 rmoveto
          104 callsubr
          1324.58301 59 rmoveto
          72 -997.33301 vlineto
          27.5 18 15.58301 17 13.75 17 rrcurveto
          57.75 68 -57.75 54 -248.41602 -305 248.41602 -305 57.75 54 -57.75 69 rlineto
          -13.75 17 -15.58301 16 -27.5 18 rrcurveto
          997.33301 72 -1044.08301 hlineto
          -48.58301 59 48.58301 59 rlineto
          endchar
        </CharString>
        <CharString name="lig.111">
          276 74 268 -20 hstem
          -738.83301 618 rmoveto
          102 callsubr
          220.91602 54 rmoveto
          -249.33301 -305 249.33301 -305 56.83398 54 -131.08398 156 rlineto
          -17.41602 22 -18.33398 20 -22.91602 16 rrcurveto
          1028.5 74 -1027.58398 hlineto
          25.66699 18 7.33301 9 24.75 31 rrcurveto
          131.08398 156 rlineto
          endchar
        </CharString>
        <CharString name="lig.112">
          -523.41699 582 rmoveto
          80 callsubr
          428.08398 65 rmoveto
          79 callsubr
          428.08301 65 rmoveto
          79 callsubr
          endchar
        </CharString>
        <CharString name="lig.113">
          26 -21 271 70 273 -20 hstem
          -311.66699 71.5 vstem
          -538.08301 619 rmoveto
          106 callsubr
          527.08301 89 rmoveto
          107 callsubr
          -618.75 239 rmoveto
          -71.5 -249 -223.66602 -70 223.66602 -249 71.5 249 225.5 70 -225.5 hlineto
          endchar
        </CharString>
        <CharString name="lig.114">
          -93.5 675 rmoveto
          44.91699 102 -61.41699 32 -343.75 -772 -407.91699 276 323.58398 217 -37.58398 64 -352 -237 0 -87 443.66699 -301 -38.5 -87 62.33301 -30 336.41699 755 436.33301 -294 -323.58301 -218 41.25 -62 rlineto
          348.33301 237 0 86 rlineto
          endchar
        </CharString>
        <CharString name="lig.115">
          21 -21 170 64 222 66 hstem
          501.41699 456 rmoveto
          66 -73.33398 vlineto
          21.08398 167 -65.08398 0 -21.08301 -167 -133.83301 0 21.08301 167 -65.08301 0 -21.08398 -167 -286 0 21.08398 167 -65.08398 0 -21.08301 -167 -133.83301 0 21.08301 167 -65.08301 0 -21.08398 -167 rlineto
          -286 0 21.08398 167 -65.08398 0 -21.08301 -167 -133.83301 0 21.08301 167 -65.08301 0 -21.08398 -167 -81.58301 0 0 -66 74.25 0 -28.41699 -222 -79.75 0 0 -64 72.41699 0 rlineto
          -20.16699 -170 65.08398 0 21.08301 170 132.91699 0 -20.16699 -170 65.08301 0 19.25 170 286.91699 0 -20.16699 -170 65.08398 0 21.08301 170 132.91699 0 -20.16699 -170 65.08301 0 19.25 170 rlineto
          286.91699 0 -20.16699 -170 65.08398 0 21.08301 170 132.91699 0 -20.16699 -170 65.08301 0 19.25 170 83.41699 0 0 64 -74.25 0 26.58301 222 rlineto
          -1192.58301 -222 rmoveto
          60 callsubr
          322.66602 -222 rmoveto
          85 callsubr
          170.5 -222 rmoveto
          60 callsubr
          322.66602 -222 rmoveto
          85 callsubr
          170.5 -222 rmoveto
          60 callsubr
          endchar
        </CharString>
        <CharString name="lig.116">
          -182 74 129 -21 170 64 222 66 hstem
          114.58301 80.66699 vstem
          429.91699 -139 rmoveto
          -134.75 120 -106.33398 148 6.41699 221 6.41699 210 56.83301 106 132 128 rrcurveto
          -39.41699 46 rlineto
          -149.41602 -133 -89.83398 -129 2.75 -228 1.83398 -209 83.41602 -140 111.83398 -109 rrcurveto
          -1003.75 0 31.16602 278 83.41699 0 0 64 -74.25 0 26.58301 222 81.58398 0 0 66 -73.33398 0 21.08398 167 -65.08398 0 -21.08301 -167 -133.83301 0 21.08301 167 -65.08301 0 rlineto
          -21.08398 -167 -81.58301 0 0 -66 74.25 0 -28.41699 -222 -79.75 0 0 -64 72.41699 0 -20.16699 -170 65.08398 0 21.08301 170 132.91699 0 -41.25 -352 1160.5 1 0 1 rlineto
          0.91602 -1 rlineto
          -1245.75 415 rmoveto
          86 callsubr
          endchar
        </CharString>
        <CharString name="lig.117">
          180 72 -65 243 -60 72 hstemhm
          -936.83301 223.66602 188.83398 223.66602 hintmask 00111000
          452.83301 442 rmoveto
          -550 -72 550 hlineto
          hintmask 01011000
          -1277.83301 -183 rmoveto
          64.16699 47.66602 51 70 70 -47.66602 52 -64.16699 -64.16699 -47.66602 -51 -70 hvcurveto
          -70 47.66602 -52 64.16699 vhcurveto
          412.5 hmoveto
          64.16699 47.66602 51 70 70 -47.66602 52 -64.16699 -64.16699 -47.66602 -51 -70 -70 47.66602 -52 64.16699 hvcurveto
          hintmask 10011000
          865.33301 65 rmoveto
          -550 -72 550 hlineto
          endchar
        </CharString>
        <CharString name="lig.118">
          -11 176 hstem
          -732.41699 161.33398 168.66602 161.33398 vstem
          249.33301 594 rmoveto
          105 callsubr
          -1019.33398 -453 rmoveto
          109 callsubr
          330 hmoveto
          109 callsubr
          endchar
        </CharString>
        <CharString name="lig.119">
          -11 176 hstem
          -722.33301 161.33301 205.33301 161.33398 205.33301 161.33301 vstem
          cntrmask 01110000
          -722.33301 77 rmoveto
          88 callsubr
          366.66602 hmoveto
          109 callsubr
          366.66699 hmoveto
          -50 34.83301 -38 45.83398 46.75 33.91602 38 50 49 -33.91602 39 -46.75 -45.83398 -34.83301 -39 -49 vhcurveto
          endchar
        </CharString>
        <CharString name="lig.12">
          -138 66 388 68 388 66 hstem
          -267.66699 68.75 417.08398 71.5 vstem
          cntrmask 11100000
          -267.66699 838 rmoveto
          -976 68.75 976 vlineto
          320.83398 hmoveto
          -253 -66 253 hlineto
          66.91602 29.33398 -16 -61 hvcurveto
          -211 vlineto
          0 -84 22.91602 -37 62.33398 -13 -64.16699 -13 -21.08301 -33 0 -88 rrcurveto
          -208 vlineto
          -63 -28.41699 -17 -67.83301 vhcurveto
          -253 -66 253 hlineto
          102.66602 65.08398 33 123 hvcurveto
          192 vlineto
          69 15.58301 37 122.83301 vhcurveto
          68 vlineto
          -122.83301 -15.58301 36 68 hvcurveto
          -0.91699 199 rlineto
          -0.91699 124 -63.25 27 -102.66602 0 rrcurveto
          endchar
        </CharString>
        <CharString name="lig.120">
          276 70 hstem
          -770 71.5 386.83301 71.5 386.83398 71.5 vstem
          -240.16699 276 rmoveto
          386.83398 -199 71.5 199 179.66602 70 -179.66602 199 -71.5 -199 -386.83398 199 -71.5 -199 -386.83301 hlineto
          199 -71.5 -199 -177.83301 -70 177.83301 -199 71.5 199 386.83301 -199 71.5 vlineto
          endchar
        </CharString>
        <CharString name="lig.121">
          180 72 118 72 hstem
          -943.25 -103 rmoveto
          93 callsubr
          862.58301 515 rmoveto
          94 callsubr
          595.83301 72 rmoveto
          -528 -72 528 hlineto
          -595.83301 -118 rmoveto
          95 callsubr
          595.83301 72 rmoveto
          -528 -72 528 hlineto
          endchar
        </CharString>
        <CharString name="lig.122">
          -897.41699 -103 rmoveto
          56 callsubr
          520.66699 -30 rmoveto
          390.5 880 -61.41699 32 -391.41699 -882 rlineto
          520.66699 -30 rmoveto
          93 callsubr
          endchar
        </CharString>
        <CharString name="lig.123">
          -182 74 hstem
          -309.83301 68.75 vstem
          -241.08301 -108 rmoveto
          832 -68.75 -832 -606.83398 -74 1283.33398 74 vlineto
          endchar
        </CharString>
        <CharString name="lig.124">
          -11 134 hstemhm
          -841.5 122.83301 -105.41602 86.16602 -77 68.75 408.83398 122.83301 -105.41699 86.16699 -77 68.75 410.66699 122.83301 hintmask 10100001
          -737.91699 689 rmoveto
          -86.16602 0 rlineto
          hintmask 10010001
          9.16602 -462 68.75 0 rlineto
          hintmask 10000101
          512.41699 462 rmoveto
          69 callsubr
          hintmask 10000011
          70 callsubr
          -538.08301 -104 rmoveto
          hintmask 11000001
          90 callsubr
          504.16602 hmoveto
          hintmask 10001001
          71 callsubr
          505.08398 hmoveto
          -34.83398 -25.66602 -30 -37 -38 25.66602 -29 34.83398 35.75 26.58301 29 38 37 -26.58301 30 -35.75 hvcurveto
          endchar
        </CharString>
        <CharString name="lig.125">
          21 -21 hstem
          -1010.16699 78.83398 1316.33301 75.16699 vstem
          385 527 rmoveto
          -61.41699 -475 -72.41602 408 -90.75 0 -87.08398 -408 -64.16602 408 -92.58398 0 -71.5 -408 -69.66602 408 -91.66699 0 -75.16699 -408 -71.5 408 -92.58301 0 -75.16699 -408 -71.5 408 -90.75 0 rlineto
          -77 -408 -61.41602 475 -78.83398 0 88 -527 106.33398 0 66.91602 386 61.41699 -386 113.66699 0 63.25 386 62.33301 -386 110 0 66 386 60.5 -386 113.66699 0 59.58301 386 rlineto
          55.91699 -386 110.91602 0 76.08398 386 62.33301 -386 109.08301 0 84.33398 527 rlineto
          endchar
        </CharString>
        <CharString name="lig.126">
          -1198.08301 69.66602 352 69.66699 333.66699 69.66602 vstem
          -1128.41699 712 rmoveto
          -69.66602 -801 69.66602 hlineto
          421.66699 801 rmoveto
          96 callsubr
          403.33301 801 rmoveto
          -69.66602 -801 69.66602 hlineto
          528.91699 359 0 86 rlineto
          -528.91699 -355 rmoveto
          59 callsubr
          endchar
        </CharString>
        <CharString name="lig.127">
          -796.58301 69.66602 333.66699 69.66699 352 69.66602 vstem
          -796.58301 712 rmoveto
          -528.91699 -356 0 -86 528.91699 -359 69.66602 0 0 801 rlineto
          333.66699 hmoveto
          108 callsubr
          352 hmoveto
          -801 69.66602 801 vlineto
          -894.66602 -711 rmoveto
          76 callsubr
          endchar
        </CharString>
        <CharString name="lig.128">
          -11 134 154 72 269 -20 hstemhm
          -1162.33301 122.83301 -105.41699 86.16699 -77 68.75 hintmask 11101000
          -1058.75 689 rmoveto
          69 callsubr
          hintmask 11100100
          70 callsubr
          -313.5 391 rmoveto
          -248.41699 -305 248.41699 -305 57.75 54 -131.08301 156 rlineto
          -18.33398 22 -18.33301 20 -22 16 rrcurveto
          276.83301 74 -276.83301 hlineto
          26.58301 18 6.41699 9 25.66699 31 rrcurveto
          131.08301 156 rlineto
          365.75 -287 rmoveto
          1392.41699 72 -1392.41699 hlineto
          -143.91699 -226 rmoveto
          hintmask 11110000
          71 callsubr
          endchar
        </CharString>
        <CharString name="lig.129">
          21 -21 170 64 222 66 hstem
          501.41699 456 rmoveto
          66 -73.33398 vlineto
          21.08398 167 -65.08398 0 -21.08301 -167 -133.83301 0 21.08301 167 -65.08301 0 -21.08398 -167 -286 0 21.08398 167 -65.08398 0 -21.08301 -167 -133.83301 0 21.08301 167 -65.08301 0 -21.08398 -167 rlineto
          -286 0 21.08398 167 -65.08398 0 -21.08301 -167 -133.83301 0 21.08301 167 -65.08301 0 -21.08398 -167 -286 0 21.08398 167 -65.08398 0 -21.08301 -167 -133.83301 0 21.08301 167 -65.08301 0 rlineto
          -21.08398 -167 -81.58301 0 0 -66 74.25 0 -28.41699 -222 -79.75 0 0 -64 72.41699 0 -20.16699 -170 65.08398 0 21.08301 170 132.91699 0 -20.16699 -170 65.08301 0 19.25 170 rlineto
          286.91699 0 -20.16699 -170 65.08398 0 21.08301 170 132.91699 0 -20.16699 -170 65.08301 0 19.25 170 286.91699 0 -20.16699 -170 65.08398 0 21.08301 170 132.91699 0 -20.16699 -170 65.08301 0 rlineto
          19.25 170 286.91699 0 -20.16699 -170 65.08398 0 21.08301 170 132.91699 0 -20.16699 -170 65.08301 0 19.25 170 83.41699 0 0 64 -74.25 0 26.58301 222 rlineto
          -1742.58301 -222 rmoveto
          60 callsubr
          322.66602 -222 rmoveto
          85 callsubr
          170.5 -222 rmoveto
          60 callsubr
          322.66602 -222 rmoveto
          85 callsubr
          170.5 -222 rmoveto
          60 callsubr
          322.66602 -222 rmoveto
          85 callsubr
          170.5 -222 rmoveto
          60 callsubr
          endchar
        </CharString>
        <CharString name="lig.13">
          -115 71 787 72 hstem
          -267.66699 68.75 415.25 73.33398 vstem
          -267.66699 815 rmoveto
          -930 68.75 930 vlineto
          488.58398 -930 rmoveto
          930 -419.83398 -72 346.5 -787 -346.5 -71 vlineto
          endchar
        </CharString>
        <CharString name="lig.130">
          27 -21 174 72 118 72 hstem
          234.66699 616 rmoveto
          -57.75 -54 57.75 -68 rlineto
          13.75 -17 15.58301 -17 27.5 -18 rrcurveto
          -1683 hlineto
          27.5 18 15.58301 17 13.75 17 rrcurveto
          57.75 68 -57.75 54 -248.41602 -305 248.41602 -305 57.75 54 -57.75 69 rlineto
          -13.75 17 -15.58301 16 -27.5 18 rrcurveto
          1683 hlineto
          -27.5 -18 -15.58301 -16 -13.75 -17 rrcurveto
          -57.75 -69 57.75 -54 248.41602 305 rlineto
          -1921.33301 -59 rmoveto
          -48.58301 59 48.58301 59 1776.5 0 48.58301 -59 -48.58301 -59 rlineto
          endchar
        </CharString>
        <CharString name="lig.14">
          180 72 118 72 hstem
          -309.83301 68.75 vstem
          361.16699 370 rmoveto
          72 -602.25 282 -68.75 -826 68.75 282 602.25 72 -602.25 118 vlineto
          endchar
        </CharString>
        <CharString name="lig.15">
          -281.41699 69.66699 vstem
          -211.75 712 rmoveto
          -69.66699 -801 69.66699 hlineto
          528.91699 359 0 86 rlineto
          -528.91699 -355 rmoveto
          59 callsubr
          endchar
        </CharString>
        <CharString name="lig.16">
          277 72 hstem
          -309.83301 68.75 vstem
          360.25 349 rmoveto
          -601.33301 375 -68.75 -826 68.75 379 601.33301 hlineto
          endchar
        </CharString>
        <CharString name="lig.17">
          -138 66 388 68 388 66 hstem
          -289.66699 71.5 417.08398 68.75 vstem
          cntrmask 11100000
          -121.91699 838 rmoveto
          -102.66602 0 -63.25 -27 -0.91699 -124 rrcurveto
          -0.91699 -199 rlineto
          -68 -15.58301 -36 -122.83301 vhcurveto
          -68 vlineto
          122.83301 15.58301 -37 -69 hvcurveto
          -192 vlineto
          -123 65.08398 -33 102.66602 vhcurveto
          253 66 -253 hlineto
          -67.83301 -28.41699 17 63 hvcurveto
          208 vlineto
          0 88 -21.08301 33 -64.16699 13 62.33398 13 22.91602 37 0 84 rrcurveto
          211 vlineto
          61 29.33398 16 66.91602 vhcurveto
          253 66 hlineto
          136.58398 hmoveto
          -68.75 -976 68.75 hlineto
          endchar
        </CharString>
        <CharString name="lig.18">
          -115 71 787 72 hstem
          -289.66699 73.33398 415.25 68.75 vstem
          -289.66699 -115 rmoveto
          419.83398 71 -346.5 787 346.5 72 -419.83398 hlineto
          557.33398 hmoveto
          -68.75 -930 68.75 hlineto
          endchar
        </CharString>
        <CharString name="lig.19">
          -115 71 65 -21 170 64 222 66 221 72 hstemhm
          -398.75 230.08301 -73.33301 73.33301 hintmask 11111010
          446.41699 456 rmoveto
          66 -73.33398 vlineto
          21.08398 167 -65.08398 0 -21.08301 -167 -133.83301 0 21.08301 167 -65.08301 0 -21.08398 -167 -277.75 0 rlineto
          hintmask 11111100
          293 -230.08301 -72 vlineto
          hintmask 11111010
          156.75 -787 hlineto
          hintmask 11111100
          -156.75 -71 230.08301 hlineto
          hintmask 11111010
          285 234.66699 vlineto
          -20.16699 -170 65.08398 0 21.08301 170 132.91699 0 -20.16699 -170 65.08301 0 19.25 170 83.41699 0 0 64 -74.25 0 26.58301 222 rlineto
          -291.5 -222 rmoveto
          -242 222 270.41699 hlineto
          170.5 -222 rmoveto
          60 callsubr
          endchar
        </CharString>
        <CharString name="lig.2">
          180 72 118 72 hstem
          -18.33301 442 rmoveto
          -176.91699 318 -67.83301 0 -173.25 -313 82.5 0 123.75 237 165 -314 472.08301 0 0 72 rlineto
          -472.08301 -262 rmoveto
          472.08301 72 -472.08301 hlineto
          endchar
        </CharString>
        <CharString name="lig.20">
          -11 162 198 162 hstem
          -257.58301 147.58301 219.08301 147.58398 vstem
          -257.58301 431 rmoveto
          -45 31.16602 -37 42.16699 43.08301 31.16699 37 45 44 -31.16699 36 -43.08301 -42.16699 -31.16602 -36 -44 vhcurveto
          366.66602 hmoveto
          61 callsubr
          -366.66602 -361 rmoveto
          -46 31.16602 -35 42.16699 43.08301 31.16699 35 46 44 -31.16699 37 -43.08301 -42.16699 -31.16602 -37 -44 vhcurveto
          366.66602 hmoveto
          62 callsubr
          endchar
        </CharString>
        <CharString name="lig.21">
          107 162 -89 72 100 162 -144 72 hstemhm
          -352 148.5 hintmask 00101000
          -352 434 rmoveto
          -45 32.08301 -37 41.25 43.08398 32.08301 37 45 45 -32.08301 35 -43.08398 vhcurveto
          -41.25 -32.08301 -35 -45 hvcurveto
          hintmask 00011000
          804.83301 8 rmoveto
          63 callsubr
          -804.83301 -182 rmoveto
          hintmask 10001000
          -46 32.08301 -35 41.25 43.08398 32.08301 35 46 44 -32.08301 37 -43.08398 -41.25 -32.08301 -37 -44 vhcurveto
          hintmask 01001000
          804.83301 64 rmoveto
          63 callsubr
          endchar
        </CharString>
        <CharString name="lig.22">
          47 162 198 162 hstem
          -371.25 147.58301 vstem
          10.08301 598 rmoveto
          0 -81 363 -204 -363 -204 0 -81 435.41699 242 0 85 rlineto
          -816.75 134 rmoveto
          64 callsubr
          -361 vmoveto
          65 callsubr
          endchar
        </CharString>
        <CharString name="lig.23">
          -57 77 616 66 hstem
          -371.25 81.58301 86.16699 62.33301 115.5 83.41699 vstem
          80.66699 619 rmoveto
          -62.33398 44 -87.08301 31 -72.41699 8 rrcurveto
          146 -62.33301 -145 vlineto
          -112.75 -12 -55 -83 0 -80 0 -93 60.5 -59 107.25 -39 rrcurveto
          -317 vlineto
          -60.5 -4 -47.66699 8 -107.25 70 rrcurveto
          -89 vlineto
          90.75 -53 44.91699 -12 79.75 3 rrcurveto
          -96 62.33301 98 vlineto
          113.66699 18 85.25 88 0 126 0 124 -107.25 67 -91.66699 33 rrcurveto
          235 vlineto
          45.83398 -6 66 -23 110 -77 rrcurveto
          323.58301 -217 -253 -168 -20.16699 -108 339.16699 233 0 86 rlineto
          -673.75 67 rmoveto
          66 callsubr
          177.83301 -457 rmoveto
          67 callsubr
          endchar
        </CharString>
        <CharString name="lig.24">
          180 72 118 72 hstem
          452.83301 442 rmoveto
          68 callsubr
          -118 vmoveto
          68 callsubr
          endchar
        </CharString>
        <CharString name="lig.25">
          27 -21 174 72 118 72 hstem
          234.66699 616 rmoveto
          -57.75 -54 57.75 -68 rlineto
          13.75 -17 15.58301 -17 27.5 -18 rrcurveto
          -725.08301 -72 771.83301 hlineto
          48.58301 -59 -48.58301 -59 -771.83301 0 0 -72 725.08301 0 rlineto
          -27.5 -18 -15.58301 -16 -13.75 -17 rrcurveto
          -57.75 -69 57.75 -54 248.41602 305 rlineto
          endchar
        </CharString>
        <CharString name="lig.26">
          180 72 118 72 hstem
          452.83301 370 rmoveto
          72 -344.66602 vlineto
          98.08301 180 -59.58301 33 -117.33398 -213 -482.16602 0 0 -72 442.75 0 -64.16699 -118 -378.58301 0 0 -72 339.16602 0 -92.58301 -168 61.41699 -34 110 202 487.66602 0 0 72 rlineto
          -448.25 0 64.16699 118 rlineto
          endchar
        </CharString>
        <CharString name="lig.27">
          -11 134 hstemhm
          -227.33301 122.83301 -105.41699 86.16699 -77 68.75 234.66699 122.83301 -105.41699 86.16699 -77 68.75 hintmask 10100000
          -123.75 689 rmoveto
          69 callsubr
          hintmask 10010000
          70 callsubr
          hintmask 10000100
          338.25 462 rmoveto
          69 callsubr
          hintmask 10000010
          70 callsubr
          -363.91699 -104 rmoveto
          hintmask 11000000
          71 callsubr
          330 hmoveto
          hintmask 10001000
          71 callsubr
          endchar
        </CharString>
        <CharString name="lig.28">
          -237.41699 117 rmoveto
          503.25 244 0 80 -503.25 244 -27.5 -68 451 -216 -451 -216 rlineto
          519.75 9 rmoveto
          -502.33301 -241 27.5 -68 502.33301 244 rlineto
          endchar
        </CharString>
        <CharString name="lig.29">
          -439.08301 582 rmoveto
          72 callsubr
          53.16699 227 rmoveto
          73 callsubr
          endchar
        </CharString>
        <CharString name="lig.3">
          228 73 27 73 hstem
          355.66699 386 rmoveto
          52 callsubr
          endchar
        </CharString>
        <CharString name="lig.30">
          277 72 269 -20 hstem
          435.41699 349 rmoveto
          -596.75 0 -219.08398 269 -57.75 -54 209.91699 -251 -209.91699 -251 57.75 -54 219.08398 269 596.75 0 rlineto
          endchar
        </CharString>
        <CharString name="lig.31">
          228 73 -24 72 -21 73 hstemhm
          hintmask 10100000
          382.25 386 rmoveto
          -23.83301 -48 -29.33398 -37 -37.58301 0 -55.91699 0 -29.33301 100 -91.66699 0 rrcurveto
          hintmask 01000000
          -75.16602 0 -4.58398 -51 -73.33301 -1 rrcurveto
          -396.91699 -72 411.58398 hlineto
          hintmask 10100000
          68.75 0 9.16602 51 57.75 0 58.66699 0 32.08301 -100 86.16699 0 80.66699 0 40.33301 69 27.5 57 rrcurveto
          endchar
        </CharString>
        <CharString name="lig.32">
          277 72 hstem
          241.08301 68.75 vstem
          241.08301 724 rmoveto
          -375 -601.33301 -72 601.33301 -379 68.75 826 vlineto
          endchar
        </CharString>
        <CharString name="lig.33">
          276 74 268 -20 hstem
          188.83301 618 rmoveto
          -57.75 -54 131.08398 -156 rlineto
          25.66602 -31 6.41699 -9 26.58301 -18 rrcurveto
          -756.25 -74 756.25 hlineto
          -22 -16 -18.33301 -20 -18.33301 -22 rrcurveto
          -131.08398 -156 57.75 -54 248.41699 305 rlineto
          endchar
        </CharString>
        <CharString name="lig.34">
          277 72 hstem
          -388.66699 277 rmoveto
          74 callsubr
          429 -72 rmoveto
          74 callsubr
          endchar
        </CharString>
        <CharString name="lig.35">
          277 72 269 -20 hstem
          438.16699 564 rmoveto
          -57.75 54 -219.08398 -269 -596.75 0 0 -72 596.75 0 219.08398 -269 57.75 54 -209.91699 251 rlineto
          endchar
        </CharString>
        <CharString name="lig.36">
          229 72 28 78 211 -20 hstem
          235.58301 401 rmoveto
          -105.41602 0 -15.58398 -100 -62.33301 0 -62.33301 0 -15.58398 106 -105.41602 0 -103.58398 0 -1.83301 -72 -76.08301 -8 rrcurveto
          23 vlineto
          22 16 18.33301 20 18.33301 22 rrcurveto
          131.08398 156 -57.75 54 -248.41699 -305 248.41699 -305 57.75 54 -131.08398 156 rlineto
          -10.08301 13 -7.33301 9 -7.33398 7 77.91699 13 14.66699 69 55 0 62.33301 0 15.58301 -100 105.41699 0 105.41699 0 15.58301 100 62.33301 0 33.91699 0 33.91699 -36 21.08301 -46 rrcurveto
          65.08301 35 rlineto
          -18.33301 49 -68.75 70 -66.91699 0 rrcurveto
          endchar
        </CharString>
        <CharString name="lig.37">
          26 -21 626 -20 hstemhm
          189.75 81.58301 -71.5 61.41699 hintmask 11100000
          189.75 631 rmoveto
          hintmask 11010000
          10.08301 -261 -223.66602 89 -27.5 -85 231.91602 -68 -139.33301 -197 68.75 -52 121.91699 210 135.66602 -216 66.91699 56 -152.16699 199 227.33398 69 -22.91699 84 -225.5 -88 rlineto
          hintmask 11100000
          10.08301 260 rlineto
          -305.25 -12 rmoveto
          75 callsubr
          endchar
        </CharString>
        <CharString name="lig.38">
          211.75 69.66699 vstem
          211.75 712 rmoveto
          -528.91699 -356 0 -86 528.91699 -359 69.66699 0 0 801 rlineto
          -69.66699 -711 rmoveto
          76 callsubr
          endchar
        </CharString>
        <CharString name="lig.39">
          47 162 198 162 hstem
          223.66699 147.58301 vstem
          -10.08301 598 rmoveto
          -435.41699 -243 0 -85 435.41699 -242 0 81 -363 204 363 204 rlineto
          381.33301 -28 rmoveto
          77 callsubr
          -361 vmoveto
          78 callsubr
          endchar
        </CharString>
        <CharString name="lig.4">
          -91 68 -23 63 211 73 27 73 -22 62 185 74 hstemhm
          27.5 74.25 166.83301 67.83398 121 79.75 hintmask 1011011110000000
          260.33301 700 rmoveto
          -45.83301 0 -142.08301 -4 -66 -91 -53.16699 -72 -31.16699 -116 -16.5 -31 -23.83301 -48 -29.33301 -37 -37.58398 0 -55.91602 0 -29.33398 100 -91.66602 0 -81.58398 0 -39.41602 -70 -27.5 -58 rrcurveto
          55 -30 rlineto
          23.83301 48 27.5 37 39.41699 0 58.66602 0 32.08398 -100 86.16602 0 80.66699 0 40.33301 69 27.5 57 15.58398 33 26.58301 103 49.5 64 53.16699 70 122.83301 2 33 0 rrcurveto
          167.75 28.41699 -151 -191 -172 0.91602 -135 -57.75 -35.75 -28.41602 24 107 hvcurveto
          296 vlineto
          hintmask 0110111110000000
          -51.33398 30 -35.75 7 -42.16602 0 rrcurveto
          -113.66699 -66 -83 -175 -132 37.58301 -97 99.91699 hvcurveto
          73.33301 0 34.83398 51 17.41602 47 rrcurveto
          3.66699 hlineto
          hintmask 1011011110000000
          -0.91699 -49 32.08398 -94 77 0 rrcurveto
          110 24.75 124 252 hvcurveto
          204 -40.33398 211 -236.5 vhcurveto
          8.25 -595 rmoveto
          hintmask 0110111110000000
          -11 -28 -19.25 -60 -64.16602 0 rrcurveto
          -55 -17.41699 69 97 130 24.75 66 83.41699 hvcurveto
          22 0 17.41602 -4 19.25 -10 rrcurveto
          endchar
        </CharString>
        <CharString name="lig.40">
          -57 77 616 66 hstem
          -4.58301 81.58301 86.16699 62.33301 115.5 83.41699 vstem
          447.33301 530 rmoveto
          89 vlineto
          -62.33301 44 -87.08301 31 -72.41699 8 rrcurveto
          146 -62.33301 -145 vlineto
          -112.75 -12 -55 -83 0 -80 0 -93 60.5 -59 107.25 -39 rrcurveto
          -317 vlineto
          -60.5 -4 -47.66699 8 -107.25 70 rrcurveto
          -323.58301 219 272.25 181 13.75 100 -352 -237 0 -87 389.58301 -265 rlineto
          90.75 -53 44.91699 -12 79.75 3 rrcurveto
          -96 62.33301 98 vlineto
          113.66699 18 85.25 88 0 126 0 124 -107.25 67 -91.66699 33 rrcurveto
          235 vlineto
          45.83301 -6 66 -23 110 -77 rrcurveto
          -284.16602 -107 rmoveto
          66 callsubr
          177.83301 -457 rmoveto
          67 callsubr
          endchar
        </CharString>
        <CharString name="lig.41">
          264.91699 617 rmoveto
          -27.5 68 -503.25 -244 0 -80 503.25 -244 27.5 68 -451 216 rlineto
          -96.25 -272 rmoveto
          502.33301 -244 27.5 68 -502.33301 241 rlineto
          endchar
        </CharString>
        <CharString name="lig.42">
          2 -21 661 -20 hstem
          642 vmoveto
          -423.5 -285 0 -87 423.5 -289 424.41699 289 0 86 rlineto
          -424.41699 -285 rmoveto
          -357.5 242 357.5 240 358.41699 -240 rlineto
          endchar
        </CharString>
        <CharString name="lig.43">
          276 74 268 -20 hstem
          -188.83301 618 rmoveto
          -248.41699 -305 248.41699 -305 57.75 54 -131.08398 156 rlineto
          -18.33301 22 -18.33301 20 -22 16 rrcurveto
          756.25 74 -756.25 hlineto
          26.58301 18 6.41699 9 25.66602 31 rrcurveto
          131.08398 156 rlineto
          endchar
        </CharString>
        <CharString name="lig.44">
          -19.25 582 rmoveto
          79 callsubr
          428.08301 65 rmoveto
          80 callsubr
          endchar
        </CharString>
        <CharString name="lig.45">
          26 -21 271 70 273 -20 hstem
          192.5 71.5 vstem
          -33.91699 619 rmoveto
          75 callsubr
          297.91699 65 rmoveto
          81 callsubr
          endchar
        </CharString>
        <CharString name="lig.46">
          348.33301 809 rmoveto
          -343.75 -772 -407.91602 276 323.58301 217 -37.58301 64 -352 -237 0 -87 443.66602 -301 -38.5 -87 62.33398 -30 411.58301 925 rlineto
          endchar
        </CharString>
        <CharString name="lig.47">
          -136 67 90 -21 170 64 82 68 72 66 247 67 hstem
          413.41699 769 rmoveto
          67 vlineto
          -102.66699 0 -95.33301 -34 11.91602 -122 rrcurveto
          15.58398 -158 -309.83398 0 21.08398 167 -65.08398 0 -21.08301 -167 -133.83301 0 21.08301 167 -65.08301 0 -21.08398 -167 -81.58301 0 0 -66 74.25 0 -28.41699 -222 -79.75 0 0 -64 rlineto
          72.41699 0 -20.16699 -170 65.08398 0 21.08301 170 132.91699 0 -20.16699 -170 65.08301 0 19.25 170 353.83398 0 -15.58398 -150 rlineto
          -11.91602 -122 95.33301 -34 102.66699 0 rrcurveto
          67 vlineto
          -66.91699 0 -53.16699 17 5.5 63 rrcurveto
          18.33398 205 rlineto
          8.25 88 -29.33398 33 -64.16602 13 63.25 13 30.25 37 -8.25 84 rrcurveto
          -18.33398 205 rlineto
          -5.5 62 53.16699 18 66.91699 0 rrcurveto
          -581.16699 -535 rmoveto
          60 callsubr
          386.83301 -222 rmoveto
          -349.25 0 26.58301 222 321.75 0 rlineto
          -3.66602 -47 -33 -25 -102.66699 0 rrcurveto
          -68 vlineto
          108.16699 0 30.25 -28 1.83301 -54 rrcurveto
          endchar
        </CharString>
        <CharString name="lig.48">
          -115 71 65 -21 170 64 222 66 221 72 hstemhm
          168.66699 230.08301 -230.08301 73.33301 hintmask 11111100
          398.75 743 rmoveto
          72 -230.08301 vlineto
          hintmask 11111010
          -293 -235.58398 vlineto
          21.08398 167 -65.08398 0 -21.08301 -167 -133.83301 0 21.08301 167 -65.08301 0 -21.08398 -167 -81.58301 0 0 -66 74.25 0 -28.41699 -222 -79.75 0 0 -64 72.41699 0 -20.16699 -170 rlineto
          65.08398 0 21.08301 170 132.91699 0 -20.16699 -170 65.08301 0 19.25 170 279.58398 0 rlineto
          hintmask 11111100
          -285 230.08301 71 vlineto
          hintmask 11111010
          -156.75 787 hlineto
          -409.75 -509 rmoveto
          60 callsubr
          37.58301 -222 rmoveto
          26.58301 222 243.83398 0 0 -222 rlineto
          endchar
        </CharString>
</ttFont>
